Gemunu-sinhala-0.ufo
<glyph name="visarga" format="1">
  <advance width="210"/>
  <unicode hex="0D83"/>
  <outline>
    <contour>
      <point x="21.999" y="135.8" type="curve" smooth="yes"/>
      <point x="21.999" y="13.001" type="line" smooth="yes"/>
      <point x="21.999" y="2.79102"/>
      <point x="27.7676" y="0.000976562"/>
      <point x="36.8008" y="0.000976562" type="curve" smooth="yes"/>
      <point x="152.999" y="0.000976562" type="line" smooth="yes"/>
      <point x="161.361" y="0.000976562"/>
      <point x="166.999" y="3.0957"/>
      <point x="166.999" y="12.001" type="curve" smooth="yes"/>
      <point x="166.999" y="136.001" type="line" smooth="yes"/>
      <point x="166.999" y="147.252"/>
      <point x="161.109" y="150.001"/>
      <point x="150.999" y="150.001" type="curve" smooth="yes"/>
      <point x="37.999" y="150.001" type="line" smooth="yes"/>
      <point x="27.4092" y="150.001"/>
      <point x="21.999" y="144.349"/>
    </contour>
    <contour>
      <point x="66.001" y="117.001" type="curve" smooth="yes"/>
      <point x="123" y="117.001" type="line" smooth="yes"/>
      <point x="128.341" y="117.001"/>
      <point x="130.001" y="116.341"/>
      <point x="130.001" y="110.8" type="curve" smooth="yes"/>
      <point x="130.001" y="39.3984" type="line" smooth="yes"/>
      <point x="130.001" y="33.4189"/>
      <point x="129.2" y="32.1973"/>
      <point x="123.2" y="32.1973" type="curve" smooth="yes"/>
      <point x="66" y="32.1973" type="line" smooth="yes"/>
      <point x="60.0205" y="32.1973"/>
      <point x="58.999" y="33.1982"/>
      <point x="58.999" y="39.1982" type="curve" smooth="yes"/>
      <point x="58.999" y="111" type="line" smooth="yes"/>
      <point x="58.999" y="115.983"/>
      <point x="61.001" y="117.001"/>
    </contour>
    <contour>
      <point x="22" y="483.799" type="curve" smooth="yes"/>
      <point x="22" y="361" type="line" smooth="yes"/>
      <point x="22" y="350.79"/>
      <point x="27.7686" y="348"/>
      <point x="36.8018" y="348" type="curve" smooth="yes"/>
      <point x="153" y="348" type="line" smooth="yes"/>
      <point x="161.362" y="348"/>
      <point x="167" y="351.095"/>
      <point x="167" y="360" type="curve" smooth="yes"/>
      <point x="167" y="484" type="line" smooth="yes"/>
      <point x="167" y="495.251"/>
      <point x="161.11" y="498"/>
      <point x="151" y="498" type="curve" smooth="yes"/>
      <point x="38" y="498" type="line" smooth="yes"/>
      <point x="27.4097" y="498"/>
      <point x="22" y="492.348"/>
    </contour>
    <contour>
      <point x="66.002" y="465" type="curve" smooth="yes"/>
      <point x="123.001" y="465" type="line" smooth="yes"/>
      <point x="128.342" y="465"/>
      <point x="130.002" y="464.34"/>
      <point x="130.002" y="458.799" type="curve" smooth="yes"/>
      <point x="130.002" y="387.397" type="line" smooth="yes"/>
      <point x="130.002" y="381.418"/>
      <point x="129.201" y="380.196"/>
      <point x="123.201" y="380.196" type="curve" smooth="yes"/>
      <point x="66.001" y="380.196" type="line" smooth="yes"/>
      <point x="60.0215" y="380.196"/>
      <point x="59" y="381.197"/>
      <point x="59" y="387.197" type="curve" smooth="yes"/>
      <point x="59" y="458.999" type="line" smooth="yes"/>
      <point x="59" y="463.982"/>
      <point x="61.002" y="465"/>
    </contour>
  </outline>
</glyph>
<glyph name="si_A" format="1">
  <advance width="542"/>
  <unicode hex="0D85"/>
  <outline>
    <contour>
      <point x="322.39" y="428.999" type="line" smooth="yes"/>
      <point x="322.39" y="472.314"/>
      <point x="345.848" y="496.999"/>
      <point x="384.004" y="496.999" type="curve" smooth="yes"/>
      <point x="493" y="497" type="line"/>
      <point x="493" y="465.999" type="line"/>
      <point x="457" y="465.999" type="line" smooth="yes"/>
      <point x="445.646" y="465.771"/>
      <point x="444" y="459.332"/>
      <point x="444" y="455.999" type="curve" smooth="yes"/>
      <point x="444" y="441.735"/>
      <point x="490" y="403.788"/>
      <point x="490" y="349.998" type="curve" smooth="yes"/>
      <point x="490" y="251.998" type="line" smooth="yes"/>
      <point x="490" y="218.378"/>
      <point x="473.152" y="198.999"/>
      <point x="440" y="198.999" type="curve" smooth="yes"/>
      <point x="359.389" y="198.999" type="line"/>
      <point x="359.389" y="31.999" type="line"/>
      <point x="488" y="31.999" type="line"/>
      <point x="488" y="0" type="line"/>
      <point x="359.389" y="0" type="line"/>
      <point x="359.389" y="-140" type="line"/>
      <point x="322.389" y="-140" type="line"/>
      <point x="322.389" y="0" type="line"/>
      <point x="69.999" y="0" type="line" smooth="yes"/>
      <point x="33" y="0"/>
      <point x="21.999" y="14.0518"/>
      <point x="21.999" y="51" type="curve" smooth="yes"/>
      <point x="21.999" y="297" type="line" smooth="yes"/>
      <point x="21.999" y="334.333"/>
      <point x="40.5322" y="353"/>
      <point x="77.1992" y="353" type="curve" smooth="yes"/>
      <point x="227" y="352.999" type="line"/>
      <point x="227" y="422.999" type="line" smooth="yes"/>
      <point x="227" y="460.607"/>
      <point x="207.099" y="465.999"/>
      <point x="182" y="465.999" type="curve" smooth="yes"/>
      <point x="21.999" y="466" type="line"/>
      <point x="21.999" y="497" type="line"/>
      <point x="192" y="496.999" type="line" smooth="yes"/>
      <point x="238.889" y="496.999"/>
      <point x="264.001" y="474.111"/>
      <point x="264.001" y="430.999" type="curve" smooth="yes"/>
      <point x="264" y="320.999" type="line"/>
      <point x="88.2002" y="321" type="line" smooth="yes"/>
      <point x="65.3369" y="321"/>
      <point x="59" y="311.682"/>
      <point x="59" y="287" type="curve" smooth="yes"/>
      <point x="59" y="59" type="line" smooth="yes"/>
      <point x="59" y="36.908"/>
      <point x="63.5967" y="32.0001"/>
      <point x="81" y="32" type="curve" smooth="yes"/>
      <point x="322.389" y="31.999" type="line"/>
    </contour>
    <contour>
      <point x="359.389" y="231.4" type="line"/>
      <point x="428" y="231.4" type="line" smooth="yes"/>
      <point x="446.854" y="231.4"/>
      <point x="453" y="237.007"/>
      <point x="453" y="258.999" type="curve" smooth="yes"/>
      <point x="453" y="349.999" type="line" smooth="yes"/>
      <point x="453" y="394.059"/>
      <point x="405.387" y="427.699"/>
      <point x="405.387" y="457.999" type="curve" smooth="yes"/>
      <point x="405.387" y="460.665"/>
      <point x="405.838" y="463.944"/>
      <point x="407.387" y="465.999" type="curve"/>
      <point x="379.997" y="465.999"/>
      <point x="359.389" y="463.103"/>
      <point x="359.389" y="426.999" type="curve" smooth="yes"/>
    </contour>
  </outline>
</glyph>
<glyph name="si_I" format="1">
  <advance width="519"/>
  <unicode hex="0D89"/>
  <outline>
    <contour>
      <point x="256.194" y="346" type="line"/>
      <point x="256.194" y="206" type="line" smooth="yes"/>
      <point x="256.194" y="172.077"/>
      <point x="236.188" y="156"/>
      <point x="202.997" y="156" type="curve" smooth="yes"/>
      <point x="78" y="156" type="line" smooth="yes"/>
      <point x="41.2403" y="156"/>
      <point x="22" y="172.981"/>
      <point x="22" y="210" type="curve" smooth="yes"/>
      <point x="22" y="442" type="line" smooth="yes"/>
      <point x="22" y="476.486"/>
      <point x="43.9779" y="497"/>
      <point x="83.001" y="497" type="curve" smooth="yes"/>
      <point x="402.999" y="497" type="line" smooth="yes"/>
      <point x="446.528" y="497"/>
      <point x="464" y="474.966"/>
      <point x="464" y="442" type="curve" smooth="yes"/>
      <point x="464" y="74" type="line" smooth="yes"/>
      <point x="464" y="41.9434"/>
      <point x="457.174" y="22.3848"/>
      <point x="431.602" y="14.7959" type="curve"/>
      <point x="445.67" y="6.18652"/>
      <point x="447" y="-8"/>
      <point x="447" y="-32" type="curve" smooth="yes"/>
      <point x="447" y="-99.0049" type="line" smooth="yes"/>
      <point x="447" y="-141.628"/>
      <point x="429.967" y="-159.005"/>
      <point x="390.999" y="-159.005" type="curve" smooth="yes"/>
      <point x="46.2031" y="-159.005" type="line"/>
      <point x="46.2031" y="-126.999" type="line"/>
      <point x="380.999" y="-126.999" type="line" smooth="yes"/>
      <point x="400.75" y="-126.999"/>
      <point x="409.999" y="-123.379"/>
      <point x="409.999" y="-101.999" type="curve" smooth="yes"/>
      <point x="409.999" y="-30" type="line" smooth="yes"/>
      <point x="409.999" y="-14.9248"/>
      <point x="402.912" y="0"/>
      <point x="376.999" y="0" type="curve" smooth="yes"/>
      <point x="47.001" y="0.000976562" type="line"/>
      <point x="47.001" y="32.001" type="line"/>
      <point x="365.199" y="32" type="line" smooth="yes"/>
      <point x="409.102" y="32"/>
      <point x="426.999" y="38.6924"/>
      <point x="426.999" y="75" type="curve" smooth="yes"/>
      <point x="426.999" y="437" type="line" smooth="yes"/>
      <point x="426.999" y="459.172"/>
      <point x="415.634" y="465"/>
      <point x="394.999" y="465" type="curve" smooth="yes"/>
      <point x="94" y="465" type="line" smooth="yes"/>
      <point x="69.7105" y="465"/>
      <point x="59" y="457.363"/>
      <point x="59" y="437" type="curve" smooth="yes"/>
      <point x="59" y="218.4" type="line" smooth="yes"/>
      <point x="59" y="197.798"/>
      <point x="61.5199" y="188"/>
      <point x="91.3984" y="188" type="curve" smooth="yes"/>
      <point x="197.194" y="188" type="line" smooth="yes"/>
      <point x="216.434" y="188"/>
      <point x="218.998" y="199.84"/>
      <point x="218.998" y="217" type="curve" smooth="yes"/>
      <point x="218.998" y="346" type="line"/>
    </contour>
  </outline>
</glyph>
<glyph name="si_Ii" format="1">
  <advance width="451"/>
  <unicode hex="0D8A"/>
  <outline>
    <contour>
      <point x="22" y="48.2002" type="line" smooth="yes"/>
      <point x="22" y="11.8604"/>
      <point x="38.2246" y="0"/>
      <point x="67.6016" y="0" type="curve" smooth="yes"/>
      <point x="338.799" y="0" type="line" smooth="yes"/>
      <point x="389.644" y="0"/>
      <point x="394" y="32.0947"/>
      <point x="394" y="61" type="curve" smooth="yes"/>
      <point x="394" y="438" type="line" smooth="yes"/>
      <point x="394" y="473.887"/>
      <point x="375.534" y="497"/>
      <point x="332.999" y="497" type="curve" smooth="yes"/>
      <point x="116.598" y="497.001" type="line"/>
      <point x="316" y="663.001" type="line"/>
      <point x="264" y="663.001" type="line"/>
      <point x="63.001" y="498.001" type="line" smooth="yes"/>
      <point x="36.7941" y="476.488"/>
      <point x="22" y="459.123"/>
      <point x="22" y="430" type="curve" smooth="yes"/>
    </contour>
    <contour>
      <point x="59" y="417" type="line" smooth="yes"/>
      <point x="59" y="450.111"/>
      <point x="75.001" y="465"/>
      <point x="99.001" y="465" type="curve" smooth="yes"/>
      <point x="320.999" y="464.998" type="line" smooth="yes"/>
      <point x="346.579" y="464.998"/>
      <point x="358.8" y="456.101"/>
      <point x="358.8" y="424" type="curve" smooth="yes"/>
      <point x="358.8" y="64.1963" type="line" smooth="yes"/>
      <point x="358.8" y="34.2881"/>
      <point x="350.604" y="32"/>
      <point x="332.206" y="32" type="curve" smooth="yes"/>
      <point x="95.2012" y="32.001" type="line" smooth="yes"/>
      <point x="61.7314" y="32.0011"/>
      <point x="59" y="36.6553"/>
      <point x="59" y="70.7959" type="curve" smooth="yes"/>
    </contour>
    <contour>
      <point x="71.9961" y="663.001" type="line"/>
      <point x="123.996" y="663.001" type="line"/>
      <point x="123.996" y="609.001" type="line"/>
      <point x="71.9961" y="609.001" type="line"/>
    </contour>
    <contour>
      <point x="313" y="593.001" type="line"/>
      <point x="365" y="593.001" type="line"/>
      <point x="365" y="539.001" type="line"/>
      <point x="313" y="539.001" type="line"/>
    </contour>
  </outline>
</glyph>
<glyph name="si_U" format="1">
  <advance width="521"/>
  <unicode hex="0D8B"/>
  <outline>
    <contour>
      <point x="93.001" y="497" type="line"/>
      <point x="407.999" y="497" type="line" smooth="yes"/>
      <point x="448.665" y="497"/>
      <point x="473" y="478.366"/>
      <point x="473" y="438" type="curve" smooth="yes"/>
      <point x="473" y="321" type="line"/>
      <point x="106.601" y="321" type="line" smooth="yes"/>
      <point x="72.0156" y="321"/>
      <point x="59" y="312.879"/>
      <point x="59" y="279" type="curve" smooth="yes"/>
      <point x="59" y="-73" type="line" smooth="yes"/>
      <point x="59" y="-110.978"/>
      <point x="64.8389" y="-121.001"/>
      <point x="93" y="-121.001" type="curve" smooth="yes"/>
      <point x="410.999" y="-121.001" type="line" smooth="yes"/>
      <point x="435.024" y="-121.001"/>
      <point x="438.998" y="-105.333"/>
      <point x="438.998" y="-92" type="curve" smooth="yes"/>
      <point x="438.998" y="97.9863" type="line"/>
      <point x="476" y="97.9863" type="line"/>
      <point x="476" y="-92" type="line" smooth="yes"/>
      <point x="476" y="-138.04"/>
      <point x="456.333" y="-153"/>
      <point x="417" y="-153" type="curve" smooth="yes"/>
      <point x="76" y="-153" type="line" smooth="yes"/>
      <point x="34.0893" y="-153"/>
      <point x="22.001" y="-122.863"/>
      <point x="22.001" y="-86" type="curve" smooth="yes"/>
      <point x="22.001" y="280.995" type="line" smooth="yes"/>
      <point x="22.001" y="328.995"/>
      <point x="46.668" y="352.994"/>
      <point x="96.001" y="352.995" type="curve" smooth="yes"/>
      <point x="435.998" y="353" type="line"/>
      <point x="435.999" y="433" type="line" smooth="yes"/>
      <point x="435.999" y="449.373"/>
      <point x="431.482" y="465"/>
      <point x="402.999" y="465" type="curve" smooth="yes"/>
      <point x="93.001" y="465" type="line"/>
    </contour>
  </outline>
</glyph>
<glyph name="si_vocalicRr" format="1">
  <advance width="1243"/>
  <unicode hex="0D8E"/>
  <outline>
    <contour>
      <point x="266.027" y="34.7246" type="curve"/>
      <point x="257.358" y="10.9941"/>
      <point x="232.454" y="0"/>
      <point x="214.428" y="0" type="curve" smooth="yes"/>
      <point x="72.0264" y="0" type="line" smooth="yes"/>
      <point x="34.9521" y="0"/>
      <point x="22.0264" y="16.2705"/>
      <point x="22.0264" y="54" type="curve" smooth="yes"/>
      <point x="22.0264" y="298" type="line" smooth="yes"/>
      <point x="22.0264" y="334.667"/>
      <point x="40.6934" y="353"/>
      <point x="78.0264" y="353" type="curve" smooth="yes"/>
      <point x="205.801" y="353" type="line"/>
      <point x="205.801" y="435" type="line" smooth="yes"/>
      <point x="205.801" y="457.98"/>
      <point x="193.062" y="465"/>
      <point x="169.801" y="465" type="curve" smooth="yes"/>
      <point x="23.0264" y="465" type="line"/>
      <point x="23.0264" y="497" type="line"/>
      <point x="179.801" y="497" type="line" smooth="yes"/>
      <point x="221.128" y="497"/>
      <point x="241.801" y="478"/>
      <point x="241.801" y="440" type="curve" smooth="yes"/>
      <point x="241.801" y="321" type="line"/>
      <point x="82.0186" y="321" type="line" smooth="yes"/>
      <point x="68.6182" y="321"/>
      <point x="59.0264" y="313.324"/>
      <point x="59.0264" y="300.207" type="curve" smooth="yes"/>
      <point x="59.0264" y="55.8926" type="line" smooth="yes"/>
      <point x="59.0264" y="39.9639"/>
      <point x="65.5273" y="32"/>
      <point x="78.5205" y="32" type="curve" smooth="yes"/>
      <point x="200.428" y="32" type="line" smooth="yes"/>
      <point x="235.496" y="32"/>
      <point x="247.941" y="62.4385"/>
      <point x="247.941" y="93" type="curve" smooth="yes"/>
      <point x="247.941" y="165" type="line"/>
      <point x="285.286" y="165" type="line"/>
      <point x="285.286" y="93" type="line" smooth="yes"/>
      <point x="285.286" y="62.4385"/>
      <point x="297.732" y="32"/>
      <point x="332.8" y="32" type="curve" smooth="yes"/>
      <point x="453.506" y="32" type="line" smooth="yes"/>
      <point x="466.499" y="32"/>
      <point x="473" y="39.9639"/>
      <point x="473" y="55.8926" type="curve" smooth="yes"/>
      <point x="473" y="300.207" type="line" smooth="yes"/>
      <point x="473" y="313.324"/>
      <point x="463.408" y="321"/>
      <point x="450.008" y="321" type="curve" smooth="yes"/>
      <point x="290.226" y="321" type="line"/>
      <point x="290.226" y="440" type="line" smooth="yes"/>
      <point x="290.226" y="478"/>
      <point x="310.898" y="497"/>
      <point x="352.226" y="497" type="curve" smooth="yes"/>
      <point x="509" y="497" type="line"/>
      <point x="509" y="465" type="line"/>
      <point x="362.226" y="465" type="line" smooth="yes"/>
      <point x="338.964" y="465"/>
      <point x="326.226" y="457.98"/>
      <point x="326.226" y="435" type="curve" smooth="yes"/>
      <point x="326.226" y="353" type="line"/>
      <point x="454" y="353" type="line" smooth="yes"/>
      <point x="491.333" y="353"/>
      <point x="510" y="334.667"/>
      <point x="510" y="298" type="curve" smooth="yes"/>
      <point x="510" y="54" type="line" smooth="yes"/>
      <point x="510" y="16.2705"/>
      <point x="497.074" y="0"/>
      <point x="460" y="0" type="curve" smooth="yes"/>
      <point x="318.8" y="0" type="line" smooth="yes"/>
      <point x="300.774" y="0"/>
      <point x="274.07" y="10.9941"/>
    </contour>
    <component base="si_MatraRr" xOffset="561" yOffset="-1"/>
  </outline>
</glyph>
<glyph name="si_vocalicLL" format="1">
  <advance width="1212"/>
  <unicode hex="0D90"/>
  <outline>
    <contour>
      <point x="877" y="497.3" type="line"/>
      <point x="877" y="296.893" type="line" smooth="yes"/>
      <point x="877" y="274.258"/>
      <point x="890.007" y="263.893"/>
      <point x="910" y="263.893" type="curve" smooth="yes"/>
      <point x="990.6" y="263.893" type="line" smooth="yes"/>
      <point x="1016.57" y="263.893"/>
      <point x="1032.6" y="271.799"/>
      <point x="1032.6" y="298.893" type="curve" smooth="yes"/>
      <point x="1032.6" y="441.499" type="line" smooth="yes"/>
      <point x="1032.6" y="460.023"/>
      <point x="1037.35" y="465.3"/>
      <point x="1052.2" y="465.3" type="curve" smooth="yes"/>
      <point x="1105" y="465.3" type="line" smooth="yes"/>
      <point x="1118.57" y="465.3"/>
      <point x="1124.79" y="457.514"/>
      <point x="1124.79" y="443.3" type="curve" smooth="yes"/>
      <point x="1124.79" y="58.2998" type="line" smooth="yes"/>
      <point x="1124.79" y="39.7568"/>
      <point x="1116.14" y="32.2998"/>
      <point x="1101.79" y="32.2998" type="curve" smooth="yes"/>
      <point x="938.005" y="32.2998" type="line" smooth="yes"/>
      <point x="921.51" y="32.2998"/>
      <point x="914" y="37.8818"/>
      <point x="914" y="57.2959" type="curve" smooth="yes"/>
      <point x="914" y="147.3" type="line"/>
      <point x="877" y="147.3" type="line"/>
      <point x="877" y="47.2998" type="line" smooth="yes"/>
      <point x="877" y="16.6367"/>
      <point x="893.089" y="0.299805"/>
      <point x="917" y="0.299805" type="curve" smooth="yes"/>
      <point x="1114" y="0.299805" type="line" smooth="yes"/>
      <point x="1142.59" y="0.299805"/>
      <point x="1162" y="17.0557"/>
      <point x="1162" y="46.2998" type="curve" smooth="yes"/>
      <point x="1162" y="456.3" type="line" smooth="yes"/>
      <point x="1162" y="478.514"/>
      <point x="1145.73" y="497.3"/>
      <point x="1120" y="497.3" type="curve" smooth="yes"/>
      <point x="1031.81" y="497.3" type="line" smooth="yes"/>
      <point x="1008.83" y="497.3"/>
      <point x="995.211" y="481.721"/>
      <point x="995.211" y="453.3" type="curve" smooth="yes"/>
      <point x="995.211" y="315.481" type="line" smooth="yes"/>
      <point x="995.211" y="298.211"/>
      <point x="987.8" y="296.486"/>
      <point x="973.196" y="296.486" type="curve" smooth="yes"/>
      <point x="934.003" y="296.486" type="line" smooth="yes"/>
      <point x="918.754" y="296.486"/>
      <point x="914" y="298.044"/>
      <point x="914" y="315.483" type="curve" smooth="yes"/>
      <point x="914" y="497.3" type="line"/>
    </contour>
    <component base="si_vocalicL"/>
  </outline>
</glyph>
<glyph name="si_E" format="1">
  <advance width="534"/>
  <unicode hex="0D91"/>
  <outline>
    <contour>
      <point x="187.201" y="631.999" type="line"/>
      <point x="187.201" y="510.601" type="line" smooth="yes"/>
      <point x="187.201" y="490.33"/>
      <point x="193.127" y="488.217"/>
      <point x="213" y="488.217" type="curve" smooth="yes"/>
      <point x="444.804" y="488.217" type="line"/>
      <point x="444.804" y="494.198" type="line" smooth="yes"/>
      <point x="444.804" y="527.531"/>
      <point x="422.433" y="538.495"/>
      <point x="399" y="550.399" type="curve" smooth="yes"/>
      <point x="261.6" y="621.802" type="line" smooth="yes"/>
      <point x="243.896" y="630.918"/>
      <point x="221.226" y="631.929"/>
      <point x="201" y="631.971" type="curve" smooth="yes"/>
    </contour>
    <contour>
      <point x="482" y="494" type="curve" smooth="yes"/>
      <point x="482" y="51" type="line" smooth="yes"/>
      <point x="482" y="19.9502"/>
      <point x="464.854" y="0"/>
      <point x="436" y="0" type="curve" smooth="yes"/>
      <point x="86" y="0" type="line" smooth="yes"/>
      <point x="56.432" y="0"/>
      <point x="38" y="13.2377"/>
      <point x="38" y="44" type="curve" smooth="yes"/>
      <point x="38" y="179.4" type="line" smooth="yes"/>
      <point x="38" y="218.525"/>
      <point x="55.333" y="231.667"/>
      <point x="68" y="239" type="curve"/>
      <point x="4" y="239" type="line"/>
      <point x="4" y="271.195" type="line"/>
      <point x="245" y="271.195" type="line"/>
      <point x="245" y="342" type="line" smooth="yes"/>
      <point x="245" y="367.802"/>
      <point x="232.912" y="374.999"/>
      <point x="213" y="374.999" type="curve" smooth="yes"/>
      <point x="41" y="374.999" type="line"/>
      <point x="41" y="407" type="line"/>
      <point x="222" y="407" type="line" smooth="yes"/>
      <point x="262.938" y="407"/>
      <point x="282" y="384.43"/>
      <point x="282" y="346" type="curve" smooth="yes"/>
      <point x="282" y="239" type="line"/>
      <point x="161" y="239" type="line" smooth="yes"/>
      <point x="97.3271" y="239"/>
      <point x="75.6035" y="215.835"/>
      <point x="75.6035" y="173.4" type="curve" smooth="yes"/>
      <point x="75.6035" y="56.2012" type="line" smooth="yes"/>
      <point x="75.6035" y="40.0146"/>
      <point x="79.3342" y="32"/>
      <point x="100" y="32" type="curve" smooth="yes"/>
      <point x="422.799" y="32" type="line" smooth="yes"/>
      <point x="438.525" y="32"/>
      <point x="444.802" y="40.8086"/>
      <point x="444.802" y="60" type="curve" smooth="yes"/>
      <point x="444.802" y="456.215" type="line"/>
      <point x="196" y="456.215" type="line" smooth="yes"/>
      <point x="162.711" y="456.215"/>
      <point x="150.217" y="467.187"/>
      <point x="150.217" y="503.601" type="curve" smooth="yes"/>
      <point x="150.217" y="631.998" type="line"/>
      <point x="80.2168" y="631.998" type="line"/>
      <point x="80.2168" y="664" type="line"/>
      <point x="202.8" y="664" type="line" smooth="yes"/>
      <point x="233.99" y="664"/>
      <point x="252.478" y="663.334"/>
      <point x="288" y="645" type="curve" smooth="yes"/>
      <point x="288.476" y="644.894"/>
      <point x="412" y="581"/>
      <point x="412" y="581" type="curve" smooth="yes"/>
      <point x="448.407" y="565.041"/>
      <point x="482" y="545.567"/>
    </contour>
  </outline>
</glyph>
<glyph name="si_Ee" format="1">
  <advance width="534"/>
  <unicode hex="0D92"/>
  <outline>
    <contour>
      <point x="444.998" y="708" type="line"/>
      <point x="482" y="708" type="line"/>
      <point x="482" y="480" type="line"/>
      <point x="444.999" y="480" type="line"/>
    </contour>
    <component base="si_E"/>
  </outline>
</glyph>
<glyph name="si_Os" format="1">
  <advance width="515"/>
  <unicode hex="0D94"/>
  <outline>
    <contour>
      <point x="282.187" y="251.604" type="curve" smooth="yes"/>
      <point x="193.789" y="251.604" type="line" smooth="yes"/>
      <point x="172.228" y="251.604"/>
      <point x="158.79" y="259.911"/>
      <point x="158.79" y="281.604" type="curve" smooth="yes"/>
      <point x="158.79" y="413" type="line" smooth="yes"/>
      <point x="158.79" y="421.688"/>
      <point x="154.964" y="426.603"/>
      <point x="146" y="426.603" type="curve" smooth="yes"/>
      <point x="88" y="426.603" type="line" smooth="yes"/>
      <point x="68.8975" y="426.603"/>
      <point x="59" y="415.19"/>
      <point x="59" y="390" type="curve" smooth="yes"/>
      <point x="59" y="62.8047" type="line" smooth="yes"/>
      <point x="59" y="38.8075"/>
      <point x="62.8701" y="32"/>
      <point x="86" y="32" type="curve" smooth="yes"/>
      <point x="182.399" y="32" type="line" smooth="yes"/>
      <point x="206.098" y="32"/>
      <point x="222.401" y="38.9307"/>
      <point x="222.401" y="78" type="curve" smooth="yes"/>
      <point x="222.401" y="176.195" type="line"/>
      <point x="259.398" y="176.195" type="line"/>
      <point x="259.398" y="78.002" type="line" smooth="yes"/>
      <point x="259.398" y="39.5283"/>
      <point x="276.043" y="32"/>
      <point x="301.4" y="32" type="curve" smooth="yes"/>
      <point x="395.398" y="32" type="line" smooth="yes"/>
      <point x="417.689" y="32"/>
      <point x="422.798" y="42.2314"/>
      <point x="422.798" y="62" type="curve" smooth="yes"/>
      <point x="422.798" y="552" type="line" smooth="yes"/>
      <point x="422.798" y="583.043"/>
      <point x="409.479" y="594"/>
      <point x="378.998" y="594" type="curve" smooth="yes"/>
      <point x="22.001" y="594" type="line"/>
      <point x="22.001" y="626" type="line"/>
      <point x="386.998" y="626" type="line" smooth="yes"/>
      <point x="429.307" y="626"/>
      <point x="459.996" y="609.264"/>
      <point x="459.996" y="560" type="curve" smooth="yes"/>
      <point x="459.996" y="50" type="line" smooth="yes"/>
      <point x="459.996" y="19.6377"/>
      <point x="446.395" y="-4.08989e-15"/>
      <point x="412.998" y="0" type="curve" smooth="yes"/>
      <point x="290.202" y="0" type="line" smooth="yes"/>
      <point x="264.211" y="0"/>
      <point x="246.166" y="8.12695"/>
      <point x="241.202" y="28" type="curve"/>
      <point x="236.974" y="9.81934"/>
      <point x="217.472" y="0"/>
      <point x="194.202" y="0" type="curve" smooth="yes"/>
      <point x="69" y="0" type="line" smooth="yes"/>
      <point x="37.6096" y="0"/>
      <point x="22" y="15.0176"/>
      <point x="22" y="48" type="curve" smooth="yes"/>
      <point x="22" y="394" type="line" smooth="yes"/>
      <point x="22" y="432.555"/>
      <point x="40.02" y="459"/>
      <point x="81" y="459" type="curve" smooth="yes"/>
      <point x="154.981" y="459" type="line" smooth="yes"/>
      <point x="180.974" y="459"/>
      <point x="195.982" y="449.979"/>
      <point x="195.982" y="424" type="curve" smooth="yes"/>
      <point x="195.982" y="300.604" type="line" smooth="yes"/>
      <point x="195.982" y="289.228"/>
      <point x="200.09" y="283.802"/>
      <point x="209.982" y="283.802" type="curve" smooth="yes"/>
      <point x="269.189" y="283.802" type="line" smooth="yes"/>
      <point x="279.572" y="283.802"/>
      <point x="283.992" y="288.792"/>
      <point x="283.992" y="300.604" type="curve" smooth="yes"/>
      <point x="283.992" y="459" type="line"/>
      <point x="321.187" y="459" type="line"/>
      <point x="321.187" y="286.604" type="line" smooth="yes"/>
      <point x="321.187" y="263.271"/>
      <point x="308.187" y="251.604"/>
    </contour>
  </outline>
</glyph>
<glyph name="si_Nnga" format="1">
  <advance width="759"/>
  <unicode hex="0D9F"/>
  <outline>
    <contour>
      <point x="344.021" y="497" type="line"/>
      <point x="344.021" y="465" type="line"/>
      <point x="269.614" y="465" type="line" smooth="yes"/>
      <point x="233.556" y="465"/>
      <point x="217.027" y="445.488"/>
      <point x="217.027" y="403" type="curve" smooth="yes"/>
      <point x="217.023" y="59.8008" type="line" smooth="yes"/>
      <point x="217.023" y="40.5879"/>
      <point x="220.94" y="32"/>
      <point x="240.023" y="32" type="curve" smooth="yes"/>
      <point x="405.021" y="32" type="line" smooth="yes"/>
      <point x="432.155" y="32"/>
      <point x="441.606" y="37.6572"/>
      <point x="441.606" y="64" type="curve" smooth="yes"/>
      <point x="441.606" y="231.996" type="line" smooth="yes"/>
      <point x="441.606" y="245.996"/>
      <point x="437.167" y="252.996"/>
      <point x="423.021" y="252.996" type="curve" smooth="yes"/>
      <point x="376.606" y="252.996" type="line"/>
      <point x="410.606" y="446" type="line" smooth="yes"/>
      <point x="416.606" y="480"/>
      <point x="440.606" y="497"/>
      <point x="482.606" y="497" type="curve" smooth="yes"/>
      <point x="629" y="497" type="line" smooth="yes"/>
      <point x="675.224" y="497"/>
      <point x="696" y="479.952"/>
      <point x="696" y="434" type="curve" smooth="yes"/>
      <point x="696" y="63" type="line" smooth="yes"/>
      <point x="696" y="12.3447"/>
      <point x="672.455" y="0"/>
      <point x="633" y="0" type="curve" smooth="yes"/>
      <point x="544.008" y="0" type="line"/>
      <point x="544.008" y="32" type="line"/>
      <point x="624.023" y="32" type="line" smooth="yes"/>
      <point x="652.105" y="32"/>
      <point x="659" y="40.2383"/>
      <point x="659" y="72" type="curve" smooth="yes"/>
      <point x="659" y="426" type="line" smooth="yes"/>
      <point x="659" y="454.593"/>
      <point x="649.938" y="465"/>
      <point x="620.023" y="465" type="curve" smooth="yes"/>
      <point x="487.021" y="465" type="line" smooth="yes"/>
      <point x="458.515" y="465"/>
      <point x="448.503" y="454.047"/>
      <point x="445.021" y="435" type="curve" smooth="yes"/>
      <point x="417.599" y="285" type="line"/>
      <point x="441.606" y="285" type="line" smooth="yes"/>
      <point x="466.273" y="285"/>
      <point x="478.606" y="270.667"/>
      <point x="478.606" y="242" type="curve" smooth="yes"/>
      <point x="478.606" y="60" type="line" smooth="yes"/>
      <point x="478.606" y="12.6074"/>
      <point x="459.206" y="0"/>
      <point x="411.606" y="0" type="curve" smooth="yes"/>
      <point x="228.023" y="0" type="line" smooth="yes"/>
      <point x="191.385" y="0"/>
      <point x="180.023" y="19.0518"/>
      <point x="180.023" y="56" type="curve" smooth="yes"/>
      <point x="180.023" y="413" type="line" smooth="yes"/>
      <point x="180.023" y="475.434"/>
      <point x="228.947" y="497"/>
      <point x="265.614" y="497" type="curve" smooth="yes"/>
    </contour>
    <contour>
      <point x="116.602" y="465" type="line" smooth="yes"/>
      <point x="76.8906" y="465"/>
      <point x="59" y="452.74"/>
      <point x="59" y="412" type="curve" smooth="yes"/>
      <point x="59" y="0" type="line"/>
      <point x="22" y="0" type="line"/>
      <point x="22" y="424" type="line" smooth="yes"/>
      <point x="22" y="476.166"/>
      <point x="58.8513" y="497"/>
      <point x="105.4" y="497" type="curve" smooth="yes"/>
      <point x="281.614" y="497" type="line"/>
      <point x="211.614" y="465" type="line"/>
    </contour>
  </outline>
</glyph>
<glyph name="si_Cha" format="1">
  <advance width="513"/>
  <unicode hex="0DA1"/>
  <outline>
    <contour>
      <point x="246.799" y="430" type="curve" smooth="yes"/>
      <point x="246.999" y="294" type="line" smooth="yes"/>
      <point x="247.024" y="277.204"/>
      <point x="250.346" y="270.597"/>
      <point x="265" y="270.597" type="curve" smooth="yes"/>
      <point x="380" y="270.597" type="line" smooth="yes"/>
      <point x="414.363" y="270.597"/>
      <point x="424" y="300"/>
      <point x="424.002" y="328.601" type="curve" smooth="yes"/>
      <point x="423.802" y="433" type="line" smooth="yes"/>
      <point x="423.757" y="455.962"/>
      <point x="414.221" y="465"/>
      <point x="397" y="465" type="curve" smooth="yes"/>
      <point x="280" y="465" type="line" smooth="yes"/>
      <point x="263.13" y="465"/>
      <point x="247" y="448"/>
    </contour>
    <contour>
      <point x="301.596" y="486" type="curve"/>
      <point x="243.8" y="486" type="line"/>
      <point x="257.785" y="496.162"/>
      <point x="278.5" y="498.47"/>
      <point x="312" y="525" type="curve" smooth="yes"/>
      <point x="459.198" y="643" type="line"/>
      <point x="508" y="643" type="line"/>
      <point x="356.596" y="518" type="line" smooth="yes"/>
      <point x="332.991" y="497.928"/>
      <point x="325.433" y="496.747"/>
    </contour>
    <contour>
      <point x="83" y="32" type="curve" smooth="yes"/>
      <point x="400" y="32" type="line" smooth="yes"/>
      <point x="419.579" y="32"/>
      <point x="423.805" y="42.7393"/>
      <point x="423.805" y="62" type="curve" smooth="yes"/>
      <point x="423.805" y="190" type="line" smooth="yes"/>
      <point x="423.805" y="226.343"/>
      <point x="404.114" y="237.811"/>
      <point x="379" y="237.811" type="curve" smooth="yes"/>
      <point x="255" y="237.811" type="line" smooth="yes"/>
      <point x="224.35" y="237.811"/>
      <point x="211.004" y="250.636"/>
      <point x="211.004" y="282" type="curve" smooth="yes"/>
      <point x="211.003" y="414.996" type="line" smooth="yes"/>
      <point x="211.003" y="462.324"/>
      <point x="240.809" y="497"/>
      <point x="276" y="497" type="curve" smooth="yes"/>
      <point x="406" y="497" type="line" smooth="yes"/>
      <point x="441.204" y="497"/>
      <point x="460.998" y="476.309"/>
      <point x="461" y="436" type="curve" smooth="yes"/>
      <point x="461.004" y="332.2" type="line" smooth="yes"/>
      <point x="461" y="301"/>
      <point x="457.1" y="274.542"/>
      <point x="430" y="256.99" type="curve"/>
      <point x="455.011" y="241.293"/>
      <point x="461" y="219.553"/>
      <point x="461" y="181" type="curve" smooth="yes"/>
      <point x="461" y="54" type="line" smooth="yes"/>
      <point x="461" y="16.2803"/>
      <point x="448.072" y="0"/>
      <point x="411" y="0" type="curve" smooth="yes"/>
      <point x="72" y="0" type="line" smooth="yes"/>
      <point x="34.9249" y="0"/>
      <point x="22" y="16.2703"/>
      <point x="22" y="54" type="curve" smooth="yes"/>
      <point x="22" y="300" type="line" smooth="yes"/>
      <point x="22" y="337.333"/>
      <point x="40.6909" y="354.999"/>
      <point x="78" y="354.999" type="curve" smooth="yes"/>
      <point x="210.604" y="355" type="line"/>
      <point x="210.604" y="437" type="line" smooth="yes"/>
      <point x="210.604" y="456.819"/>
      <point x="197.731" y="465"/>
      <point x="175.6" y="465" type="curve" smooth="yes"/>
      <point x="23" y="465" type="line"/>
      <point x="23" y="497" type="line"/>
      <point x="182.793" y="497" type="line" smooth="yes"/>
      <point x="221.449" y="497"/>
      <point x="246.399" y="479.785"/>
      <point x="246.399" y="438" type="curve" smooth="yes"/>
      <point x="246.6" y="322.804" type="line"/>
      <point x="86" y="322.804" type="line" smooth="yes"/>
      <point x="64.9316" y="322.804"/>
      <point x="59" y="311.913"/>
      <point x="59" y="296" type="curve" smooth="yes"/>
      <point x="59" y="64" type="line" smooth="yes"/>
      <point x="59" y="41.9741"/>
      <point x="62.1104" y="32"/>
    </contour>
  </outline>
</glyph>
<glyph name="si_Nna" format="1">
  <advance width="845"/>
  <unicode hex="0DAB"/>
  <outline>
    <contour>
      <point x="376.193" y="497" type="line" smooth="yes"/>
      <point x="402.617" y="497"/>
      <point x="417.107" y="482.651"/>
      <point x="425.438" y="467.001" type="curve"/>
      <point x="435.99" y="488.558"/>
      <point x="450.918" y="497"/>
      <point x="479.193" y="497" type="curve" smooth="yes"/>
      <point x="550.801" y="497" type="line" smooth="yes"/>
      <point x="583.963" y="497"/>
      <point x="594.844" y="479.573"/>
      <point x="599.35" y="464.001" type="curve"/>
      <point x="606.785" y="481.655"/>
      <point x="619.832" y="497"/>
      <point x="656.801" y="497" type="curve" smooth="yes"/>
      <point x="734" y="497" type="line" smooth="yes"/>
      <point x="776.148" y="497"/>
      <point x="795" y="478.25"/>
      <point x="795" y="439" type="curve" smooth="yes"/>
      <point x="795" y="64.8008" type="line" smooth="yes"/>
      <point x="795" y="25.5693"/>
      <point x="778.68" y="0"/>
      <point x="722" y="0" type="curve" smooth="yes"/>
      <point x="483.946" y="0.000976562" type="line"/>
      <point x="483.946" y="32" type="line"/>
      <point x="733.349" y="32" type="line" smooth="yes"/>
      <point x="755.356" y="32"/>
      <point x="758.007" y="42.3457"/>
      <point x="758.007" y="60" type="curve" smooth="yes"/>
      <point x="758.007" y="422" type="line" smooth="yes"/>
      <point x="758.007" y="449.611"/>
      <point x="753.284" y="465"/>
      <point x="726" y="465" type="curve" smooth="yes"/>
      <point x="659.801" y="465" type="line" smooth="yes"/>
      <point x="638.872" y="465"/>
      <point x="618" y="441.019"/>
      <point x="618" y="404" type="curve" smooth="yes"/>
      <point x="618" y="181.001" type="line"/>
      <point x="579.604" y="181.001" type="line"/>
      <point x="579.604" y="404" type="line" smooth="yes"/>
      <point x="579.604" y="441.504"/>
      <point x="568.624" y="465"/>
      <point x="541.801" y="465" type="curve" smooth="yes"/>
      <point x="484" y="465" type="line" smooth="yes"/>
      <point x="458.853" y="465"/>
      <point x="443.27" y="440.007"/>
      <point x="443.27" y="410" type="curve" smooth="yes"/>
      <point x="443.27" y="75" type="line" smooth="yes"/>
      <point x="443.27" y="28.7611"/>
      <point x="424.11" y="-6.52866e-15"/>
      <point x="370.8" y="0" type="curve" smooth="yes"/>
      <point x="127" y="0" type="line" smooth="yes"/>
      <point x="92.9873" y="0"/>
      <point x="89.998" y="36.4404"/>
      <point x="89.9971" y="82" type="curve" smooth="yes"/>
      <point x="89.9961" y="118.152"/>
      <point x="76.7773" y="117.951"/>
      <point x="68" y="118" type="curve"/>
      <point x="22" y="65" type="line"/>
      <point x="22" y="113.202" type="line"/>
      <point x="405" y="616.001" type="line"/>
      <point x="449" y="616.001" type="line"/>
      <point x="94" y="148" type="line"/>
      <point x="107.515" y="146.743"/>
      <point x="123.789" y="135.525"/>
      <point x="123.798" y="95" type="curve" smooth="yes"/>
      <point x="123.807" y="54.2959"/>
      <point x="124.298" y="32"/>
      <point x="151" y="32" type="curve" smooth="yes"/>
      <point x="367" y="32" type="line" smooth="yes"/>
      <point x="392.48" y="32"/>
      <point x="406.005" y="45.4403"/>
      <point x="406.005" y="80" type="curve" smooth="yes"/>
      <point x="406.005" y="410" type="line" smooth="yes"/>
      <point x="406.005" y="426.791"/>
      <point x="395.611" y="465"/>
      <point x="360" y="465" type="curve" smooth="yes"/>
      <point x="128.418" y="465" type="line" smooth="yes"/>
      <point x="105.348" y="465"/>
      <point x="96.5273" y="453.292"/>
      <point x="96.5391" y="434.6" type="curve" smooth="yes"/>
      <point x="96.624" y="296" type="line" smooth="yes"/>
      <point x="96.6436" y="264.486"/>
      <point x="100.967" y="242.198"/>
      <point x="131.418" y="242.198" type="curve" smooth="yes"/>
      <point x="278.898" y="242.198" type="line"/>
      <point x="278.898" y="210" type="line"/>
      <point x="117.418" y="210" type="line" smooth="yes"/>
      <point x="85.2646" y="210"/>
      <point x="59.1758" y="237.88"/>
      <point x="59.1758" y="284.999" type="curve" smooth="yes"/>
      <point x="59.1758" y="443" type="line" smooth="yes"/>
      <point x="59.1758" y="483.908"/>
      <point x="88.418" y="497"/>
      <point x="119.618" y="497" type="curve" smooth="yes"/>
    </contour>
  </outline>
</glyph>
<glyph name="si_Tha" format="1">
  <advance width="512"/>
  <unicode hex="0DAE"/>
  <outline>
    <contour>
      <point x="262.432" y="594" type="line"/>
      <point x="262.432" y="482.198" type="line" smooth="yes"/>
      <point x="262.432" y="460.842"/>
      <point x="268.491" y="459.402"/>
      <point x="285.001" y="459.402" type="curve" smooth="yes"/>
      <point x="424.004" y="459.402" type="line"/>
      <point x="424.005" y="558" type="line" smooth="yes"/>
      <point x="424.005" y="582.926"/>
      <point x="418.46" y="594"/>
      <point x="387.003" y="594" type="curve" smooth="yes"/>
    </contour>
    <contour>
      <point x="461.001" y="394" type="line"/>
      <point x="424.002" y="394" type="line"/>
      <point x="424.002" y="427.015" type="line"/>
      <point x="270.998" y="427.015" type="line" smooth="yes"/>
      <point x="237.706" y="427.015"/>
      <point x="225.215" y="437.986"/>
      <point x="225.215" y="474.4" type="curve" smooth="yes"/>
      <point x="225.215" y="595" type="line"/>
      <point x="159.598" y="595" type="line"/>
      <point x="159.598" y="626" type="line"/>
      <point x="395" y="626" type="line" smooth="yes"/>
      <point x="442.56" y="626"/>
      <point x="461.001" y="610.567"/>
      <point x="461.001" y="559" type="curve" smooth="yes"/>
    </contour>
    <contour>
      <point x="197" y="362" type="line"/>
      <point x="87" y="362" type="line" smooth="yes"/>
      <point x="71.167" y="362"/>
      <point x="59" y="355.976"/>
      <point x="59" y="334" type="curve" smooth="yes"/>
      <point x="59" y="58" type="line" smooth="yes"/>
      <point x="59" y="43.333"/>
      <point x="60.958" y="32"/>
      <point x="78" y="32" type="curve" smooth="yes"/>
      <point x="401.801" y="32" type="line" smooth="yes"/>
      <point x="417.449" y="32"/>
      <point x="424.001" y="40.7402"/>
      <point x="424.001" y="61" type="curve" smooth="yes"/>
      <point x="424.001" y="415" type="line"/>
      <point x="461.001" y="415" type="line"/>
      <point x="461.001" y="54" type="line" smooth="yes"/>
      <point x="461.001" y="16.2705"/>
      <point x="446.076" y="0"/>
      <point x="409.001" y="0" type="curve" smooth="yes"/>
      <point x="72" y="0" type="line" smooth="yes"/>
      <point x="34.9277" y="0"/>
      <point x="22" y="16.273"/>
      <point x="22" y="54" type="curve" smooth="yes"/>
      <point x="22" y="339" type="line" smooth="yes"/>
      <point x="22" y="375.667"/>
      <point x="40.667" y="394"/>
      <point x="78" y="394" type="curve" smooth="yes"/>
      <point x="197" y="394" type="line"/>
    </contour>
  </outline>
</glyph>
<glyph name="si_Dha" format="1">
  <advance width="515"/>
  <unicode hex="0DB0"/>
  <outline>
    <contour>
      <point x="247.187" y="464.8" type="line"/>
      <point x="93" y="464.8" type="line" smooth="yes"/>
      <point x="66.3867" y="464.8"/>
      <point x="59" y="450.436"/>
      <point x="59" y="428.998" type="curve" smooth="yes"/>
      <point x="59" y="58" type="line" smooth="yes"/>
      <point x="59" y="42.2284"/>
      <point x="62.9558" y="32"/>
      <point x="82" y="32" type="curve" smooth="yes"/>
      <point x="175.988" y="32" type="line" smooth="yes"/>
      <point x="215.117" y="32"/>
      <point x="221.988" y="65.5156"/>
      <point x="221.988" y="100.802" type="curve" smooth="yes"/>
      <point x="221.988" y="244.796" type="line"/>
      <point x="259.188" y="244.796" type="line"/>
      <point x="259.188" y="101" type="line" smooth="yes"/>
      <point x="259.188" y="66.1592"/>
      <point x="268.267" y="32"/>
      <point x="309.988" y="32" type="curve" smooth="yes"/>
      <point x="401.977" y="32" type="line" smooth="yes"/>
      <point x="418.903" y="32"/>
      <point x="423.582" y="43.6895"/>
      <point x="423.582" y="60" type="curve" smooth="yes"/>
      <point x="423.582" y="554" type="line" smooth="yes"/>
      <point x="423.582" y="587.453"/>
      <point x="408.387" y="594.6"/>
      <point x="379.977" y="594.6" type="curve" smooth="yes"/>
      <point x="22.001" y="594.6" type="line"/>
      <point x="22.001" y="626" type="line"/>
      <point x="387.977" y="626" type="line" smooth="yes"/>
      <point x="430.285" y="626"/>
      <point x="460.975" y="609.264"/>
      <point x="460.975" y="560" type="curve" smooth="yes"/>
      <point x="460.975" y="50" type="line" smooth="yes"/>
      <point x="460.975" y="19.6377"/>
      <point x="447.373" y="0"/>
      <point x="413.977" y="0" type="curve" smooth="yes"/>
      <point x="289.791" y="0" type="line" smooth="yes"/>
      <point x="263.791" y="0"/>
      <point x="247.457" y="12.333"/>
      <point x="240.791" y="37" type="curve"/>
      <point x="237.617" y="16.3779"/>
      <point x="217.061" y="0"/>
      <point x="193.791" y="0" type="curve" smooth="yes"/>
      <point x="69" y="0" type="line" smooth="yes"/>
      <point x="37.6096" y="0"/>
      <point x="22" y="15.0176"/>
      <point x="22" y="48" type="curve" smooth="yes"/>
      <point x="22" y="431.998" type="line" smooth="yes"/>
      <point x="22" y="470.553"/>
      <point x="40.0205" y="496.998"/>
      <point x="81" y="496.998" type="curve" smooth="yes"/>
      <point x="247.186" y="496.998" type="line"/>
    </contour>
  </outline>
</glyph>
<glyph name="si_Pha" format="1">
  <advance width="514"/>
  <unicode hex="0DB5"/>
  <outline>
    <contour>
      <point x="262.432" y="594" type="line"/>
      <point x="262.432" y="482.198" type="line" smooth="yes"/>
      <point x="262.432" y="460.842"/>
      <point x="268.491" y="459.402"/>
      <point x="285.001" y="459.402" type="curve" smooth="yes"/>
      <point x="424.004" y="459.402" type="line"/>
      <point x="424.005" y="558" type="line" smooth="yes"/>
      <point x="424.005" y="582.926"/>
      <point x="418.46" y="594"/>
      <point x="387.003" y="594" type="curve" smooth="yes"/>
    </contour>
    <contour>
      <point x="461.001" y="394" type="line"/>
      <point x="424.002" y="394" type="line"/>
      <point x="424.002" y="427.015" type="line"/>
      <point x="270.998" y="427.015" type="line" smooth="yes"/>
      <point x="237.706" y="427.015"/>
      <point x="225.215" y="437.986"/>
      <point x="225.215" y="474.4" type="curve" smooth="yes"/>
      <point x="225.215" y="595" type="line"/>
      <point x="159.598" y="595" type="line"/>
      <point x="159.598" y="626" type="line"/>
      <point x="395" y="626" type="line" smooth="yes"/>
      <point x="442.56" y="626"/>
      <point x="461.001" y="610.567"/>
      <point x="461.001" y="559" type="curve" smooth="yes"/>
    </contour>
    <contour>
      <point x="461.001" y="415" type="line"/>
      <point x="461.001" y="54" type="line" smooth="yes"/>
      <point x="461.001" y="16.2705"/>
      <point x="446.076" y="0"/>
      <point x="409.001" y="0" type="curve" smooth="yes"/>
      <point x="72" y="0" type="line" smooth="yes"/>
      <point x="34.9277" y="0"/>
      <point x="22" y="16.273"/>
      <point x="22" y="54" type="curve" smooth="yes"/>
      <point x="22" y="238" type="line" smooth="yes"/>
      <point x="22" y="274.667"/>
      <point x="40.6667" y="293"/>
      <point x="78" y="293" type="curve" smooth="yes"/>
      <point x="203.094" y="293" type="line"/>
      <point x="203.094" y="360" type="line" smooth="yes"/>
      <point x="203.094" y="377.569"/>
      <point x="188.667" y="380"/>
      <point x="178" y="380" type="curve" smooth="yes"/>
      <point x="21.999" y="380" type="line"/>
      <point x="21.999" y="412" type="line"/>
      <point x="189" y="412" type="line" smooth="yes"/>
      <point x="224.222" y="412"/>
      <point x="239.994" y="396.405"/>
      <point x="239.996" y="360" type="curve" smooth="yes"/>
      <point x="240" y="261" type="line"/>
      <point x="87" y="261" type="line" smooth="yes"/>
      <point x="71.1674" y="261"/>
      <point x="59" y="254.976"/>
      <point x="59" y="233" type="curve" smooth="yes"/>
      <point x="59" y="58" type="line" smooth="yes"/>
      <point x="59" y="43.333"/>
      <point x="60.958" y="32"/>
      <point x="78" y="32" type="curve" smooth="yes"/>
      <point x="401.801" y="32" type="line" smooth="yes"/>
      <point x="417.449" y="32"/>
      <point x="424.001" y="40.7402"/>
      <point x="424.001" y="61" type="curve" smooth="yes"/>
      <point x="424.001" y="415" type="line"/>
    </contour>
  </outline>
</glyph>
<glyph name="si_Ba" format="1">
  <advance width="515"/>
  <unicode hex="0DB6"/>
  <outline>
    <contour>
      <point x="384" y="625" type="line" smooth="yes"/>
      <point x="435.559" y="625"/>
      <point x="460" y="601.678"/>
      <point x="460" y="548" type="curve" smooth="yes"/>
      <point x="460" y="400" type="line"/>
      <point x="423" y="400" type="line"/>
      <point x="423" y="541" type="line" smooth="yes"/>
      <point x="423" y="579.354"/>
      <point x="413.56" y="593"/>
      <point x="375.598" y="593" type="curve" smooth="yes"/>
      <point x="22" y="593" type="line"/>
      <point x="22" y="625" type="line"/>
    </contour>
    <contour>
      <point x="215.002" y="54" type="curve" smooth="yes"/>
      <point x="214.002" y="409" type="line" smooth="yes"/>
      <point x="213.945" y="429.123"/>
      <point x="206.548" y="438"/>
      <point x="188" y="438" type="curve" smooth="yes"/>
      <point x="85" y="438" type="line" smooth="yes"/>
      <point x="64.3494" y="438"/>
      <point x="59" y="428.125"/>
      <point x="59" y="408.8" type="curve" smooth="yes"/>
      <point x="59" y="60" type="line" smooth="yes"/>
      <point x="59" y="37.8393"/>
      <point x="64.4794" y="32"/>
      <point x="82" y="32" type="curve" smooth="yes"/>
      <point x="172" y="32" type="line"/>
      <point x="172" y="0" type="line"/>
      <point x="72" y="0" type="line" smooth="yes"/>
      <point x="34.9277" y="0"/>
      <point x="22" y="16.273"/>
      <point x="22" y="54" type="curve" smooth="yes"/>
      <point x="22" y="415.016" type="line" smooth="yes"/>
      <point x="22" y="451.683"/>
      <point x="40.667" y="470.016"/>
      <point x="78" y="470.016" type="curve" smooth="yes"/>
      <point x="196.603" y="470.016" type="line" smooth="yes"/>
      <point x="228.73" y="470.016"/>
      <point x="251.603" y="455.803"/>
      <point x="251.603" y="416.414" type="curve" smooth="yes"/>
      <point x="251.603" y="62" type="line" smooth="yes"/>
      <point x="251.603" y="41.9086"/>
      <point x="255.225" y="32"/>
      <point x="277" y="32" type="curve" smooth="yes"/>
      <point x="402" y="32" type="line" smooth="yes"/>
      <point x="418.514" y="32"/>
      <point x="423.004" y="39.3471"/>
      <point x="423.004" y="58" type="curve" smooth="yes"/>
      <point x="423.004" y="415" type="line"/>
      <point x="460.001" y="415" type="line"/>
      <point x="460.001" y="54" type="line" smooth="yes"/>
      <point x="460.001" y="16.2705"/>
      <point x="447.076" y="-4.5404e-15"/>
      <point x="410.001" y="0" type="curve" smooth="yes"/>
      <point x="267.002" y="0" type="line" smooth="yes"/>
      <point x="230.255" y="0"/>
      <point x="215.107" y="16.7317"/>
    </contour>
  </outline>
</glyph>
<glyph name="si_Bha" format="1">
  <advance width="592"/>
  <unicode hex="0DB7"/>
  <outline>
    <contour>
      <point x="22" y="51" type="curve" smooth="yes"/>
      <point x="22" y="281.999" type="line" smooth="yes"/>
      <point x="22" y="303"/>
      <point x="29.667" y="315.864"/>
      <point x="45" y="323.197" type="curve"/>
      <point x="61.2197" y="345.5"/>
      <point x="41.0609" y="354.999"/>
      <point x="78" y="354.999" type="curve" smooth="yes"/>
      <point x="154.998" y="355" type="line"/>
      <point x="154.998" y="427" type="line" smooth="yes"/>
      <point x="154.998" y="453.308"/>
      <point x="138.406" y="465"/>
      <point x="113" y="465" type="curve" smooth="yes"/>
      <point x="22" y="464.999" type="line"/>
      <point x="22" y="497" type="line"/>
      <point x="120" y="497" type="line" smooth="yes"/>
      <point x="163.332" y="497"/>
      <point x="192.001" y="474.112"/>
      <point x="192.001" y="431" type="curve" smooth="yes"/>
      <point x="192" y="323.005" type="line"/>
      <point x="103" y="323.005" type="line" smooth="yes"/>
      <point x="71.2823" y="323.005"/>
      <point x="59" y="302.096"/>
      <point x="59" y="273" type="curve" smooth="yes"/>
      <point x="59" y="58" type="line" smooth="yes"/>
      <point x="59" y="41.6559"/>
      <point x="62.6816" y="32"/>
      <point x="78" y="32" type="curve" smooth="yes"/>
      <point x="272" y="32" type="line" smooth="yes"/>
      <point x="293.421" y="32"/>
      <point x="304.008" y="37.6127"/>
      <point x="304.008" y="63" type="curve" smooth="yes"/>
      <point x="304.008" y="233" type="line" smooth="yes"/>
      <point x="304.008" y="251.998"/>
      <point x="296" y="255.996"/>
      <point x="286" y="255.996" type="curve" smooth="yes"/>
      <point x="217.802" y="255.996" type="line"/>
      <point x="256.802" y="446" type="line" smooth="yes"/>
      <point x="263.649" y="479.36"/>
      <point x="284.802" y="497"/>
      <point x="326.802" y="497" type="curve" smooth="yes"/>
      <point x="475" y="497" type="line" smooth="yes"/>
      <point x="521.224" y="497"/>
      <point x="542" y="479.952"/>
      <point x="542" y="434" type="curve" smooth="yes"/>
      <point x="542" y="64" type="line" smooth="yes"/>
      <point x="542" y="15.29"/>
      <point x="528.134" y="-6.01715e-15"/>
      <point x="479" y="0" type="curve" smooth="yes"/>
      <point x="381" y="0" type="line"/>
      <point x="381" y="32" type="line"/>
      <point x="472" y="32" type="line" smooth="yes"/>
      <point x="496.706" y="32"/>
      <point x="505.206" y="40.2802"/>
      <point x="505.206" y="71" type="curve" smooth="yes"/>
      <point x="505.206" y="432" type="line" smooth="yes"/>
      <point x="505.206" y="456.6"/>
      <point x="495.5" y="464.999"/>
      <point x="471" y="465" type="curve" smooth="yes"/>
      <point x="335" y="465.003" type="line" smooth="yes"/>
      <point x="313.8" y="465"/>
      <point x="296.224" y="452.834"/>
      <point x="292" y="432" type="curve" smooth="yes"/>
      <point x="262.802" y="288" type="line"/>
      <point x="300" y="287.928" type="line" smooth="yes"/>
      <point x="318.39" y="287.892"/>
      <point x="340.802" y="280.241"/>
      <point x="340.802" y="247" type="curve" smooth="yes"/>
      <point x="340.802" y="60" type="line" smooth="yes"/>
      <point x="340.802" y="12.6074"/>
      <point x="321.401" y="0"/>
      <point x="273.802" y="0" type="curve" smooth="yes"/>
      <point x="70" y="0" type="line" smooth="yes"/>
      <point x="33.3613" y="0"/>
      <point x="22" y="14"/>
    </contour>
    <contour>
      <point x="-6" y="354.995" type="line"/>
      <point x="88" y="354.995" type="line"/>
      <point x="88" y="322.995" type="line"/>
      <point x="-6" y="322.995" type="line"/>
    </contour>
  </outline>
</glyph>
<glyph name="si_Ma" format="1">
  <advance width="515"/>
  <unicode hex="0DB8"/>
  <outline>
    <contour>
      <point x="384" y="625" type="line" smooth="yes"/>
      <point x="435.559" y="625"/>
      <point x="460" y="601.678"/>
      <point x="460" y="548" type="curve" smooth="yes"/>
      <point x="460" y="400" type="line"/>
      <point x="423" y="400" type="line"/>
      <point x="423" y="541" type="line" smooth="yes"/>
      <point x="423" y="579.354"/>
      <point x="413.56" y="593"/>
      <point x="375.598" y="593" type="curve" smooth="yes"/>
      <point x="22" y="593" type="line"/>
      <point x="22" y="625" type="line"/>
    </contour>
    <contour>
      <point x="47" y="204.396" type="line"/>
      <point x="242" y="204.398" type="line" smooth="yes"/>
      <point x="262.41" y="204.399"/>
      <point x="262.798" y="219.962"/>
      <point x="262.798" y="231.4" type="curve" smooth="yes"/>
      <point x="262.796" y="411" type="line" smooth="yes"/>
      <point x="262.796" y="432.653"/>
      <point x="250.407" y="436.999"/>
      <point x="235" y="436.999" type="curve" smooth="yes"/>
      <point x="87.4014" y="436.999" type="line" smooth="yes"/>
      <point x="65.3516" y="436.999"/>
      <point x="59" y="424.443"/>
      <point x="59" y="407.398" type="curve" smooth="yes"/>
      <point x="59.001" y="63" type="line" smooth="yes"/>
      <point x="59.001" y="40.8383"/>
      <point x="67.6473" y="32"/>
      <point x="83" y="32" type="curve" smooth="yes"/>
      <point x="395" y="32" type="line" smooth="yes"/>
      <point x="414.254" y="32"/>
      <point x="423.001" y="41.8814"/>
      <point x="423.001" y="65" type="curve" smooth="yes"/>
      <point x="423.001" y="415" type="line"/>
      <point x="460" y="415" type="line"/>
      <point x="460" y="59" type="line" smooth="yes"/>
      <point x="460" y="21.2705"/>
      <point x="441.075" y="0"/>
      <point x="404" y="0" type="curve" smooth="yes"/>
      <point x="75" y="0" type="line" smooth="yes"/>
      <point x="37.9287" y="0"/>
      <point x="22" y="19.2734"/>
      <point x="22" y="57" type="curve" smooth="yes"/>
      <point x="22" y="412" type="line" smooth="yes"/>
      <point x="22" y="448.667"/>
      <point x="45.6709" y="470.001"/>
      <point x="83" y="470.001" type="curve" smooth="yes"/>
      <point x="240.999" y="470.001" type="line" smooth="yes"/>
      <point x="277.256" y="470.001"/>
      <point x="299.999" y="456.322"/>
      <point x="299.999" y="419" type="curve" smooth="yes"/>
      <point x="300" y="228.204" type="line" smooth="yes"/>
      <point x="300" y="189.187"/>
      <point x="285.854" y="170.602"/>
      <point x="247.999" y="170.602" type="curve" smooth="yes"/>
      <point x="47.001" y="170.601" type="line"/>
    </contour>
  </outline>
</glyph>
<glyph name="si_Ya" format="1">
  <advance width="565"/>
  <unicode hex="0DBA"/>
  <outline>
    <contour>
      <point x="212.946" y="497" type="line"/>
      <point x="212.946" y="465" type="line"/>
      <point x="84" y="465" type="line" smooth="yes"/>
      <point x="65.569" y="465"/>
      <point x="59.0002" y="452.111"/>
      <point x="59" y="433" type="curve" smooth="yes"/>
      <point x="58.9961" y="54.999" type="line" smooth="yes"/>
      <point x="58.9959" y="39"/>
      <point x="65.5215" y="32"/>
      <point x="78.4941" y="32" type="curve" smooth="yes"/>
      <point x="200.8" y="32" type="line" smooth="yes"/>
      <point x="235.876" y="32"/>
      <point x="248.313" y="62.4385"/>
      <point x="248.313" y="93" type="curve" smooth="yes"/>
      <point x="248.313" y="165" type="line"/>
      <point x="285.286" y="165" type="line"/>
      <point x="285.286" y="93" type="line" smooth="yes"/>
      <point x="285.286" y="62.4385"/>
      <point x="297.731" y="32"/>
      <point x="332.8" y="32" type="curve" smooth="yes"/>
      <point x="453.506" y="32" type="line" smooth="yes"/>
      <point x="466.499" y="32"/>
      <point x="473" y="39.9639"/>
      <point x="473" y="55.8926" type="curve" smooth="yes"/>
      <point x="473" y="300.207" type="line" smooth="yes"/>
      <point x="473" y="313.324"/>
      <point x="463.408" y="321"/>
      <point x="450.008" y="321" type="curve" smooth="yes"/>
      <point x="268" y="321" type="line"/>
      <point x="268" y="440" type="line" smooth="yes"/>
      <point x="268" y="478"/>
      <point x="288.673" y="497"/>
      <point x="330" y="497" type="curve" smooth="yes"/>
      <point x="509" y="497" type="line"/>
      <point x="509" y="465" type="line"/>
      <point x="341.001" y="465" type="line" smooth="yes"/>
      <point x="317.739" y="465"/>
      <point x="305.001" y="457.98"/>
      <point x="305.001" y="435" type="curve" smooth="yes"/>
      <point x="305.001" y="353" type="line"/>
      <point x="454" y="353" type="line" smooth="yes"/>
      <point x="491.333" y="353"/>
      <point x="510" y="334.667"/>
      <point x="510" y="298" type="curve" smooth="yes"/>
      <point x="510" y="54" type="line" smooth="yes"/>
      <point x="510" y="16.2705"/>
      <point x="497.074" y="-0"/>
      <point x="460" y="-0" type="curve" smooth="yes"/>
      <point x="318.8" y="-0" type="line" smooth="yes"/>
      <point x="300.773" y="-0"/>
      <point x="275.469" y="10.9941"/>
      <point x="266.8" y="34.7246" type="curve"/>
      <point x="258.131" y="10.9941"/>
      <point x="232.829" y="-0"/>
      <point x="214.8" y="-0" type="curve" smooth="yes"/>
      <point x="72" y="-0" type="line" smooth="yes"/>
      <point x="34.9717" y="-0"/>
      <point x="22" y="16.2002"/>
      <point x="22" y="54" type="curve" smooth="yes"/>
      <point x="22" y="437.999" type="line" smooth="yes"/>
      <point x="22" y="468"/>
      <point x="34.9551" y="497"/>
      <point x="78.001" y="497" type="curve" smooth="yes"/>
    </contour>
  </outline>
</glyph>
<glyph name="si_Lla" format="1">
  <advance width="553"/>
  <unicode hex="0DC5"/>
  <outline>
    <contour>
      <point x="59" y="258" type="curve" smooth="yes"/>
      <point x="59" y="-67.7998" type="line" smooth="yes"/>
      <point x="59" y="-103.199"/>
      <point x="72.8957" y="-120"/>
      <point x="109" y="-120" type="curve" smooth="yes"/>
      <point x="501.999" y="-120" type="line"/>
      <point x="501.999" y="-152" type="line"/>
      <point x="100" y="-152" type="line" smooth="yes"/>
      <point x="51.287" y="-152"/>
      <point x="22" y="-126.804"/>
      <point x="22" y="-74" type="curve" smooth="yes"/>
      <point x="22" y="267" type="line" smooth="yes"/>
      <point x="22" y="307.178"/>
      <point x="53.0586" y="339.861"/>
      <point x="97.0146" y="340.402" type="curve"/>
      <point x="97.0146" y="441" type="line" smooth="yes"/>
      <point x="97.0146" y="477.476"/>
      <point x="116.659" y="497"/>
      <point x="151.015" y="497" type="curve" smooth="yes"/>
      <point x="265.41" y="497" type="line" smooth="yes"/>
      <point x="284.333" y="497"/>
      <point x="292.743" y="490"/>
      <point x="299.41" y="476" type="curve"/>
      <point x="307.41" y="490"/>
      <point x="317.367" y="497"/>
      <point x="335.41" y="497" type="curve" smooth="yes"/>
      <point x="444" y="497" type="line" smooth="yes"/>
      <point x="471.844" y="497"/>
      <point x="502" y="485.728"/>
      <point x="502" y="445" type="curve" smooth="yes"/>
      <point x="502" y="308.398" type="line"/>
      <point x="106.002" y="308.398" type="line" smooth="yes"/>
      <point x="78.3389" y="308.398"/>
      <point x="59" y="290.243"/>
    </contour>
    <contour>
      <point x="464.59" y="340.396" type="line"/>
      <point x="464.59" y="438" type="line" smooth="yes"/>
      <point x="464.59" y="453.471"/>
      <point x="458.259" y="464.999"/>
      <point x="440.188" y="464.999" type="curve" smooth="yes"/>
      <point x="341.601" y="465" type="line" smooth="yes"/>
      <point x="324.736" y="465"/>
      <point x="318.002" y="455.82"/>
      <point x="318.002" y="436" type="curve" smooth="yes"/>
      <point x="318.002" y="340.396" type="line"/>
    </contour>
    <contour>
      <point x="134.014" y="340.396" type="line"/>
      <point x="281.001" y="340.396" type="line"/>
      <point x="281.001" y="436.202" type="line" smooth="yes"/>
      <point x="281.001" y="455.499"/>
      <point x="273.218" y="465"/>
      <point x="259.6" y="465" type="curve" smooth="yes"/>
      <point x="157.015" y="465" type="line" smooth="yes"/>
      <point x="142.107" y="465"/>
      <point x="134.014" y="456.946"/>
      <point x="134.014" y="437" type="curve" smooth="yes"/>
    </contour>
    <contour>
      <point x="97.2012" y="101" type="curve" smooth="yes"/>
      <point x="97.2012" y="316" type="line"/>
      <point x="133" y="316" type="line"/>
      <point x="133" y="114" type="line" smooth="yes"/>
      <point x="133" y="91.4357"/>
      <point x="146" y="84.7871"/>
      <point x="164" y="84.7871" type="curve" smooth="yes"/>
      <point x="500.198" y="84.7871" type="line"/>
      <point x="500.198" y="52.3955" type="line"/>
      <point x="156" y="52.3955" type="line" smooth="yes"/>
      <point x="128" y="52.3955"/>
      <point x="97.2012" y="62.6133"/>
    </contour>
  </outline>
</glyph>
<glyph name="si_Halant" format="1">
  <advance width="2"/>
  <unicode hex="0DCA"/>
  <outline>
    <contour>
      <point x="-81.3994" y="492" type="line"/>
      <point x="-81.3994" y="649" type="line"/>
      <point x="-44.6094" y="649" type="line"/>
      <point x="-44.6094" y="438" type="line"/>
      <point x="-46.9756" y="443.675"/>
      <point x="-53.3994" y="463.086"/>
      <point x="-58" y="472" type="curve" smooth="yes"/>
      <point x="-62.0003" y="479.751"/>
      <point x="-73.2705" y="492"/>
      <point x="-79" y="492" type="curve" smooth="yes"/>
    </contour>
  </outline>
</glyph>
<glyph name="si_MatraAa" format="1">
  <advance width="232"/>
  <unicode hex="0DCF"/>
  <outline>
    <contour>
      <point x="21" y="497" type="line"/>
      <point x="151" y="497" type="line" smooth="yes"/>
      <point x="180.994" y="497"/>
      <point x="192" y="482.087"/>
      <point x="192" y="455.003" type="curve" smooth="yes"/>
      <point x="192" y="38" type="line" smooth="yes"/>
      <point x="192" y="12.667"/>
      <point x="178.333" y="0"/>
      <point x="151" y="0" type="curve" smooth="yes"/>
      <point x="21" y="0" type="line"/>
      <point x="21" y="32.0029" type="line"/>
      <point x="139.001" y="32.0029" type="line" smooth="yes"/>
      <point x="151.879" y="32.0029"/>
      <point x="155" y="38.3203"/>
      <point x="155" y="51.2002" type="curve" smooth="yes"/>
      <point x="155" y="449" type="line" smooth="yes"/>
      <point x="155" y="460.333"/>
      <point x="150.602" y="466"/>
      <point x="138.602" y="466" type="curve" smooth="yes"/>
      <point x="21" y="466" type="line"/>
    </contour>
  </outline>
</glyph>
<glyph name="si_MatraI" format="1">
  <advance width="2"/>
  <unicode hex="0DD2"/>
  <outline>
    <contour>
      <point x="-560.806" y="511" type="line"/>
      <point x="-560.806" y="595.803" type="line" smooth="yes"/>
      <point x="-560.806" y="625.797"/>
      <point x="-543.89" y="640"/>
      <point x="-516.806" y="640" type="curve" smooth="yes"/>
      <point x="-108" y="640" type="line" smooth="yes"/>
      <point x="-82.667" y="640"/>
      <point x="-67" y="628.565"/>
      <point x="-67" y="597" type="curve" smooth="yes"/>
      <point x="-67" y="511" type="line"/>
      <point x="-104.001" y="511" type="line"/>
      <point x="-104.001" y="587" type="line" smooth="yes"/>
      <point x="-104.001" y="599.878"/>
      <point x="-109.166" y="608.006"/>
      <point x="-124" y="608.006" type="curve" smooth="yes"/>
      <point x="-505.796" y="608.006" type="line" smooth="yes"/>
      <point x="-518.91" y="608.006"/>
      <point x="-524" y="600"/>
      <point x="-524" y="588" type="curve" smooth="yes"/>
      <point x="-524" y="511" type="line"/>
    </contour>
  </outline>
</glyph>
<glyph name="si_MatraIi" format="1">
  <advance width="515"/>
  <unicode hex="0DD3"/>
  <outline>
    <contour>
      <point x="-243.192" y="608" type="line" smooth="yes"/>
      <point x="-253.192" y="608"/>
      <point x="-258.192" y="604"/>
      <point x="-258.192" y="596" type="curve" smooth="yes"/>
      <point x="-258.192" y="569.213" type="line" smooth="yes"/>
      <point x="-258.192" y="560.546"/>
      <point x="-256.859" y="556.213"/>
      <point x="-246.192" y="556.213" type="curve" smooth="yes"/>
      <point x="-108.192" y="556.213" type="line" smooth="yes"/>
      <point x="-97.5254" y="556.213"/>
      <point x="-96.1924" y="560.88"/>
      <point x="-96.1924" y="570.213" type="curve" smooth="yes"/>
      <point x="-96.1924" y="592.196" type="line" smooth="yes"/>
      <point x="-96.1924" y="602.605"/>
      <point x="-101.859" y="608"/>
      <point x="-113.192" y="608" type="curve" smooth="yes"/>
    </contour>
    <contour>
      <point x="-498.991" y="608.008" type="line" smooth="yes"/>
      <point x="-510.438" y="608.008"/>
      <point x="-518.192" y="602"/>
      <point x="-518.192" y="590" type="curve" smooth="yes"/>
      <point x="-518.192" y="511" type="line"/>
      <point x="-554.998" y="511" type="line"/>
      <point x="-554.998" y="595.803" type="line" smooth="yes"/>
      <point x="-554.998" y="625.797"/>
      <point x="-537.387" y="640.011"/>
      <point x="-510.192" y="640.011" type="curve" smooth="yes"/>
      <point x="-101.192" y="640.012" type="line" smooth="yes"/>
      <point x="-73.3926" y="640.012"/>
      <point x="-59.1934" y="626.66"/>
      <point x="-59.1934" y="600" type="curve" smooth="yes"/>
      <point x="-59.1934" y="554.209" type="line" smooth="yes"/>
      <point x="-59.1934" y="534.213"/>
      <point x="-69.1953" y="524.209"/>
      <point x="-89.1934" y="524.209" type="curve" smooth="yes"/>
      <point x="-267.596" y="524.207" type="line" smooth="yes"/>
      <point x="-290.871" y="524.207"/>
      <point x="-295.396" y="534.515"/>
      <point x="-295.396" y="550.213" type="curve" smooth="yes"/>
      <point x="-295.396" y="600" type="line" smooth="yes"/>
      <point x="-295.396" y="604.531"/>
      <point x="-294.578" y="607.009"/>
      <point x="-292.996" y="608" type="curve"/>
    </contour>
  </outline>
</glyph>
<glyph name="si_MatraU" format="1">
  <advance width="2"/>
  <unicode hex="0DD4"/>
  <outline>
    <contour>
      <point x="-54" y="-159" type="line"/>
      <point x="-489.407" y="-159" type="line"/>
      <point x="-489.407" y="-126.904" type="line"/>
      <point x="-91.0879" y="-126.904" type="line"/>
      <point x="-91.0879" y="28" type="line"/>
      <point x="-86.0879" y="28" type="line" smooth="yes"/>
      <point x="-77.626" y="28"/>
      <point x="-59.333" y="38"/>
      <point x="-54" y="64" type="curve"/>
    </contour>
  </outline>
</glyph>
<glyph name="si_MatraR" format="1">
  <advance width="346"/>
  <unicode hex="0DD8"/>
  <outline>
    <contour>
      <point x="22" y="497.001" type="line"/>
      <point x="249" y="497" type="line" smooth="yes"/>
      <point x="281.667" y="497"/>
      <point x="298" y="481.333"/>
      <point x="298" y="450" type="curve" smooth="yes"/>
      <point x="298" y="0" type="line"/>
      <point x="274.2" y="0" type="line"/>
      <point x="265.008" y="38.7988" type="line"/>
      <point x="255.32" y="14.5869"/>
      <point x="235.921" y="0"/>
      <point x="212.001" y="0" type="curve" smooth="yes"/>
      <point x="59" y="0" type="line" smooth="yes"/>
      <point x="34.1572" y="0"/>
      <point x="22" y="13.8711"/>
      <point x="22" y="42" type="curve" smooth="yes"/>
      <point x="22" y="280" type="line" smooth="yes"/>
      <point x="22" y="310.313"/>
      <point x="42.0732" y="323.001"/>
      <point x="64.6006" y="323.001" type="curve" smooth="yes"/>
      <point x="261.01" y="322.999" type="line"/>
      <point x="261.01" y="439" type="line" smooth="yes"/>
      <point x="261.01" y="459.208"/>
      <point x="255.837" y="465"/>
      <point x="235.602" y="465" type="curve" smooth="yes"/>
      <point x="22" y="465" type="line"/>
    </contour>
    <contour>
      <point x="261.01" y="291.203" type="line"/>
      <point x="76.7988" y="291.204" type="line" smooth="yes"/>
      <point x="63.8203" y="291.204"/>
      <point x="59" y="287.587"/>
      <point x="59" y="269.204" type="curve" smooth="yes"/>
      <point x="59.0039" y="51.4004" type="line" smooth="yes"/>
      <point x="59.0042" y="36.057"/>
      <point x="62.399" y="32"/>
      <point x="77" y="32" type="curve" smooth="yes"/>
      <point x="188.001" y="32" type="line" smooth="yes"/>
      <point x="239.904" y="32"/>
      <point x="261.01" y="66.3594"/>
      <point x="261.01" y="139" type="curve" smooth="yes"/>
    </contour>
  </outline>
</glyph>
<glyph name="si_MatraE" format="1">
  <advance width="376"/>
  <unicode hex="0DD9"/>
  <outline>
    <contour>
      <point x="326" y="497" type="line"/>
      <point x="75" y="497" type="line" smooth="yes"/>
      <point x="41.7041" y="497"/>
      <point x="22" y="477.081"/>
      <point x="22" y="445" type="curve" smooth="yes"/>
      <point x="22" y="46" type="line" smooth="yes"/>
      <point x="22" y="17.8145"/>
      <point x="35.5401" y="0"/>
      <point x="68" y="0" type="curve" smooth="yes"/>
      <point x="280.199" y="0" type="line" smooth="yes"/>
      <point x="313.548" y="0"/>
      <point x="331" y="19.123"/>
      <point x="331" y="48.6006" type="curve" smooth="yes"/>
      <point x="331" y="273.392" type="line" smooth="yes"/>
      <point x="331" y="306.296"/>
      <point x="314.158" y="323.392"/>
      <point x="278" y="323.392" type="curve" smooth="yes"/>
      <point x="168" y="323.392" type="line"/>
      <point x="168" y="291.397" type="line"/>
      <point x="264" y="291.396" type="line" smooth="yes"/>
      <point x="286.543" y="291.396"/>
      <point x="293.999" y="283.271"/>
      <point x="293.999" y="260" type="curve" smooth="yes"/>
      <point x="293.999" y="56" type="line" smooth="yes"/>
      <point x="293.999" y="39.5215"/>
      <point x="284.363" y="32"/>
      <point x="268.8" y="32" type="curve" smooth="yes"/>
      <point x="79" y="32" type="line" smooth="yes"/>
      <point x="66.333" y="32"/>
      <point x="58.999" y="37.5605"/>
      <point x="58.999" y="56" type="curve" smooth="yes"/>
      <point x="58.999" y="434.799" type="line" smooth="yes"/>
      <point x="58.999" y="454.427"/>
      <point x="65.3115" y="465"/>
      <point x="90.4004" y="465" type="curve" smooth="yes"/>
      <point x="326" y="464.999" type="line"/>
    </contour>
  </outline>
</glyph>
<glyph name="si_kundaliya" format="1">
  <advance width="1838"/>
  <unicode hex="0DF4"/>
  <outline>
    <contour>
      <point x="130" y="184" type="line"/>
      <point x="147" y="149" type="line"/>
      <point x="98" y="118" type="line"/>
      <point x="135" y="51" type="line" smooth="yes"/>
      <point x="142.957" y="36.5917"/>
      <point x="157.367" y="40.961"/>
      <point x="169" y="48" type="curve" smooth="yes"/>
      <point x="326" y="143" type="line" smooth="yes"/>
      <point x="345.291" y="154.673"/>
      <point x="360.967" y="156.628"/>
      <point x="376" y="144" type="curve" smooth="yes"/>
      <point x="401" y="123" type="line"/>
      <point x="468.115" y="238" type="line" smooth="yes"/>
      <point x="470.099" y="241.399"/>
      <point x="470.302" y="241.848"/>
      <point x="474.182" y="237" type="curve" smooth="yes"/>
      <point x="523" y="176" type="line"/>
      <point x="609" y="314" type="line" smooth="yes"/>
      <point x="611.874" y="319.317"/>
      <point x="614.208" y="317.722"/>
      <point x="617.567" y="313" type="curve" smooth="yes"/>
      <point x="682" y="224" type="line"/>
      <point x="772" y="369.373" type="line" smooth="yes"/>
      <point x="775.001" y="374.22"/>
      <point x="778.647" y="374.704"/>
      <point x="781.905" y="368" type="curve" smooth="yes"/>
      <point x="848" y="232" type="line"/>
      <point x="952" y="388.615" type="line" smooth="yes"/>
      <point x="954.785" y="392.808"/>
      <point x="958.954" y="392.566"/>
      <point x="960.49" y="388" type="curve" smooth="yes"/>
      <point x="1017" y="220" type="line"/>
      <point x="1116" y="333" type="line" smooth="yes"/>
      <point x="1117.8" y="335.241"/>
      <point x="1121.89" y="334.851"/>
      <point x="1123" y="329" type="curve" smooth="yes"/>
      <point x="1162" y="183" type="line"/>
      <point x="1266" y="286" type="line" smooth="yes"/>
      <point x="1269.89" y="290.037"/>
      <point x="1272.62" y="285.923"/>
      <point x="1274" y="280" type="curve" smooth="yes"/>
      <point x="1312" y="138" type="line"/>
      <point x="1400" y="219" type="line" smooth="yes"/>
      <point x="1404.04" y="222.722"/>
      <point x="1404.71" y="220.367"/>
      <point x="1406" y="216" type="curve" smooth="yes"/>
      <point x="1432" y="128" type="line"/>
      <point x="1448" y="138" type="line" smooth="yes"/>
      <point x="1473.16" y="153.725"/>
      <point x="1497.9" y="152.873"/>
      <point x="1517.4" y="141.001" type="curve" smooth="yes"/>
      <point x="1670.8" y="47.6016" type="line" smooth="yes"/>
      <point x="1680.76" y="41.5399"/>
      <point x="1702.03" y="33.099"/>
      <point x="1709.8" y="47.6016" type="curve" smooth="yes"/>
      <point x="1747" y="117" type="line"/>
      <point x="1697" y="150" type="line"/>
      <point x="1715" y="184" type="line"/>
      <point x="1787" y="137" type="line" smooth="yes"/>
      <point x="1792.9" y="133.148"/>
      <point x="1793.09" y="122.879"/>
      <point x="1790" y="117" type="curve" smooth="yes"/>
      <point x="1739" y="20" type="line" smooth="yes"/>
      <point x="1725.95" y="-4.82166"/>
      <point x="1697.27" y="-7.62737"/>
      <point x="1665" y="7" type="curve"/>
      <point x="1519" y="92" type="line" smooth="yes"/>
      <point x="1505.67" y="99.7592"/>
      <point x="1483.75" y="108.348"/>
      <point x="1458" y="94" type="curve" smooth="yes"/>
      <point x="1403.8" y="63.7998" type="line"/>
      <point x="1381" y="157" type="line"/>
      <point x="1282" y="71" type="line"/>
      <point x="1252" y="220" type="line"/>
      <point x="1150" y="116" type="line"/>
      <point x="1103" y="266" type="line"/>
      <point x="999" y="153" type="line"/>
      <point x="948" y="308" type="line"/>
      <point x="844" y="165" type="line"/>
      <point x="778" y="299" type="line"/>
      <point x="681" y="153" type="line"/>
      <point x="611" y="253" type="line"/>
      <point x="525" y="120" type="line"/>
      <point x="475" y="172" type="line"/>
      <point x="412" y="73" type="line"/>
      <point x="368" y="106" type="line" smooth="yes"/>
      <point x="353.149" y="117.138"/>
      <point x="339.471" y="110.048"/>
      <point x="326" y="102" type="curve" smooth="yes"/>
      <point x="167" y="7" type="line" smooth="yes"/>
      <point x="140.96" y="-8.55841"/>
      <point x="118.48" y="-3.73707"/>
      <point x="106" y="20" type="curve" smooth="yes"/>
      <point x="55" y="117" type="line" smooth="yes"/>
      <point x="51.9179" y="122.862"/>
      <point x="51.6298" y="133.225"/>
      <point x="59" y="138" type="curve" smooth="yes"/>
    </contour>
  </outline>
</glyph>
<glyph name="si_BI" format="1">
  <advance width="515"/>
  <outline>
    <contour>
      <point x="460" y="400" type="line"/>
      <point x="423" y="400" type="line"/>
      <point x="423" y="476" type="line" smooth="yes"/>
      <point x="423" y="499.381"/>
      <point x="416.127" y="509.5"/>
      <point x="391" y="509.5" type="curve" smooth="yes"/>
      <point x="69" y="509.5" type="line" smooth="yes"/>
      <point x="37.667" y="509.5"/>
      <point x="22" y="525.5"/>
      <point x="22" y="557.5" type="curve" smooth="yes"/>
      <point x="22" y="620" type="line" smooth="yes"/>
      <point x="22" y="653.415"/>
      <point x="36.1038" y="672"/>
      <point x="72" y="672" type="curve" smooth="yes"/>
      <point x="458.5" y="672" type="line"/>
      <point x="458.5" y="640" type="line"/>
      <point x="84" y="640" type="line" smooth="yes"/>
      <point x="63.083" y="640"/>
      <point x="58.875" y="635.558"/>
      <point x="58.875" y="611" type="curve" smooth="yes"/>
      <point x="58.875" y="566" type="line" smooth="yes"/>
      <point x="58.875" y="552.49"/>
      <point x="60.4326" y="541.5"/>
      <point x="83" y="541.5" type="curve" smooth="yes"/>
      <point x="391" y="541.5" type="line" smooth="yes"/>
      <point x="447.814" y="541.5"/>
      <point x="460" y="524.085"/>
      <point x="460" y="466" type="curve" smooth="yes"/>
    </contour>
    <contour>
      <point x="215.002" y="54" type="curve" smooth="yes"/>
      <point x="214.002" y="356.586" type="line" smooth="yes"/>
      <point x="213.945" y="376.709"/>
      <point x="206.548" y="385.586"/>
      <point x="188" y="385.586" type="curve" smooth="yes"/>
      <point x="85" y="385.586" type="line" smooth="yes"/>
      <point x="64.3496" y="385.586"/>
      <point x="59" y="375.711"/>
      <point x="59" y="356.386" type="curve" smooth="yes"/>
      <point x="59" y="60" type="line" smooth="yes"/>
      <point x="59" y="37.8389"/>
      <point x="64.4795" y="32"/>
      <point x="82" y="32" type="curve" smooth="yes"/>
      <point x="172" y="32" type="line"/>
      <point x="172" y="0" type="line"/>
      <point x="72" y="0" type="line" smooth="yes"/>
      <point x="34.9277" y="0"/>
      <point x="22" y="16.2734"/>
      <point x="22" y="54" type="curve" smooth="yes"/>
      <point x="22" y="362.602" type="line" smooth="yes"/>
      <point x="22" y="399.269"/>
      <point x="40.667" y="417.602"/>
      <point x="78" y="417.602" type="curve" smooth="yes"/>
      <point x="196.603" y="417.602" type="line" smooth="yes"/>
      <point x="228.73" y="417.602"/>
      <point x="251.603" y="403.389"/>
      <point x="251.603" y="364" type="curve" smooth="yes"/>
      <point x="251.603" y="62" type="line" smooth="yes"/>
      <point x="251.603" y="41.9082"/>
      <point x="255.226" y="32"/>
      <point x="277" y="32" type="curve" smooth="yes"/>
      <point x="402" y="32" type="line" smooth="yes"/>
      <point x="418.515" y="32"/>
      <point x="423.004" y="39.3467"/>
      <point x="423.004" y="58" type="curve" smooth="yes"/>
      <point x="423.004" y="415" type="line"/>
      <point x="460.001" y="415" type="line"/>
      <point x="460.001" y="54" type="line" smooth="yes"/>
      <point x="460.001" y="16.2705"/>
      <point x="447.076" y="-0"/>
      <point x="410.001" y="0" type="curve" smooth="yes"/>
      <point x="267.002" y="0" type="line" smooth="yes"/>
      <point x="230.255" y="0"/>
      <point x="215.125" y="16.7315"/>
    </contour>
  </outline>
</glyph>
<glyph name="si_BIi" format="1">
  <advance width="515"/>
  <outline>
    <contour>
      <point x="423" y="405" type="line"/>
      <point x="423" y="479.5" type="line" smooth="yes"/>
      <point x="423" y="497.69"/>
      <point x="405.683" y="509.5"/>
      <point x="387" y="509.5" type="curve" smooth="yes"/>
      <point x="65" y="509.5" type="line" smooth="yes"/>
      <point x="35.1572" y="509.5"/>
      <point x="22" y="518.271"/>
      <point x="22" y="550.5" type="curve" smooth="yes"/>
      <point x="22" y="618" type="line" smooth="yes"/>
      <point x="22" y="654.86"/>
      <point x="35.4108" y="672"/>
      <point x="72" y="672" type="curve" smooth="yes"/>
      <point x="410" y="672" type="line" smooth="yes"/>
      <point x="446.588" y="672"/>
      <point x="460" y="654.858"/>
      <point x="460" y="618" type="curve" smooth="yes"/>
      <point x="460" y="570" type="line" smooth="yes"/>
      <point x="460" y="547.838"/>
      <point x="450.687" y="532.87"/>
      <point x="433" y="528" type="curve"/>
      <point x="454.911" y="521.152"/>
      <point x="460" y="504.274"/>
      <point x="460" y="475" type="curve" smooth="yes"/>
      <point x="460" y="405" type="line"/>
    </contour>
    <contour>
      <point x="272" y="539" type="line"/>
      <point x="260.918" y="542.511"/>
      <point x="254" y="550.292"/>
      <point x="254" y="567" type="curve" smooth="yes"/>
      <point x="254" y="621" type="line" smooth="yes"/>
      <point x="254" y="633.107"/>
      <point x="260.501" y="638.25"/>
      <point x="264" y="640" type="curve"/>
      <point x="263.853" y="640"/>
      <point x="75.875" y="640"/>
      <point x="75.875" y="640" type="curve" smooth="yes"/>
      <point x="64.542" y="640"/>
      <point x="58.875" y="635.333"/>
      <point x="58.875" y="626" type="curve" smooth="yes"/>
      <point x="58.875" y="554" type="line" smooth="yes"/>
      <point x="58.875" y="544"/>
      <point x="64.208" y="539"/>
      <point x="74.875" y="539" type="curve" smooth="yes"/>
    </contour>
    <contour>
      <point x="315" y="640" type="line" smooth="yes"/>
      <point x="299.45" y="640"/>
      <point x="291" y="630.698"/>
      <point x="291" y="616" type="curve" smooth="yes"/>
      <point x="291" y="570.5" type="line" smooth="yes"/>
      <point x="291" y="551.602"/>
      <point x="307.267" y="545.5"/>
      <point x="324.5" y="545.5" type="curve" smooth="yes"/>
      <point x="387" y="545.5" type="line" smooth="yes"/>
      <point x="403.345" y="545.5"/>
      <point x="423" y="550.393"/>
      <point x="423" y="577" type="curve" smooth="yes"/>
      <point x="423" y="627.5" type="line" smooth="yes"/>
      <point x="423" y="636.697"/>
      <point x="415.693" y="640"/>
      <point x="408.5" y="640" type="curve" smooth="yes"/>
    </contour>
    <contour>
      <point x="215.002" y="54" type="curve" smooth="yes"/>
      <point x="214.002" y="356.586" type="line" smooth="yes"/>
      <point x="213.945" y="376.709"/>
      <point x="206.548" y="385.586"/>
      <point x="188" y="385.586" type="curve" smooth="yes"/>
      <point x="85" y="385.586" type="line" smooth="yes"/>
      <point x="64.3496" y="385.586"/>
      <point x="59" y="375.711"/>
      <point x="59" y="356.386" type="curve" smooth="yes"/>
      <point x="59" y="60" type="line" smooth="yes"/>
      <point x="59" y="37.8389"/>
      <point x="64.4795" y="32"/>
      <point x="82" y="32" type="curve" smooth="yes"/>
      <point x="172" y="32" type="line"/>
      <point x="172" y="0" type="line"/>
      <point x="72" y="0" type="line" smooth="yes"/>
      <point x="34.9277" y="0"/>
      <point x="22" y="16.2734"/>
      <point x="22" y="54" type="curve" smooth="yes"/>
      <point x="22" y="362.602" type="line" smooth="yes"/>
      <point x="22" y="399.269"/>
      <point x="40.667" y="417.602"/>
      <point x="78" y="417.602" type="curve" smooth="yes"/>
      <point x="196.603" y="417.602" type="line" smooth="yes"/>
      <point x="228.73" y="417.602"/>
      <point x="251.603" y="403.389"/>
      <point x="251.603" y="364" type="curve" smooth="yes"/>
      <point x="251.603" y="62" type="line" smooth="yes"/>
      <point x="251.603" y="41.9082"/>
      <point x="255.226" y="32"/>
      <point x="277" y="32" type="curve" smooth="yes"/>
      <point x="402" y="32" type="line" smooth="yes"/>
      <point x="418.515" y="32"/>
      <point x="423.004" y="39.3467"/>
      <point x="423.004" y="58" type="curve" smooth="yes"/>
      <point x="423.004" y="415" type="line"/>
      <point x="460.001" y="415" type="line"/>
      <point x="460.001" y="54" type="line" smooth="yes"/>
      <point x="460.001" y="16.2705"/>
      <point x="447.076" y="-0"/>
      <point x="410.001" y="0" type="curve" smooth="yes"/>
      <point x="267.002" y="0" type="line" smooth="yes"/>
      <point x="230.255" y="0"/>
      <point x="215.125" y="16.7315"/>
    </contour>
  </outline>
</glyph>
<glyph name="si_CI" format="1">
  <advance width="539"/>
  <outline>
    <contour>
      <point x="496.999" y="400" type="line"/>
      <point x="459.999" y="400" type="line"/>
      <point x="459.999" y="476" type="line" smooth="yes"/>
      <point x="459.999" y="499.381"/>
      <point x="453.126" y="509.5"/>
      <point x="427.999" y="509.5" type="curve" smooth="yes"/>
      <point x="105.999" y="509.5" type="line" smooth="yes"/>
      <point x="74.666" y="509.5"/>
      <point x="58.999" y="525.5"/>
      <point x="58.999" y="557.5" type="curve" smooth="yes"/>
      <point x="58.999" y="620" type="line" smooth="yes"/>
      <point x="58.999" y="653.415"/>
      <point x="73.1025" y="672"/>
      <point x="108.999" y="672" type="curve" smooth="yes"/>
      <point x="495.499" y="672" type="line"/>
      <point x="495.499" y="640" type="line"/>
      <point x="120.999" y="640" type="line" smooth="yes"/>
      <point x="100.082" y="640"/>
      <point x="95.874" y="635.559"/>
      <point x="95.874" y="611" type="curve" smooth="yes"/>
      <point x="95.874" y="566" type="line" smooth="yes"/>
      <point x="95.874" y="552.489"/>
      <point x="97.4316" y="541.5"/>
      <point x="119.999" y="541.5" type="curve" smooth="yes"/>
      <point x="427.999" y="541.5" type="line" smooth="yes"/>
      <point x="484.813" y="541.5"/>
      <point x="496.999" y="524.085"/>
      <point x="496.999" y="466" type="curve" smooth="yes"/>
    </contour>
    <contour>
      <point x="-6" y="309" type="line"/>
      <point x="183.996" y="309" type="line"/>
      <point x="183.996" y="277" type="line"/>
      <point x="-6.00195" y="277" type="line"/>
    </contour>
    <contour>
      <point x="497" y="415" type="line"/>
      <point x="497" y="54" type="line" smooth="yes"/>
      <point x="497" y="16.2705"/>
      <point x="484.075" y="0"/>
      <point x="447" y="0" type="curve" smooth="yes"/>
      <point x="116.997" y="0" type="line" smooth="yes"/>
      <point x="79.9248" y="0"/>
      <point x="66.9971" y="16.2744"/>
      <point x="66.9971" y="54" type="curve" smooth="yes"/>
      <point x="66.9971" y="226" type="line" smooth="yes"/>
      <point x="66.9971" y="253.079"/>
      <point x="79.2979" y="273.443"/>
      <point x="97.9961" y="282" type="curve" smooth="yes"/>
      <point x="97.9961" y="282"/>
      <point x="137.934" y="309"/>
      <point x="156.996" y="309" type="curve" smooth="yes"/>
      <point x="248.091" y="309" type="line"/>
      <point x="248.091" y="418" type="line" smooth="yes"/>
      <point x="248.091" y="435.568"/>
      <point x="233.664" y="438"/>
      <point x="222.997" y="438" type="curve" smooth="yes"/>
      <point x="66.9961" y="438" type="line"/>
      <point x="66.9961" y="470" type="line"/>
      <point x="233.997" y="470" type="line" smooth="yes"/>
      <point x="269.22" y="470"/>
      <point x="284.992" y="454.405"/>
      <point x="284.993" y="418" type="curve" smooth="yes"/>
      <point x="284.997" y="277" type="line"/>
      <point x="166.998" y="277" type="line" smooth="yes"/>
      <point x="133.544" y="277"/>
      <point x="104.001" y="265.318"/>
      <point x="104.001" y="220" type="curve" smooth="yes"/>
      <point x="104.001" y="59" type="line" smooth="yes"/>
      <point x="104.001" y="39.2084"/>
      <point x="111.293" y="32"/>
      <point x="128" y="32" type="curve" smooth="yes"/>
      <point x="436.003" y="32" type="line" smooth="yes"/>
      <point x="453.915" y="32"/>
      <point x="460" y="40.375"/>
      <point x="460" y="62" type="curve" smooth="yes"/>
      <point x="460" y="415" type="line"/>
    </contour>
  </outline>
</glyph>
<glyph name="si_CUu" format="1">
  <advance width="539"/>
  <outline>
    <contour>
      <point x="496.992" y="-158.999" type="line"/>
      <point x="466.19" y="-158.999" type="line"/>
      <point x="460.99" y="-149.728"/>
      <point x="449.522" y="-138.132"/>
      <point x="441.794" y="-132.798" type="curve" smooth="yes"/>
      <point x="431.623" y="-125.778"/>
      <point x="413.601" y="-119.993"/>
      <point x="394.79" y="-119.993" type="curve"/>
      <point x="337.986" y="-119.993" type="line"/>
      <point x="320.328" y="-119.993"/>
      <point x="299.826" y="-127.5"/>
      <point x="287.397" y="-132.599" type="curve"/>
      <point x="239.789" y="-152.402" type="line"/>
      <point x="224.117" y="-158.382"/>
      <point x="195.304" y="-162.805"/>
      <point x="160.992" y="-162.805" type="curve" smooth="yes"/>
      <point x="115.399" y="-162.805" type="line" smooth="yes"/>
      <point x="82.9854" y="-162.805"/>
      <point x="67.3984" y="-150.575"/>
      <point x="67.3984" y="-122.002" type="curve" smooth="yes"/>
      <point x="67.3984" y="-29.0029" type="line"/>
      <point x="104.196" y="-29.0029" type="line"/>
      <point x="104.196" y="-112.604" type="line" smooth="yes"/>
      <point x="104.196" y="-123.889"/>
      <point x="109.064" y="-130.605"/>
      <point x="121.001" y="-130.605" type="curve" smooth="yes"/>
      <point x="166.786" y="-130.605" type="line" smooth="yes"/>
      <point x="187.755" y="-130.605"/>
      <point x="213.582" y="-127.924"/>
      <point x="236.986" y="-119.002" type="curve"/>
      <point x="276.192" y="-103.399" type="line"/>
      <point x="289.158" y="-98.0723"/>
      <point x="313.586" y="-91.5957"/>
      <point x="335.782" y="-91.5957" type="curve"/>
      <point x="399.001" y="-91.5957" type="line"/>
      <point x="420.693" y="-91.5957"/>
      <point x="440.139" y="-97.3721"/>
      <point x="448.4" y="-102.801" type="curve" smooth="yes"/>
      <point x="454.354" y="-106.713"/>
      <point x="455.041" y="-107.64"/>
      <point x="459.788" y="-112.4" type="curve"/>
      <point x="459.788" y="35" type="line"/>
      <point x="472.986" y="35" type="line" smooth="yes"/>
      <point x="478.555" y="35"/>
      <point x="492.992" y="49"/>
      <point x="496.992" y="77" type="curve"/>
    </contour>
    <component base="si_Ca"/>
  </outline>
</glyph>
<glyph name="si_ChI" format="1">
  <advance width="513"/>
  <outline>
    <contour>
      <point x="40" y="511.604" type="line"/>
      <point x="77.002" y="511.604" type="line"/>
      <point x="77.002" y="581" type="line" smooth="yes"/>
      <point x="77.002" y="603.366"/>
      <point x="89.4218" y="610.998"/>
      <point x="111" y="610.998" type="curve" smooth="yes"/>
      <point x="366" y="610.998" type="line"/>
      <point x="407" y="642.99" type="line"/>
      <point x="98.7979" y="642.989" type="line" smooth="yes"/>
      <point x="68.6699" y="642.989"/>
      <point x="40" y="624.453"/>
      <point x="40" y="590.99" type="curve" smooth="yes"/>
    </contour>
    <component base="si_Cha"/>
  </outline>
</glyph>
<glyph name="si_DAa" format="1">
  <advance width="458"/>
  <outline>
    <contour>
      <point x="394.998" y="-36" type="line" smooth="yes"/>
      <point x="394.998" y="-24.709"/>
      <point x="388.997" y="-20"/>
      <point x="378.001" y="-20" type="curve" smooth="yes"/>
      <point x="317" y="-20" type="line"/>
      <point x="306.4" y="-40" type="line"/>
      <point x="268.604" y="-40" type="line"/>
      <point x="363.797" y="141" type="line"/>
      <point x="402" y="141" type="line"/>
      <point x="334" y="11.9932" type="line"/>
      <point x="395.003" y="11.9932" type="line" smooth="yes"/>
      <point x="421.003" y="11.9932"/>
      <point x="432" y="-1.00684"/>
      <point x="432" y="-25.0068" type="curve" smooth="yes"/>
      <point x="432" y="-125.399" type="line" smooth="yes"/>
      <point x="432" y="-159.018"/>
      <point x="408.186" y="-171"/>
      <point x="380" y="-171" type="curve" smooth="yes"/>
      <point x="178" y="-171" type="line"/>
      <point x="178" y="-138.801" type="line"/>
      <point x="373.998" y="-138.801" type="line" smooth="yes"/>
      <point x="386.966" y="-138.801"/>
      <point x="394.998" y="-133.938"/>
      <point x="394.998" y="-120.801" type="curve" smooth="yes"/>
    </contour>
    <contour>
      <point x="299.002" y="16" type="line"/>
      <point x="290.585" y="4.64844"/>
      <point x="288.844" y="-6.71642e-15"/>
      <point x="234" y="0" type="curve" smooth="yes"/>
      <point x="66.2002" y="0" type="line" smooth="yes"/>
      <point x="32.2002" y="0"/>
      <point x="22" y="17.9258"/>
      <point x="22" y="49.5996" type="curve" smooth="yes"/>
      <point x="22" y="295.998" type="line" smooth="yes"/>
      <point x="22" y="336.654"/>
      <point x="43.1064" y="352.998"/>
      <point x="80" y="352.998" type="curve" smooth="yes"/>
      <point x="366.796" y="352.998" type="line"/>
      <point x="366.795" y="436" type="line" smooth="yes"/>
      <point x="366.795" y="457.285"/>
      <point x="358.271" y="465"/>
      <point x="340" y="465" type="curve" smooth="yes"/>
      <point x="22" y="465" type="line"/>
      <point x="22" y="497.001" type="line"/>
      <point x="351" y="497" type="line" smooth="yes"/>
      <point x="384.564" y="497"/>
      <point x="404" y="480.913"/>
      <point x="404" y="444" type="curve" smooth="yes"/>
      <point x="404" y="321.001" type="line"/>
      <point x="91" y="321" type="line" smooth="yes"/>
      <point x="66.6045" y="321"/>
      <point x="59" y="311.276"/>
      <point x="59" y="290" type="curve" smooth="yes"/>
      <point x="59" y="58.001" type="line" smooth="yes"/>
      <point x="59" y="38.1592"/>
      <point x="67.0479" y="32"/>
      <point x="82.2002" y="32" type="curve" smooth="yes"/>
      <point x="251" y="32" type="line" smooth="yes"/>
      <point x="304.961" y="32"/>
      <point x="323.635" y="69.8838"/>
      <point x="338.398" y="92" type="curve"/>
    </contour>
  </outline>
</glyph>
<glyph name="si_DAe" format="1">
  <advance width="525"/>
  <outline>
    <contour>
      <point x="435.983" y="143" type="line"/>
      <point x="479.389" y="143" type="line"/>
      <point x="359.189" y="-87" type="line" smooth="yes"/>
      <point x="353.331" y="-98.21"/>
      <point x="344.151" y="-116.478"/>
      <point x="346.593" y="-131" type="curve" smooth="yes"/>
      <point x="348.61" y="-143.003"/>
      <point x="356.931" y="-151.802"/>
      <point x="373.593" y="-151.802" type="curve" smooth="yes"/>
      <point x="447.592" y="-151.804" type="line"/>
      <point x="447.593" y="-184" type="line"/>
      <point x="358.593" y="-184" type="line"/>
      <point x="324.836" y="-183.975"/>
      <point x="304.594" y="-157.021"/>
      <point x="304.594" y="-133" type="curve" smooth="yes"/>
      <point x="304.594" y="-127" type="line" smooth="yes"/>
      <point x="304.594" y="-105.348"/>
      <point x="315.777" y="-86.082"/>
      <point x="321.593" y="-75" type="curve" smooth="yes"/>
    </contour>
    <contour>
      <point x="365.786" y="143" type="line"/>
      <point x="408.784" y="143" type="line"/>
      <point x="294.581" y="-72.7988" type="line" smooth="yes"/>
      <point x="280.465" y="-99.8574"/>
      <point x="277.788" y="-112.268"/>
      <point x="277.788" y="-131.404" type="curve" smooth="yes"/>
      <point x="277.788" y="-136" type="line" smooth="yes"/>
      <point x="277.788" y="-155.28"/>
      <point x="291.624" y="-175.1"/>
      <point x="303.593" y="-184" type="curve"/>
      <point x="259.995" y="-184" type="line"/>
      <point x="251.011" y="-181.562"/>
      <point x="237.787" y="-158.131"/>
      <point x="237.787" y="-133.794" type="curve" smooth="yes"/>
      <point x="237.787" y="-125.201" type="line" smooth="yes"/>
      <point x="237.787" y="-100.757"/>
      <point x="253.968" y="-66.6777"/>
      <point x="259.79" y="-55.5996" type="curve" smooth="yes"/>
    </contour>
    <contour>
      <point x="302.193" y="16" type="line"/>
      <point x="293.776" y="4.64844"/>
      <point x="292.035" y="0"/>
      <point x="237.191" y="0" type="curve" smooth="yes"/>
      <point x="66.2002" y="0" type="line" smooth="yes"/>
      <point x="32.2002" y="0"/>
      <point x="22" y="17.9258"/>
      <point x="22" y="49.5996" type="curve" smooth="yes"/>
      <point x="22" y="295.998" type="line" smooth="yes"/>
      <point x="22" y="336.654"/>
      <point x="43.1064" y="352.998"/>
      <point x="80" y="352.998" type="curve" smooth="yes"/>
      <point x="366.796" y="352.998" type="line"/>
      <point x="366.795" y="436" type="line" smooth="yes"/>
      <point x="366.795" y="457.285"/>
      <point x="358.271" y="465"/>
      <point x="340" y="465" type="curve" smooth="yes"/>
      <point x="22" y="465" type="line"/>
      <point x="22" y="497.001" type="line"/>
      <point x="351" y="497" type="line" smooth="yes"/>
      <point x="384.564" y="497"/>
      <point x="404" y="480.913"/>
      <point x="404" y="444" type="curve" smooth="yes"/>
      <point x="404" y="321.001" type="line"/>
      <point x="91" y="321" type="line" smooth="yes"/>
      <point x="66.6045" y="321"/>
      <point x="59" y="311.276"/>
      <point x="59" y="290" type="curve" smooth="yes"/>
      <point x="59" y="58.001" type="line" smooth="yes"/>
      <point x="59" y="38.1592"/>
      <point x="67.0479" y="32"/>
      <point x="82.2002" y="32" type="curve" smooth="yes"/>
      <point x="254.191" y="32" type="line" smooth="yes"/>
      <point x="308.152" y="32"/>
      <point x="326.826" y="69.8838"/>
      <point x="341.59" y="92" type="curve"/>
    </contour>
  </outline>
</glyph>
<glyph name="si_DDdh.halant" format="1">
  <advance width="671"/>
  <outline>
    <contour>
      <point x="621.001" y="400" type="line"/>
      <point x="583.601" y="400" type="line"/>
      <point x="583.601" y="465" type="line" smooth="yes"/>
      <point x="583.601" y="505.98"/>
      <point x="571.365" y="518"/>
      <point x="536.001" y="518" type="curve" smooth="yes"/>
      <point x="175.001" y="518" type="line"/>
      <point x="175.001" y="550" type="line"/>
      <point x="243.001" y="550" type="line"/>
      <point x="213.668" y="557.333"/>
      <point x="211.001" y="582.667"/>
      <point x="211.001" y="604" type="curve" smooth="yes"/>
      <point x="211.001" y="632" type="line" smooth="yes"/>
      <point x="211.001" y="659.333"/>
      <point x="227.334" y="673"/>
      <point x="260.001" y="673" type="curve" smooth="yes"/>
      <point x="619.001" y="673" type="line"/>
      <point x="619.001" y="641" type="line"/>
      <point x="263.501" y="641" type="line" smooth="yes"/>
      <point x="248.532" y="641"/>
      <point x="248.001" y="633.667"/>
      <point x="248.001" y="616" type="curve" smooth="yes"/>
      <point x="248.001" y="573.678"/>
      <point x="258.398" y="550"/>
      <point x="329.001" y="550" type="curve" smooth="yes"/>
      <point x="544.001" y="550" type="line" smooth="yes"/>
      <point x="604.38" y="550"/>
      <point x="621.001" y="528.468"/>
      <point x="621.001" y="469" type="curve" smooth="yes"/>
    </contour>
    <contour>
      <point x="620.975" y="428" type="line"/>
      <point x="620.975" y="50" type="line" smooth="yes"/>
      <point x="620.975" y="19.6377"/>
      <point x="607.373" y="0"/>
      <point x="573.977" y="0" type="curve" smooth="yes"/>
      <point x="449.791" y="0" type="line" smooth="yes"/>
      <point x="423.791" y="0"/>
      <point x="407.457" y="12.333"/>
      <point x="400.791" y="37" type="curve"/>
      <point x="397.617" y="16.3779"/>
      <point x="377.061" y="0"/>
      <point x="353.791" y="0" type="curve" smooth="yes"/>
      <point x="229" y="0" type="line" smooth="yes"/>
      <point x="197.609" y="0"/>
      <point x="182" y="15.0176"/>
      <point x="182" y="48" type="curve" smooth="yes"/>
      <point x="182" y="345.003" type="line" smooth="yes"/>
      <point x="182" y="383.558"/>
      <point x="200.021" y="410.003"/>
      <point x="241" y="410.003" type="curve" smooth="yes"/>
      <point x="407.186" y="410.003" type="line"/>
      <point x="407.187" y="377.805" type="line"/>
      <point x="253" y="377.805" type="line" smooth="yes"/>
      <point x="226.387" y="377.805"/>
      <point x="219" y="363.44"/>
      <point x="219" y="342.003" type="curve" smooth="yes"/>
      <point x="219" y="58" type="line" smooth="yes"/>
      <point x="219" y="42.2285"/>
      <point x="222.956" y="32"/>
      <point x="242" y="32" type="curve" smooth="yes"/>
      <point x="335.988" y="32" type="line" smooth="yes"/>
      <point x="375.117" y="32"/>
      <point x="381.988" y="65.5215"/>
      <point x="381.988" y="100.802" type="curve" smooth="yes"/>
      <point x="381.988" y="229" type="line"/>
      <point x="419.188" y="229" type="line"/>
      <point x="419.188" y="101" type="line" smooth="yes"/>
      <point x="419.188" y="66.165"/>
      <point x="428.267" y="32"/>
      <point x="469.988" y="32" type="curve" smooth="yes"/>
      <point x="561.977" y="32" type="line" smooth="yes"/>
      <point x="578.903" y="32"/>
      <point x="583.582" y="43.6895"/>
      <point x="583.582" y="60" type="curve" smooth="yes"/>
      <point x="583.582" y="428" type="line"/>
    </contour>
    <contour>
      <point x="116.602" y="378.002" type="line" smooth="yes"/>
      <point x="76.8906" y="378.002"/>
      <point x="59" y="365.742"/>
      <point x="59" y="325.002" type="curve" smooth="yes"/>
      <point x="59" y="0" type="line"/>
      <point x="22" y="0" type="line"/>
      <point x="22" y="337.002" type="line" smooth="yes"/>
      <point x="22" y="389.168"/>
      <point x="58.8516" y="410.002"/>
      <point x="105.4" y="410.002" type="curve" smooth="yes"/>
      <point x="281.614" y="410.002" type="line"/>
      <point x="211.614" y="378.002" type="line"/>
    </contour>
  </outline>
</glyph>
<glyph name="si_DDhIi" format="1">
  <advance width="671"/>
  <outline>
    <contour>
      <point x="583.601" y="405" type="line"/>
      <point x="583.601" y="479.5" type="line" smooth="yes"/>
      <point x="583.601" y="497.69"/>
      <point x="566.684" y="509.5"/>
      <point x="548.001" y="509.5" type="curve" smooth="yes"/>
      <point x="226.001" y="509.5" type="line" smooth="yes"/>
      <point x="196.158" y="509.5"/>
      <point x="183.001" y="518.271"/>
      <point x="183.001" y="550.5" type="curve" smooth="yes"/>
      <point x="183.001" y="618" type="line" smooth="yes"/>
      <point x="183.001" y="654.859"/>
      <point x="196.411" y="672"/>
      <point x="233.001" y="672" type="curve" smooth="yes"/>
      <point x="571.001" y="672" type="line" smooth="yes"/>
      <point x="607.589" y="672"/>
      <point x="621.001" y="654.858"/>
      <point x="621.001" y="618" type="curve" smooth="yes"/>
      <point x="621.001" y="570" type="line" smooth="yes"/>
      <point x="621.001" y="547.838"/>
      <point x="611.688" y="532.87"/>
      <point x="594.001" y="528" type="curve"/>
      <point x="615.912" y="521.152"/>
      <point x="621.001" y="504.274"/>
      <point x="621.001" y="475" type="curve" smooth="yes"/>
      <point x="621.001" y="405" type="line"/>
    </contour>
    <contour>
      <point x="433.001" y="539" type="line"/>
      <point x="421.919" y="542.512"/>
      <point x="415.001" y="550.292"/>
      <point x="415.001" y="567" type="curve" smooth="yes"/>
      <point x="415.001" y="621" type="line" smooth="yes"/>
      <point x="415.001" y="633.107"/>
      <point x="421.502" y="638.25"/>
      <point x="425.001" y="640" type="curve"/>
      <point x="424.854" y="640"/>
      <point x="236.876" y="640"/>
      <point x="236.876" y="640" type="curve" smooth="yes"/>
      <point x="225.543" y="640"/>
      <point x="219.876" y="635.333"/>
      <point x="219.876" y="626" type="curve" smooth="yes"/>
      <point x="219.876" y="554" type="line" smooth="yes"/>
      <point x="219.876" y="544"/>
      <point x="225.209" y="539"/>
      <point x="235.876" y="539" type="curve" smooth="yes"/>
    </contour>
    <contour>
      <point x="476.001" y="640" type="line" smooth="yes"/>
      <point x="460.451" y="640"/>
      <point x="452.001" y="630.698"/>
      <point x="452.001" y="616" type="curve" smooth="yes"/>
      <point x="452.001" y="570.5" type="line" smooth="yes"/>
      <point x="452.001" y="551.602"/>
      <point x="468.268" y="545.5"/>
      <point x="485.501" y="545.5" type="curve" smooth="yes"/>
      <point x="548.001" y="545.5" type="line" smooth="yes"/>
      <point x="564.346" y="545.5"/>
      <point x="584.001" y="550.393"/>
      <point x="584.001" y="577" type="curve" smooth="yes"/>
      <point x="584.001" y="627.5" type="line" smooth="yes"/>
      <point x="584.001" y="636.697"/>
      <point x="576.694" y="640"/>
      <point x="569.501" y="640" type="curve" smooth="yes"/>
    </contour>
    <contour>
      <point x="620.975" y="428" type="line"/>
      <point x="620.975" y="50" type="line" smooth="yes"/>
      <point x="620.975" y="19.6377"/>
      <point x="607.373" y="0"/>
      <point x="573.977" y="0" type="curve" smooth="yes"/>
      <point x="449.791" y="0" type="line" smooth="yes"/>
      <point x="423.791" y="0"/>
      <point x="407.457" y="12.333"/>
      <point x="400.791" y="37" type="curve"/>
      <point x="397.617" y="16.3779"/>
      <point x="377.061" y="0"/>
      <point x="353.791" y="0" type="curve" smooth="yes"/>
      <point x="229" y="0" type="line" smooth="yes"/>
      <point x="197.609" y="0"/>
      <point x="182" y="15.0176"/>
      <point x="182" y="48" type="curve" smooth="yes"/>
      <point x="182" y="345.003" type="line" smooth="yes"/>
      <point x="182" y="383.558"/>
      <point x="200.021" y="410.003"/>
      <point x="241" y="410.003" type="curve" smooth="yes"/>
      <point x="407.186" y="410.003" type="line"/>
      <point x="407.187" y="377.805" type="line"/>
      <point x="253" y="377.805" type="line" smooth="yes"/>
      <point x="226.387" y="377.805"/>
      <point x="219" y="363.44"/>
      <point x="219" y="342.003" type="curve" smooth="yes"/>
      <point x="219" y="58" type="line" smooth="yes"/>
      <point x="219" y="42.2285"/>
      <point x="222.956" y="32"/>
      <point x="242" y="32" type="curve" smooth="yes"/>
      <point x="335.988" y="32" type="line" smooth="yes"/>
      <point x="375.117" y="32"/>
      <point x="381.988" y="65.5215"/>
      <point x="381.988" y="100.802" type="curve" smooth="yes"/>
      <point x="381.988" y="229" type="line"/>
      <point x="419.188" y="229" type="line"/>
      <point x="419.188" y="101" type="line" smooth="yes"/>
      <point x="419.188" y="66.165"/>
      <point x="428.267" y="32"/>
      <point x="469.988" y="32" type="curve" smooth="yes"/>
      <point x="561.977" y="32" type="line" smooth="yes"/>
      <point x="578.903" y="32"/>
      <point x="583.582" y="43.6895"/>
      <point x="583.582" y="60" type="curve" smooth="yes"/>
      <point x="583.582" y="428" type="line"/>
    </contour>
    <contour>
      <point x="116.602" y="378.002" type="line" smooth="yes"/>
      <point x="76.8906" y="378.002"/>
      <point x="59" y="365.742"/>
      <point x="59" y="325.002" type="curve" smooth="yes"/>
      <point x="59" y="0" type="line"/>
      <point x="22" y="0" type="line"/>
      <point x="22" y="337.002" type="line" smooth="yes"/>
      <point x="22" y="389.168"/>
      <point x="58.8516" y="410.002"/>
      <point x="105.4" y="410.002" type="curve" smooth="yes"/>
      <point x="281.614" y="410.002" type="line"/>
      <point x="211.614" y="378.002" type="line"/>
    </contour>
  </outline>
</glyph>
<glyph name="si_DIi" format="1">
  <advance width="460"/>
  <outline>
    <contour>
      <point x="245" y="608" type="line" smooth="yes"/>
      <point x="235" y="608"/>
      <point x="230" y="604"/>
      <point x="230" y="596" type="curve" smooth="yes"/>
      <point x="230" y="556" type="line" smooth="yes"/>
      <point x="230" y="547.333"/>
      <point x="231.333" y="543"/>
      <point x="242" y="543" type="curve" smooth="yes"/>
      <point x="355.808" y="543" type="line" smooth="yes"/>
      <point x="366.475" y="543"/>
      <point x="367.808" y="547.667"/>
      <point x="367.808" y="557" type="curve" smooth="yes"/>
      <point x="367.808" y="592.196" type="line" smooth="yes"/>
      <point x="367.808" y="602.605"/>
      <point x="362.141" y="608"/>
      <point x="350.808" y="608" type="curve" smooth="yes"/>
    </contour>
    <contour>
      <point x="77.6006" y="608.008" type="line" smooth="yes"/>
      <point x="68" y="607"/>
      <point x="59" y="602"/>
      <point x="59" y="590" type="curve" smooth="yes"/>
      <point x="59" y="511" type="line"/>
      <point x="22.1943" y="511" type="line"/>
      <point x="22.1943" y="595.803" type="line" smooth="yes"/>
      <point x="22.1943" y="625.797"/>
      <point x="39.8057" y="640.011"/>
      <point x="67" y="640.011" type="curve" smooth="yes"/>
      <point x="362.607" y="640.012" type="line" smooth="yes"/>
      <point x="390.407" y="640.012"/>
      <point x="404.807" y="626.66"/>
      <point x="404.807" y="600" type="curve" smooth="yes"/>
      <point x="404.807" y="540.996" type="line" smooth="yes"/>
      <point x="404.807" y="521"/>
      <point x="394.805" y="510.996"/>
      <point x="374.807" y="510.996" type="curve" smooth="yes"/>
      <point x="220.597" y="510.994" type="line" smooth="yes"/>
      <point x="197.321" y="510.994"/>
      <point x="192.797" y="521.302"/>
      <point x="192.797" y="537" type="curve" smooth="yes"/>
      <point x="192.797" y="600" type="line" smooth="yes"/>
      <point x="192.797" y="604.531"/>
      <point x="193.614" y="607.009"/>
      <point x="195.196" y="608" type="curve"/>
    </contour>
    <component base="si_Da"/>
  </outline>
</glyph>
<glyph name="si_DR.halant" format="1">
  <advance width="458"/>
  <outline>
    <contour>
      <point x="22.1943" y="-21" type="line"/>
      <point x="59" y="-21" type="line"/>
      <point x="59" y="-98" type="line" smooth="yes"/>
      <point x="59" y="-110"/>
      <point x="64.0898" y="-118.006"/>
      <point x="77.2041" y="-118.006" type="curve" smooth="yes"/>
      <point x="351.003" y="-118.006" type="line" smooth="yes"/>
      <point x="365.837" y="-118.006"/>
      <point x="371.002" y="-109.877"/>
      <point x="371.002" y="-97" type="curve" smooth="yes"/>
      <point x="371.002" y="5" type="line"/>
      <point x="408.003" y="5" type="line"/>
      <point x="408.003" y="-107" type="line" smooth="yes"/>
      <point x="408.003" y="-138.563"/>
      <point x="392.336" y="-150"/>
      <point x="367.003" y="-150" type="curve" smooth="yes"/>
      <point x="66.1943" y="-150" type="line" smooth="yes"/>
      <point x="39.1104" y="-150"/>
      <point x="22.1943" y="-135.797"/>
      <point x="22.1943" y="-105.803" type="curve" smooth="yes"/>
    </contour>
    <contour>
      <point x="408" y="0.000976562" type="line"/>
      <point x="66.2002" y="0" type="line" smooth="yes"/>
      <point x="32.2002" y="-0"/>
      <point x="22" y="17.9258"/>
      <point x="22" y="49.5996" type="curve" smooth="yes"/>
      <point x="22" y="295.998" type="line" smooth="yes"/>
      <point x="22" y="336.654"/>
      <point x="43.1064" y="352.998"/>
      <point x="80" y="352.998" type="curve" smooth="yes"/>
      <point x="366.796" y="352.998" type="line"/>
      <point x="366.795" y="436" type="line" smooth="yes"/>
      <point x="366.795" y="457.285"/>
      <point x="358.271" y="465"/>
      <point x="340" y="465" type="curve" smooth="yes"/>
      <point x="22" y="465" type="line"/>
      <point x="22" y="497.001" type="line"/>
      <point x="351" y="497" type="line" smooth="yes"/>
      <point x="384.564" y="497"/>
      <point x="404" y="480.913"/>
      <point x="404" y="444" type="curve" smooth="yes"/>
      <point x="404" y="321.001" type="line"/>
      <point x="91" y="321" type="line" smooth="yes"/>
      <point x="66.6045" y="321"/>
      <point x="59" y="311.276"/>
      <point x="59" y="290" type="curve" smooth="yes"/>
      <point x="59" y="58.001" type="line" smooth="yes"/>
      <point x="59" y="38.1592"/>
      <point x="67.0479" y="32"/>
      <point x="82.2002" y="32" type="curve" smooth="yes"/>
      <point x="408" y="32.001" type="line"/>
    </contour>
    <component base="si_Halant" xOffset="448.6"/>
  </outline>
</glyph>
<glyph name="si_DU" format="1">
  <advance width="458"/>
  <outline>
    <contour>
      <point x="408.002" y="-159.001" type="line"/>
      <point x="22.002" y="-159.001" type="line"/>
      <point x="22.001" y="-126.811" type="line"/>
      <point x="371.009" y="-126.811" type="line"/>
      <point x="371.009" y="10" type="line"/>
      <point x="408.002" y="10" type="line"/>
    </contour>
    <contour>
      <point x="408" y="0.000976562" type="line"/>
      <point x="66.2002" y="0" type="line" smooth="yes"/>
      <point x="32.2002" y="-0"/>
      <point x="22" y="17.9258"/>
      <point x="22" y="49.5996" type="curve" smooth="yes"/>
      <point x="22" y="295.998" type="line" smooth="yes"/>
      <point x="22" y="336.654"/>
      <point x="43.1064" y="352.998"/>
      <point x="80" y="352.998" type="curve" smooth="yes"/>
      <point x="366.796" y="352.998" type="line"/>
      <point x="366.795" y="436" type="line" smooth="yes"/>
      <point x="366.795" y="457.285"/>
      <point x="358.271" y="465"/>
      <point x="340" y="465" type="curve" smooth="yes"/>
      <point x="22" y="465" type="line"/>
      <point x="22" y="497.001" type="line"/>
      <point x="351" y="497" type="line" smooth="yes"/>
      <point x="384.564" y="497"/>
      <point x="404" y="480.913"/>
      <point x="404" y="444" type="curve" smooth="yes"/>
      <point x="404" y="321.001" type="line"/>
      <point x="91" y="321" type="line" smooth="yes"/>
      <point x="66.6045" y="321"/>
      <point x="59" y="311.276"/>
      <point x="59" y="290" type="curve" smooth="yes"/>
      <point x="59" y="58.001" type="line" smooth="yes"/>
      <point x="59" y="38.1592"/>
      <point x="67.0479" y="32"/>
      <point x="82.2002" y="32" type="curve" smooth="yes"/>
      <point x="408" y="32.001" type="line"/>
    </contour>
  </outline>
</glyph>
<glyph name="si_DUu" format="1">
  <advance width="458"/>
  <outline>
    <contour>
      <point x="408.005" y="-158.999" type="line"/>
      <point x="377.203" y="-158.999" type="line"/>
      <point x="372.003" y="-149.728"/>
      <point x="360.535" y="-138.132"/>
      <point x="352.807" y="-132.798" type="curve" smooth="yes"/>
      <point x="342.636" y="-125.778"/>
      <point x="324.613" y="-119.993"/>
      <point x="305.803" y="-119.993" type="curve"/>
      <point x="279" y="-119.993" type="line"/>
      <point x="261.342" y="-119.993"/>
      <point x="240.84" y="-127.5"/>
      <point x="228.411" y="-132.599" type="curve"/>
      <point x="180.803" y="-152.402" type="line"/>
      <point x="165.131" y="-158.382"/>
      <point x="136.317" y="-162.805"/>
      <point x="102.006" y="-162.805" type="curve" smooth="yes"/>
      <point x="70" y="-162.805" type="line" smooth="yes"/>
      <point x="37.5859" y="-162.805"/>
      <point x="21.999" y="-150.575"/>
      <point x="21.999" y="-122.002" type="curve" smooth="yes"/>
      <point x="21.999" y="-29.0029" type="line"/>
      <point x="58.7969" y="-29.0029" type="line"/>
      <point x="58.7969" y="-112.604" type="line" smooth="yes"/>
      <point x="58.7969" y="-123.889"/>
      <point x="63.665" y="-130.605"/>
      <point x="75.6016" y="-130.605" type="curve" smooth="yes"/>
      <point x="107.8" y="-130.605" type="line" smooth="yes"/>
      <point x="128.769" y="-130.605"/>
      <point x="154.596" y="-127.924"/>
      <point x="178" y="-119.002" type="curve"/>
      <point x="217.206" y="-103.399" type="line"/>
      <point x="230.172" y="-98.0723"/>
      <point x="254.6" y="-91.5957"/>
      <point x="276.796" y="-91.5957" type="curve"/>
      <point x="310.014" y="-91.5957" type="line"/>
      <point x="331.706" y="-91.5957"/>
      <point x="351.151" y="-97.3721"/>
      <point x="359.413" y="-102.801" type="curve" smooth="yes"/>
      <point x="365.367" y="-106.713"/>
      <point x="366.054" y="-107.64"/>
      <point x="370.801" y="-112.4" type="curve"/>
      <point x="370.801" y="4" type="line"/>
      <point x="383.999" y="4" type="line" smooth="yes"/>
      <point x="389.567" y="4"/>
      <point x="403.107" y="4.59473"/>
      <point x="408.005" y="17" type="curve"/>
    </contour>
    <contour>
      <point x="408" y="0.000976562" type="line"/>
      <point x="66.2002" y="0" type="line" smooth="yes"/>
      <point x="32.2002" y="-0"/>
      <point x="22" y="17.9258"/>
      <point x="22" y="49.5996" type="curve" smooth="yes"/>
      <point x="22" y="295.998" type="line" smooth="yes"/>
      <point x="22" y="336.654"/>
      <point x="43.1064" y="352.998"/>
      <point x="80" y="352.998" type="curve" smooth="yes"/>
      <point x="366.796" y="352.998" type="line"/>
      <point x="366.795" y="436" type="line" smooth="yes"/>
      <point x="366.795" y="457.285"/>
      <point x="358.271" y="465"/>
      <point x="340" y="465" type="curve" smooth="yes"/>
      <point x="22" y="465" type="line"/>
      <point x="22" y="497.001" type="line"/>
      <point x="351" y="497" type="line" smooth="yes"/>
      <point x="384.564" y="497"/>
      <point x="404" y="480.913"/>
      <point x="404" y="444" type="curve" smooth="yes"/>
      <point x="404" y="321.001" type="line"/>
      <point x="91" y="321" type="line" smooth="yes"/>
      <point x="66.6045" y="321"/>
      <point x="59" y="311.276"/>
      <point x="59" y="290" type="curve" smooth="yes"/>
      <point x="59" y="58.001" type="line" smooth="yes"/>
      <point x="59" y="38.1592"/>
      <point x="67.0479" y="32"/>
      <point x="82.2002" y="32" type="curve" smooth="yes"/>
      <point x="408" y="32.001" type="line"/>
    </contour>
  </outline>
</glyph>
<glyph name="si_DV.halant" format="1">
  <advance width="675"/>
  <outline>
    <contour>
      <point x="116.602" y="379.998" type="line" smooth="yes"/>
      <point x="76.8906" y="379.998"/>
      <point x="59" y="367.738"/>
      <point x="59" y="326.998" type="curve" smooth="yes"/>
      <point x="59" y="0" type="line"/>
      <point x="22" y="0" type="line"/>
      <point x="22" y="338.998" type="line" smooth="yes"/>
      <point x="22" y="391.164"/>
      <point x="58.8516" y="411.998"/>
      <point x="105.4" y="411.998" type="curve" smooth="yes"/>
      <point x="281.614" y="411.998" type="line"/>
      <point x="211.614" y="379.998" type="line"/>
    </contour>
    <component base="si_V.halant" xOffset="166"/>
  </outline>
</glyph>
<glyph name="si_Dh.halant" format="1">
  <advance width="515"/>
  <outline>
    <contour>
      <point x="461.001" y="400" type="line"/>
      <point x="423.601" y="400" type="line"/>
      <point x="423.601" y="465" type="line" smooth="yes"/>
      <point x="423.601" y="505.98"/>
      <point x="411.365" y="518"/>
      <point x="376.001" y="518" type="curve" smooth="yes"/>
      <point x="15.001" y="518" type="line"/>
      <point x="15.001" y="550" type="line"/>
      <point x="83.001" y="550" type="line"/>
      <point x="53.668" y="557.333"/>
      <point x="51.001" y="582.667"/>
      <point x="51.001" y="604" type="curve" smooth="yes"/>
      <point x="51.001" y="632" type="line" smooth="yes"/>
      <point x="51.001" y="659.333"/>
      <point x="67.334" y="673"/>
      <point x="100.001" y="673" type="curve" smooth="yes"/>
      <point x="459.001" y="673" type="line"/>
      <point x="459.001" y="641" type="line"/>
      <point x="103.501" y="641" type="line" smooth="yes"/>
      <point x="88.5322" y="641"/>
      <point x="88.001" y="633.667"/>
      <point x="88.001" y="616" type="curve" smooth="yes"/>
      <point x="88.001" y="573.678"/>
      <point x="98.3984" y="550"/>
      <point x="169.001" y="550" type="curve" smooth="yes"/>
      <point x="384.001" y="550" type="line" smooth="yes"/>
      <point x="444.38" y="550"/>
      <point x="461.001" y="528.468"/>
      <point x="461.001" y="469" type="curve" smooth="yes"/>
    </contour>
    <contour>
      <point x="460.975" y="428" type="line"/>
      <point x="460.975" y="50" type="line" smooth="yes"/>
      <point x="460.975" y="19.6377"/>
      <point x="447.373" y="0"/>
      <point x="413.977" y="0" type="curve" smooth="yes"/>
      <point x="289.791" y="0" type="line" smooth="yes"/>
      <point x="263.791" y="0"/>
      <point x="247.457" y="12.333"/>
      <point x="240.791" y="37" type="curve"/>
      <point x="237.617" y="16.3779"/>
      <point x="217.061" y="0"/>
      <point x="193.791" y="0" type="curve" smooth="yes"/>
      <point x="69" y="0" type="line" smooth="yes"/>
      <point x="37.6096" y="0"/>
      <point x="22" y="15.0176"/>
      <point x="22" y="48" type="curve" smooth="yes"/>
      <point x="22" y="345.003" type="line" smooth="yes"/>
      <point x="22" y="383.558"/>
      <point x="40.0205" y="410.003"/>
      <point x="81" y="410.003" type="curve" smooth="yes"/>
      <point x="247.186" y="410.003" type="line"/>
      <point x="247.187" y="377.805" type="line"/>
      <point x="93" y="377.805" type="line" smooth="yes"/>
      <point x="66.3867" y="377.805"/>
      <point x="59" y="363.44"/>
      <point x="59" y="342.003" type="curve" smooth="yes"/>
      <point x="59" y="58" type="line" smooth="yes"/>
      <point x="59" y="42.2284"/>
      <point x="62.9558" y="32"/>
      <point x="82" y="32" type="curve" smooth="yes"/>
      <point x="175.988" y="32" type="line" smooth="yes"/>
      <point x="215.117" y="32"/>
      <point x="221.988" y="65.5214"/>
      <point x="221.988" y="100.802" type="curve" smooth="yes"/>
      <point x="221.988" y="229" type="line"/>
      <point x="259.188" y="229" type="line"/>
      <point x="259.188" y="101" type="line" smooth="yes"/>
      <point x="259.188" y="66.1649"/>
      <point x="268.267" y="32"/>
      <point x="309.988" y="32" type="curve" smooth="yes"/>
      <point x="401.977" y="32" type="line" smooth="yes"/>
      <point x="418.903" y="32"/>
      <point x="423.582" y="43.6895"/>
      <point x="423.582" y="60" type="curve" smooth="yes"/>
      <point x="423.582" y="428" type="line"/>
    </contour>
  </outline>
</glyph>
<glyph name="si_DhIi" format="1">
  <advance width="515"/>
  <outline>
    <contour>
      <point x="423.601" y="405" type="line"/>
      <point x="423.601" y="479.5" type="line" smooth="yes"/>
      <point x="423.601" y="497.69"/>
      <point x="406.684" y="509.5"/>
      <point x="388.001" y="509.5" type="curve" smooth="yes"/>
      <point x="66.001" y="509.5" type="line" smooth="yes"/>
      <point x="36.1582" y="509.5"/>
      <point x="23.001" y="518.271"/>
      <point x="23.001" y="550.5" type="curve" smooth="yes"/>
      <point x="23.001" y="618" type="line" smooth="yes"/>
      <point x="23.001" y="654.859"/>
      <point x="36.4111" y="672"/>
      <point x="73.001" y="672" type="curve" smooth="yes"/>
      <point x="411.001" y="672" type="line" smooth="yes"/>
      <point x="447.589" y="672"/>
      <point x="461.001" y="654.858"/>
      <point x="461.001" y="618" type="curve" smooth="yes"/>
      <point x="461.001" y="570" type="line" smooth="yes"/>
      <point x="461.001" y="547.838"/>
      <point x="451.688" y="532.87"/>
      <point x="434.001" y="528" type="curve"/>
      <point x="455.912" y="521.152"/>
      <point x="461.001" y="504.274"/>
      <point x="461.001" y="475" type="curve" smooth="yes"/>
      <point x="461.001" y="405" type="line"/>
    </contour>
    <contour>
      <point x="273.001" y="539" type="line"/>
      <point x="261.919" y="542.512"/>
      <point x="255.001" y="550.292"/>
      <point x="255.001" y="567" type="curve" smooth="yes"/>
      <point x="255.001" y="621" type="line" smooth="yes"/>
      <point x="255.001" y="633.107"/>
      <point x="261.502" y="638.25"/>
      <point x="265.001" y="640" type="curve"/>
      <point x="264.854" y="640"/>
      <point x="76.876" y="640"/>
      <point x="76.876" y="640" type="curve" smooth="yes"/>
      <point x="65.543" y="640"/>
      <point x="59.876" y="635.333"/>
      <point x="59.876" y="626" type="curve" smooth="yes"/>
      <point x="59.876" y="554" type="line" smooth="yes"/>
      <point x="59.876" y="544"/>
      <point x="65.209" y="539"/>
      <point x="75.876" y="539" type="curve" smooth="yes"/>
    </contour>
    <contour>
      <point x="316.001" y="640" type="line" smooth="yes"/>
      <point x="300.451" y="640"/>
      <point x="292.001" y="630.698"/>
      <point x="292.001" y="616" type="curve" smooth="yes"/>
      <point x="292.001" y="570.5" type="line" smooth="yes"/>
      <point x="292.001" y="551.602"/>
      <point x="308.268" y="545.5"/>
      <point x="325.501" y="545.5" type="curve" smooth="yes"/>
      <point x="388.001" y="545.5" type="line" smooth="yes"/>
      <point x="404.346" y="545.5"/>
      <point x="424.001" y="550.393"/>
      <point x="424.001" y="577" type="curve" smooth="yes"/>
      <point x="424.001" y="627.5" type="line" smooth="yes"/>
      <point x="424.001" y="636.697"/>
      <point x="416.694" y="640"/>
      <point x="409.501" y="640" type="curve" smooth="yes"/>
    </contour>
    <contour>
      <point x="460.975" y="428" type="line"/>
      <point x="460.975" y="50" type="line" smooth="yes"/>
      <point x="460.975" y="19.6377"/>
      <point x="447.373" y="0"/>
      <point x="413.977" y="0" type="curve" smooth="yes"/>
      <point x="289.791" y="0" type="line" smooth="yes"/>
      <point x="263.791" y="0"/>
      <point x="247.457" y="12.333"/>
      <point x="240.791" y="37" type="curve"/>
      <point x="237.617" y="16.3779"/>
      <point x="217.061" y="0"/>
      <point x="193.791" y="0" type="curve" smooth="yes"/>
      <point x="69" y="0" type="line" smooth="yes"/>
      <point x="37.6096" y="0"/>
      <point x="22" y="15.0176"/>
      <point x="22" y="48" type="curve" smooth="yes"/>
      <point x="22" y="345.003" type="line" smooth="yes"/>
      <point x="22" y="383.558"/>
      <point x="40.0205" y="410.003"/>
      <point x="81" y="410.003" type="curve" smooth="yes"/>
      <point x="247.186" y="410.003" type="line"/>
      <point x="247.187" y="377.805" type="line"/>
      <point x="93" y="377.805" type="line" smooth="yes"/>
      <point x="66.3867" y="377.805"/>
      <point x="59" y="363.44"/>
      <point x="59" y="342.003" type="curve" smooth="yes"/>
      <point x="59" y="58" type="line" smooth="yes"/>
      <point x="59" y="42.2284"/>
      <point x="62.9558" y="32"/>
      <point x="82" y="32" type="curve" smooth="yes"/>
      <point x="175.988" y="32" type="line" smooth="yes"/>
      <point x="215.117" y="32"/>
      <point x="221.988" y="65.5214"/>
      <point x="221.988" y="100.802" type="curve" smooth="yes"/>
      <point x="221.988" y="229" type="line"/>
      <point x="259.188" y="229" type="line"/>
      <point x="259.188" y="101" type="line" smooth="yes"/>
      <point x="259.188" y="66.1649"/>
      <point x="268.267" y="32"/>
      <point x="309.988" y="32" type="curve" smooth="yes"/>
      <point x="401.977" y="32" type="line" smooth="yes"/>
      <point x="418.903" y="32"/>
      <point x="423.582" y="43.6895"/>
      <point x="423.582" y="60" type="curve" smooth="yes"/>
      <point x="423.582" y="428" type="line"/>
    </contour>
  </outline>
</glyph>
<glyph name="si_Dha.reph" format="1">
  <advance width="515"/>
  <outline>
    <contour>
      <point x="247.187" y="464.8" type="line"/>
      <point x="93" y="464.8" type="line" smooth="yes"/>
      <point x="66.3867" y="464.8"/>
      <point x="59" y="450.436"/>
      <point x="59" y="428.998" type="curve" smooth="yes"/>
      <point x="59" y="58" type="line" smooth="yes"/>
      <point x="59" y="42.2285"/>
      <point x="62.9561" y="32"/>
      <point x="82" y="32" type="curve" smooth="yes"/>
      <point x="175.988" y="32" type="line" smooth="yes"/>
      <point x="215.117" y="32"/>
      <point x="221.988" y="65.5156"/>
      <point x="221.988" y="100.802" type="curve" smooth="yes"/>
      <point x="221.988" y="244.796" type="line"/>
      <point x="259.188" y="244.796" type="line"/>
      <point x="259.188" y="101" type="line" smooth="yes"/>
      <point x="259.188" y="66.1592"/>
      <point x="268.267" y="32"/>
      <point x="309.988" y="32" type="curve" smooth="yes"/>
      <point x="401.977" y="32" type="line" smooth="yes"/>
      <point x="418.903" y="32"/>
      <point x="423.582" y="43.6895"/>
      <point x="423.582" y="60" type="curve" smooth="yes"/>
      <point x="423.582" y="554" type="line" smooth="yes"/>
      <point x="423.582" y="587.453"/>
      <point x="408.387" y="594.6"/>
      <point x="379.977" y="594.6" type="curve" smooth="yes"/>
      <point x="22.001" y="594.6" type="line"/>
      <point x="22.001" y="626" type="line"/>
      <point x="387.977" y="626" type="line" smooth="yes"/>
      <point x="430.285" y="626"/>
      <point x="460.975" y="609.264"/>
      <point x="460.975" y="560" type="curve" smooth="yes"/>
      <point x="460.975" y="50" type="line" smooth="yes"/>
      <point x="460.975" y="19.6377"/>
      <point x="447.373" y="0"/>
      <point x="413.977" y="0" type="curve" smooth="yes"/>
      <point x="289.791" y="0" type="line" smooth="yes"/>
      <point x="263.791" y="0"/>
      <point x="247.457" y="12.333"/>
      <point x="240.791" y="37" type="curve"/>
      <point x="237.617" y="16.3779"/>
      <point x="217.061" y="0"/>
      <point x="193.791" y="0" type="curve" smooth="yes"/>
      <point x="69" y="0" type="line" smooth="yes"/>
      <point x="37.6094" y="0"/>
      <point x="22" y="15.0176"/>
      <point x="22" y="48" type="curve" smooth="yes"/>
      <point x="22" y="431.998" type="line" smooth="yes"/>
      <point x="22" y="470.553"/>
      <point x="40.0205" y="496.998"/>
      <point x="81" y="496.998" type="curve" smooth="yes"/>
      <point x="247.186" y="496.998" type="line"/>
    </contour>
    <contour>
      <point x="208.997" y="659.598" type="line"/>
      <point x="247" y="659.598" type="line"/>
      <point x="247" y="566" type="line" smooth="yes"/>
      <point x="247" y="538.822"/>
      <point x="235.509" y="529"/>
      <point x="216" y="529" type="curve" smooth="yes"/>
      <point x="116.606" y="529" type="line" smooth="yes"/>
      <point x="90.1426" y="529"/>
      <point x="76.6064" y="542.896"/>
      <point x="76.6064" y="575" type="curve" smooth="yes"/>
      <point x="76.6064" y="668.207" type="line" smooth="yes"/>
      <point x="76.6064" y="696.944"/>
      <point x="93.8555" y="716.207"/>
      <point x="130.606" y="716.207" type="curve" smooth="yes"/>
      <point x="322" y="716.207" type="line" smooth="yes"/>
      <point x="355.445" y="716.207"/>
      <point x="373" y="699.386"/>
      <point x="373" y="660.207" type="curve" smooth="yes"/>
      <point x="373" y="533.603" type="line"/>
      <point x="336.002" y="533.603" type="line"/>
      <point x="336.002" y="655.806" type="line" smooth="yes"/>
      <point x="336.002" y="675.583"/>
      <point x="329.771" y="684.204"/>
      <point x="316" y="684.204" type="curve" smooth="yes"/>
      <point x="135.606" y="684.204" type="line" smooth="yes"/>
      <point x="123.006" y="684.204"/>
      <point x="113.614" y="677.9"/>
      <point x="113.614" y="662.806" type="curve" smooth="yes"/>
      <point x="113.614" y="580.599" type="line" smooth="yes"/>
      <point x="113.614" y="567.926"/>
      <point x="116.859" y="560.391"/>
      <point x="128.606" y="560.391" type="curve" smooth="yes"/>
      <point x="196.206" y="560.391" type="line" smooth="yes"/>
      <point x="207.471" y="560.391"/>
      <point x="208.997" y="565.724"/>
      <point x="208.997" y="576.391" type="curve" smooth="yes"/>
    </contour>
  </outline>
</glyph>
<glyph name="si_FIi" format="1">
  <advance width="564"/>
  <outline>
    <contour>
      <point x="324.001" y="608" type="line" smooth="yes"/>
      <point x="314.001" y="608"/>
      <point x="309.001" y="604"/>
      <point x="309.001" y="596" type="curve" smooth="yes"/>
      <point x="309.001" y="567.009" type="line" smooth="yes"/>
      <point x="309.001" y="558.342"/>
      <point x="310.334" y="554.009"/>
      <point x="321.001" y="554.009" type="curve" smooth="yes"/>
      <point x="459.001" y="554.009" type="line" smooth="yes"/>
      <point x="469.668" y="554.009"/>
      <point x="471.001" y="558.676"/>
      <point x="471.001" y="568.009" type="curve" smooth="yes"/>
      <point x="471.001" y="592.196" type="line" smooth="yes"/>
      <point x="471.001" y="602.605"/>
      <point x="465.334" y="608"/>
      <point x="454.001" y="608" type="curve" smooth="yes"/>
    </contour>
    <contour>
      <point x="79.4072" y="608.008" type="line" smooth="yes"/>
      <point x="67.96" y="608.008"/>
      <point x="60.0059" y="602"/>
      <point x="60.0059" y="590" type="curve" smooth="yes"/>
      <point x="60.0059" y="511" type="line"/>
      <point x="23.2002" y="511" type="line"/>
      <point x="23.2002" y="595.803" type="line" smooth="yes"/>
      <point x="23.2002" y="625.797"/>
      <point x="40.8115" y="640.011"/>
      <point x="68.0059" y="640.011" type="curve" smooth="yes"/>
      <point x="466.001" y="640.012" type="line" smooth="yes"/>
      <point x="493.801" y="640.012"/>
      <point x="508" y="626.66"/>
      <point x="508" y="600" type="curve" smooth="yes"/>
      <point x="508" y="552.005" type="line" smooth="yes"/>
      <point x="508" y="532.009"/>
      <point x="497.998" y="522.005"/>
      <point x="478" y="522.005" type="curve" smooth="yes"/>
      <point x="299.598" y="522.003" type="line" smooth="yes"/>
      <point x="276.322" y="522.003"/>
      <point x="271.798" y="532.311"/>
      <point x="271.798" y="548.009" type="curve" smooth="yes"/>
      <point x="271.798" y="600" type="line" smooth="yes"/>
      <point x="271.798" y="604.531"/>
      <point x="272.615" y="607.009"/>
      <point x="274.197" y="608" type="curve"/>
    </contour>
    <component base="si_Fa"/>
  </outline>
</glyph>
<glyph name="si_FRIi" format="1">
  <advance width="564"/>
  <outline>
    <contour>
      <point x="23.1924" y="-21" type="line"/>
      <point x="59.998" y="-21" type="line"/>
      <point x="59.998" y="-98" type="line" smooth="yes"/>
      <point x="59.998" y="-110"/>
      <point x="65.0879" y="-118.006"/>
      <point x="78.2021" y="-118.006" type="curve" smooth="yes"/>
      <point x="453" y="-118.006" type="line" smooth="yes"/>
      <point x="467.834" y="-118.006"/>
      <point x="472.999" y="-109.878"/>
      <point x="472.999" y="-97" type="curve" smooth="yes"/>
      <point x="472.999" y="-21" type="line"/>
      <point x="510" y="-21" type="line"/>
      <point x="510" y="-107" type="line" smooth="yes"/>
      <point x="510" y="-138.565"/>
      <point x="494.333" y="-150"/>
      <point x="469" y="-150" type="curve" smooth="yes"/>
      <point x="67.1924" y="-150" type="line" smooth="yes"/>
      <point x="40.1084" y="-150"/>
      <point x="23.1924" y="-135.797"/>
      <point x="23.1924" y="-105.803" type="curve" smooth="yes"/>
    </contour>
    <component base="si_FIi"/>
  </outline>
</glyph>
<glyph name="si_FUu" format="1">
  <advance width="564"/>
  <outline>
    <contour>
      <point x="511.001" y="-158.999" type="line"/>
      <point x="480.199" y="-158.999" type="line"/>
      <point x="474.999" y="-149.728"/>
      <point x="463.531" y="-138.132"/>
      <point x="455.803" y="-132.798" type="curve" smooth="yes"/>
      <point x="445.632" y="-125.778"/>
      <point x="427.609" y="-119.993"/>
      <point x="408.799" y="-119.993" type="curve"/>
      <point x="333.001" y="-119.993" type="line"/>
      <point x="315.343" y="-119.993"/>
      <point x="294.841" y="-127.5"/>
      <point x="282.412" y="-132.599" type="curve"/>
      <point x="234.804" y="-152.402" type="line"/>
      <point x="219.132" y="-158.382"/>
      <point x="190.318" y="-162.805"/>
      <point x="156.007" y="-162.805" type="curve" smooth="yes"/>
      <point x="71.2041" y="-162.805" type="line" smooth="yes"/>
      <point x="38.79" y="-162.805"/>
      <point x="23.2031" y="-150.575"/>
      <point x="23.2031" y="-122.002" type="curve" smooth="yes"/>
      <point x="23.2031" y="-29.0029" type="line"/>
      <point x="60.001" y="-29.0029" type="line"/>
      <point x="60.001" y="-112.604" type="line" smooth="yes"/>
      <point x="60.001" y="-123.889"/>
      <point x="64.8691" y="-130.605"/>
      <point x="76.8057" y="-130.605" type="curve" smooth="yes"/>
      <point x="161.801" y="-130.605" type="line" smooth="yes"/>
      <point x="182.77" y="-130.605"/>
      <point x="208.597" y="-127.924"/>
      <point x="232.001" y="-119.002" type="curve"/>
      <point x="271.207" y="-103.399" type="line"/>
      <point x="284.173" y="-98.0723"/>
      <point x="308.601" y="-91.5957"/>
      <point x="330.797" y="-91.5957" type="curve"/>
      <point x="413.01" y="-91.5957" type="line"/>
      <point x="434.702" y="-91.5957"/>
      <point x="454.147" y="-97.3721"/>
      <point x="462.409" y="-102.801" type="curve" smooth="yes"/>
      <point x="468.363" y="-106.713"/>
      <point x="469.05" y="-107.64"/>
      <point x="473.797" y="-112.4" type="curve"/>
      <point x="473.797" y="35" type="line"/>
      <point x="486.995" y="35" type="line" smooth="yes"/>
      <point x="492.563" y="35"/>
      <point x="507.001" y="49"/>
      <point x="511.001" y="77" type="curve"/>
    </contour>
    <component base="si_Fa"/>
  </outline>
</glyph>
<glyph name="si_GhIi" format="1">
  <advance width="562"/>
  <outline>
    <contour>
      <point x="324.808" y="608" type="line" smooth="yes"/>
      <point x="314.808" y="608"/>
      <point x="309.808" y="604"/>
      <point x="309.808" y="596" type="curve" smooth="yes"/>
      <point x="309.808" y="556" type="line" smooth="yes"/>
      <point x="309.808" y="547.333"/>
      <point x="311.141" y="543"/>
      <point x="321.808" y="543" type="curve" smooth="yes"/>
      <point x="459.808" y="543" type="line" smooth="yes"/>
      <point x="470.475" y="543"/>
      <point x="471.808" y="547.667"/>
      <point x="471.808" y="557" type="curve" smooth="yes"/>
      <point x="471.808" y="592.196" type="line" smooth="yes"/>
      <point x="471.808" y="602.605"/>
      <point x="466.141" y="608"/>
      <point x="454.808" y="608" type="curve" smooth="yes"/>
    </contour>
    <contour>
      <point x="78.2012" y="608.008" type="line" smooth="yes"/>
      <point x="66.7539" y="608.008"/>
      <point x="59" y="602"/>
      <point x="59" y="590" type="curve" smooth="yes"/>
      <point x="59" y="511" type="line"/>
      <point x="22.1943" y="511" type="line"/>
      <point x="22.1943" y="595.803" type="line" smooth="yes"/>
      <point x="22.1943" y="625.797"/>
      <point x="39.8057" y="640.011"/>
      <point x="67" y="640.011" type="curve" smooth="yes"/>
      <point x="466.808" y="640.012" type="line" smooth="yes"/>
      <point x="494.607" y="640.012"/>
      <point x="508.807" y="626.66"/>
      <point x="508.807" y="600" type="curve" smooth="yes"/>
      <point x="508.807" y="540.996" type="line" smooth="yes"/>
      <point x="508.807" y="521"/>
      <point x="498.805" y="510.996"/>
      <point x="478.807" y="510.996" type="curve" smooth="yes"/>
      <point x="300.404" y="510.994" type="line" smooth="yes"/>
      <point x="277.129" y="510.994"/>
      <point x="272.604" y="521.302"/>
      <point x="272.604" y="537" type="curve" smooth="yes"/>
      <point x="272.604" y="600" type="line" smooth="yes"/>
      <point x="272.604" y="604.531"/>
      <point x="273.422" y="607.009"/>
      <point x="275.004" y="608" type="curve"/>
    </contour>
    <component base="si_Gha"/>
  </outline>
</glyph>
<glyph name="si_GhR.halant" format="1">
  <advance width="562"/>
  <outline>
    <contour>
      <point x="327.22" y="0" type="line" smooth="yes"/>
      <point x="305" y="0"/>
      <point x="276.219" y="14.0518"/>
      <point x="276.219" y="48" type="curve" smooth="yes"/>
      <point x="276.219" y="96.1982" type="line" smooth="yes"/>
      <point x="276.219" y="112.593"/>
      <point x="288.333" y="123.617"/>
      <point x="300.735" y="134" type="curve" smooth="yes"/>
      <point x="322.78" y="152.454"/>
      <point x="323.62" y="153"/>
      <point x="323.82" y="169.601" type="curve" smooth="yes"/>
      <point x="323.813" y="188.805" type="line" smooth="yes"/>
      <point x="323.811" y="196.472"/>
      <point x="319" y="198"/>
      <point x="312.218" y="198.001" type="curve" smooth="yes"/>
      <point x="264.622" y="198.001" type="line"/>
      <point x="217.402" y="198.001" type="line" smooth="yes"/>
      <point x="211" y="198.001"/>
      <point x="205.809" y="196.472"/>
      <point x="205.807" y="188.805" type="curve" smooth="yes"/>
      <point x="205.8" y="169.601" type="line" smooth="yes"/>
      <point x="206" y="153"/>
      <point x="206.84" y="152.455"/>
      <point x="228.885" y="134" type="curve" smooth="yes"/>
      <point x="241.287" y="123.617"/>
      <point x="253.401" y="112.592"/>
      <point x="253.401" y="96.1982" type="curve" smooth="yes"/>
      <point x="253.401" y="48" type="line" smooth="yes"/>
      <point x="253.401" y="14.0518"/>
      <point x="224.566" y="0"/>
      <point x="202.4" y="0" type="curve" smooth="yes"/>
      <point x="72" y="0" type="line" smooth="yes"/>
      <point x="34.9717" y="0"/>
      <point x="22" y="16.2734"/>
      <point x="22" y="54" type="curve" smooth="yes"/>
      <point x="22" y="266" type="line" smooth="yes"/>
      <point x="22" y="286.835"/>
      <point x="29.918" y="309.935"/>
      <point x="51" y="322" type="curve"/>
      <point x="60.1592" y="335.616"/>
      <point x="61.9033" y="353"/>
      <point x="78" y="353" type="curve" smooth="yes"/>
      <point x="207.374" y="353" type="line"/>
      <point x="207.374" y="435" type="line" smooth="yes"/>
      <point x="207.374" y="457.979"/>
      <point x="194.638" y="465"/>
      <point x="171.374" y="465" type="curve" smooth="yes"/>
      <point x="23" y="465" type="line"/>
      <point x="23" y="497" type="line"/>
      <point x="181.374" y="497" type="line" smooth="yes"/>
      <point x="222.707" y="497"/>
      <point x="243.374" y="478"/>
      <point x="243.374" y="440" type="curve" smooth="yes"/>
      <point x="243.374" y="321" type="line"/>
      <point x="126.574" y="321" type="line" smooth="yes"/>
      <point x="72.2764" y="321"/>
      <point x="59" y="288"/>
      <point x="58.875" y="252" type="curve" smooth="yes"/>
      <point x="59" y="55.8926" type="line" smooth="yes"/>
      <point x="59.0098" y="39.9639"/>
      <point x="66" y="32"/>
      <point x="78.4941" y="32" type="curve" smooth="yes"/>
      <point x="187.402" y="32" type="line" smooth="yes"/>
      <point x="213.992" y="32"/>
      <point x="216.372" y="43.0811"/>
      <point x="216.398" y="66.1943" type="curve" smooth="yes"/>
      <point x="216.421" y="87.6016" type="line" smooth="yes"/>
      <point x="216.241" y="100.832"/>
      <point x="211.12" y="105.235"/>
      <point x="197.62" y="117" type="curve" smooth="yes"/>
      <point x="175.792" y="136.022"/>
      <point x="168.785" y="139.123"/>
      <point x="168.785" y="157.202" type="curve" smooth="yes"/>
      <point x="168.785" y="202" type="line" smooth="yes"/>
      <point x="168.785" y="217.999"/>
      <point x="179" y="230.003"/>
      <point x="194.793" y="230.003" type="curve" smooth="yes"/>
      <point x="264.622" y="230.003" type="line"/>
      <point x="334.827" y="230.003" type="line" smooth="yes"/>
      <point x="351" y="230"/>
      <point x="360.835" y="217.999"/>
      <point x="360.835" y="202" type="curve" smooth="yes"/>
      <point x="360.835" y="157.202" type="line" smooth="yes"/>
      <point x="360.835" y="139.123"/>
      <point x="353.828" y="136.022"/>
      <point x="332" y="117" type="curve" smooth="yes"/>
      <point x="318.5" y="105.235"/>
      <point x="313.379" y="100.832"/>
      <point x="313.199" y="87.6016" type="curve" smooth="yes"/>
      <point x="313.222" y="66.1943" type="line" smooth="yes"/>
      <point x="313.248" y="43.0811"/>
      <point x="316" y="32"/>
      <point x="342.218" y="32" type="curve" smooth="yes"/>
      <point x="453.506" y="32" type="line" smooth="yes"/>
      <point x="466" y="32"/>
      <point x="473" y="39.9639"/>
      <point x="473" y="55.8926" type="curve" smooth="yes"/>
      <point x="473" y="300.207" type="line" smooth="yes"/>
      <point x="473" y="313.324"/>
      <point x="463.408" y="321"/>
      <point x="450.008" y="321" type="curve" smooth="yes"/>
      <point x="290.226" y="321" type="line"/>
      <point x="290.226" y="440" type="line" smooth="yes"/>
      <point x="290.226" y="478"/>
      <point x="310.898" y="497"/>
      <point x="352.226" y="497" type="curve" smooth="yes"/>
      <point x="509" y="497" type="line"/>
      <point x="509" y="465" type="line"/>
      <point x="362.226" y="465" type="line" smooth="yes"/>
      <point x="338.964" y="465"/>
      <point x="326.226" y="457.98"/>
      <point x="326.226" y="435" type="curve" smooth="yes"/>
      <point x="326.226" y="353" type="line"/>
      <point x="454" y="353" type="line" smooth="yes"/>
      <point x="491.333" y="353"/>
      <point x="510" y="334.667"/>
      <point x="510" y="298" type="curve" smooth="yes"/>
      <point x="510" y="54" type="line" smooth="yes"/>
      <point x="510" y="16.2705"/>
      <point x="497" y="0"/>
      <point x="460" y="0" type="curve" smooth="yes"/>
    </contour>
    <contour>
      <point x="22.1943" y="-21" type="line"/>
      <point x="22.1943" y="-105.803" type="line" smooth="yes"/>
      <point x="22.1943" y="-135.797"/>
      <point x="39.1104" y="-150"/>
      <point x="66.1943" y="-150" type="curve" smooth="yes"/>
      <point x="467.202" y="-150" type="line" smooth="yes"/>
      <point x="492.535" y="-150"/>
      <point x="508.202" y="-138.565"/>
      <point x="508.202" y="-107" type="curve" smooth="yes"/>
      <point x="508.202" y="-21" type="line"/>
      <point x="471.201" y="-21" type="line"/>
      <point x="471.201" y="-97" type="line" smooth="yes"/>
      <point x="471.201" y="-109.878"/>
      <point x="466.036" y="-118.006"/>
      <point x="451.202" y="-118.006" type="curve" smooth="yes"/>
      <point x="77.2041" y="-118.006" type="line" smooth="yes"/>
      <point x="64.0898" y="-118.006"/>
      <point x="59" y="-110"/>
      <point x="59" y="-98" type="curve" smooth="yes"/>
      <point x="59" y="-21" type="line"/>
    </contour>
    <contour>
      <point x="472.2" y="492" type="line"/>
      <point x="472.2" y="649" type="line"/>
      <point x="508.99" y="649" type="line"/>
      <point x="508.99" y="468" type="line"/>
      <point x="506.624" y="473.675"/>
      <point x="500.386" y="478.213"/>
      <point x="493" y="485" type="curve" smooth="yes"/>
      <point x="489.79" y="487.949"/>
      <point x="480.329" y="492"/>
      <point x="474.6" y="492" type="curve" smooth="yes"/>
    </contour>
    <contour>
      <point x="-6" y="352.938" type="line"/>
      <point x="130.574" y="352.938" type="line"/>
      <point x="130.574" y="321" type="line"/>
      <point x="-6" y="321" type="line"/>
    </contour>
  </outline>
</glyph>
<glyph name="si_GhU" format="1">
  <advance width="562"/>
  <outline>
    <contour>
      <point x="510.004" y="-159" type="line"/>
      <point x="22" y="-159" type="line"/>
      <point x="22" y="-126.904" type="line"/>
      <point x="472.916" y="-126.904" type="line"/>
      <point x="472.916" y="28" type="line"/>
      <point x="477.916" y="28" type="line" smooth="yes"/>
      <point x="486.378" y="28"/>
      <point x="504.671" y="38"/>
      <point x="510.004" y="64" type="curve"/>
    </contour>
    <component base="si_Gha"/>
  </outline>
</glyph>
<glyph name="si_HRI" format="1">
  <advance width="590"/>
  <outline>
    <contour>
      <point x="33.9941" y="510" type="line"/>
      <point x="33.9941" y="594.803" type="line" smooth="yes"/>
      <point x="33.9941" y="624.797"/>
      <point x="50.9102" y="639"/>
      <point x="77.9941" y="639" type="curve" smooth="yes"/>
      <point x="486.8" y="639" type="line" smooth="yes"/>
      <point x="512.133" y="639"/>
      <point x="527.8" y="627.565"/>
      <point x="527.8" y="596" type="curve" smooth="yes"/>
      <point x="527.8" y="510" type="line"/>
      <point x="490.799" y="510" type="line"/>
      <point x="490.799" y="586" type="line" smooth="yes"/>
      <point x="490.799" y="598.878"/>
      <point x="485.634" y="607.006"/>
      <point x="470.8" y="607.006" type="curve" smooth="yes"/>
      <point x="89.0039" y="607.006" type="line" smooth="yes"/>
      <point x="75.8896" y="607.006"/>
      <point x="70.7998" y="599"/>
      <point x="70.7998" y="587" type="curve" smooth="yes"/>
      <point x="70.7998" y="510" type="line"/>
    </contour>
    <contour>
      <point x="59" y="59.6006" type="line" smooth="yes"/>
      <point x="59" y="40.3877"/>
      <point x="62.917" y="32"/>
      <point x="82" y="32" type="curve" smooth="yes"/>
      <point x="250" y="32" type="line" smooth="yes"/>
      <point x="277.134" y="32"/>
      <point x="286.586" y="37.6572"/>
      <point x="286.586" y="64" type="curve" smooth="yes"/>
      <point x="286.586" y="231.996" type="line" smooth="yes"/>
      <point x="286.586" y="245.996"/>
      <point x="282.146" y="252.996"/>
      <point x="268" y="252.996" type="curve" smooth="yes"/>
      <point x="221.586" y="252.996" type="line"/>
      <point x="255.586" y="446" type="line" smooth="yes"/>
      <point x="261.586" y="480"/>
      <point x="285.586" y="497"/>
      <point x="327.586" y="497" type="curve" smooth="yes"/>
      <point x="470.977" y="497" type="line" smooth="yes"/>
      <point x="517.2" y="497"/>
      <point x="537.977" y="479.952"/>
      <point x="537.977" y="434" type="curve" smooth="yes"/>
      <point x="537.977" y="64" type="line" smooth="yes"/>
      <point x="537.977" y="15.29"/>
      <point x="517.683" y="-0"/>
      <point x="474.977" y="0" type="curve" smooth="yes"/>
      <point x="385.984" y="0" type="line"/>
      <point x="385.984" y="32" type="line"/>
      <point x="469.277" y="32" type="line" smooth="yes"/>
      <point x="493.839" y="32"/>
      <point x="500.977" y="41.8623"/>
      <point x="500.977" y="68.9014" type="curve" smooth="yes"/>
      <point x="500.977" y="426" type="line" smooth="yes"/>
      <point x="500.977" y="454.593"/>
      <point x="491.914" y="465"/>
      <point x="462" y="465" type="curve" smooth="yes"/>
      <point x="332" y="465" type="line" smooth="yes"/>
      <point x="303.494" y="465"/>
      <point x="293.482" y="454.047"/>
      <point x="290" y="435" type="curve" smooth="yes"/>
      <point x="262.578" y="285" type="line"/>
      <point x="286.586" y="285" type="line" smooth="yes"/>
      <point x="311.253" y="285"/>
      <point x="323.586" y="270.667"/>
      <point x="323.586" y="242" type="curve" smooth="yes"/>
      <point x="323.586" y="60" type="line" smooth="yes"/>
      <point x="323.586" y="12.6074"/>
      <point x="304.186" y="0"/>
      <point x="256.586" y="0" type="curve" smooth="yes"/>
      <point x="70" y="0" type="line" smooth="yes"/>
      <point x="37.0674" y="0"/>
      <point x="22" y="15.2021"/>
      <point x="22" y="51" type="curve" smooth="yes"/>
      <point x="22" y="298" type="line" smooth="yes"/>
      <point x="22" y="334.667"/>
      <point x="40.333" y="353"/>
      <point x="77" y="353" type="curve" smooth="yes"/>
      <point x="148.79" y="353" type="line"/>
      <point x="148.79" y="423.798" type="line" smooth="yes"/>
      <point x="148.79" y="455.255"/>
      <point x="137.001" y="464.999"/>
      <point x="108.789" y="464.999" type="curve" smooth="yes"/>
      <point x="22" y="464.999" type="line"/>
      <point x="22" y="497" type="line"/>
      <point x="119.79" y="497" type="line" smooth="yes"/>
      <point x="163.79" y="497"/>
      <point x="185.79" y="475"/>
      <point x="185.79" y="431" type="curve" smooth="yes"/>
      <point x="185.79" y="321" type="line"/>
      <point x="88.8066" y="321" type="line" smooth="yes"/>
      <point x="65.917" y="321"/>
      <point x="59.0039" y="315.097"/>
      <point x="59.0039" y="292" type="curve" smooth="yes"/>
    </contour>
    <component base="si_Rakar" xOffset="594.8"/>
  </outline>
</glyph>
<glyph name="si_Jha.reph" format="1">
  <advance width="915"/>
  <outline>
    <contour>
      <point x="12" y="252.991" type="line"/>
      <point x="156.992" y="374.211" type="line"/>
      <point x="156.831" y="430" type="line" smooth="yes"/>
      <point x="156.777" y="454.001"/>
      <point x="150.944" y="465"/>
      <point x="128" y="465" type="curve" smooth="yes"/>
      <point x="38" y="465" type="line"/>
      <point x="38" y="497.001" type="line"/>
      <point x="147.195" y="497" type="line" smooth="yes"/>
      <point x="175.434" y="497"/>
      <point x="192.909" y="477.275"/>
      <point x="192.947" y="440.799" type="curve" smooth="yes"/>
      <point x="192.995" y="404.206" type="line"/>
      <point x="254.396" y="450.802" type="line" smooth="yes"/>
      <point x="293.087" y="480.163"/>
      <point x="314.588" y="487.991"/>
      <point x="339" y="487.991" type="curve" smooth="yes"/>
      <point x="353.344" y="487.991"/>
      <point x="379.003" y="484.749"/>
      <point x="398" y="482.991" type="curve" smooth="yes"/>
      <point x="657.205" y="459.002" type="line"/>
      <point x="466" y="440.999" type="line"/>
      <point x="380" y="449.199" type="line" smooth="yes"/>
      <point x="364.332" y="450.547"/>
      <point x="351.059" y="451.784"/>
      <point x="339.6" y="451.784" type="curve" smooth="yes"/>
      <point x="319.258" y="451.784"/>
      <point x="299.701" y="440.254"/>
      <point x="273" y="419.802" type="curve" smooth="yes"/>
      <point x="201.205" y="364.81" type="line"/>
      <point x="320.994" y="364.809" type="line" smooth="yes"/>
      <point x="346.368" y="364.809"/>
      <point x="367.994" y="350.017"/>
      <point x="367.994" y="315.809" type="curve" smooth="yes"/>
      <point x="367.994" y="52.999" type="line" smooth="yes"/>
      <point x="367.994" y="19.4961"/>
      <point x="344.573" y="-0.000976562"/>
      <point x="316.81" y="-0.000976562" type="curve" smooth="yes"/>
      <point x="230.997" y="0" type="line" smooth="yes"/>
      <point x="212.04" y="0"/>
      <point x="198.664" y="9.66699"/>
      <point x="193.997" y="29.001" type="curve"/>
      <point x="189.33" y="9.66699"/>
      <point x="172.689" y="0"/>
      <point x="154.997" y="0" type="curve" smooth="yes"/>
      <point x="66.9844" y="0" type="line" smooth="yes"/>
      <point x="38.4756" y="0"/>
      <point x="21.9844" y="19.7461"/>
      <point x="21.9844" y="46" type="curve" smooth="yes"/>
      <point x="21.9844" y="156.011" type="line" smooth="yes"/>
      <point x="21.9844" y="198.781"/>
      <point x="29.9258" y="215.78"/>
      <point x="44.7832" y="224.8" type="curve"/>
      <point x="12" y="224.8" type="line"/>
    </contour>
    <contour>
      <point x="658.212" y="426.802" type="line"/>
      <point x="504.025" y="426.802" type="line" smooth="yes"/>
      <point x="477.412" y="426.802"/>
      <point x="470.025" y="412.438"/>
      <point x="470.025" y="391" type="curve" smooth="yes"/>
      <point x="470.025" y="58" type="line" smooth="yes"/>
      <point x="470.025" y="42.2285"/>
      <point x="473.981" y="32"/>
      <point x="493.025" y="32" type="curve" smooth="yes"/>
      <point x="587.014" y="32" type="line" smooth="yes"/>
      <point x="626.143" y="32"/>
      <point x="633.014" y="65.5156"/>
      <point x="633.014" y="100.802" type="curve" smooth="yes"/>
      <point x="633.014" y="244.796" type="line"/>
      <point x="670.213" y="244.796" type="line"/>
      <point x="670.213" y="101" type="line" smooth="yes"/>
      <point x="670.213" y="66.1592"/>
      <point x="679.292" y="32"/>
      <point x="721.014" y="32" type="curve" smooth="yes"/>
      <point x="813.002" y="32" type="line" smooth="yes"/>
      <point x="829.929" y="32"/>
      <point x="834.607" y="43.6895"/>
      <point x="834.607" y="60" type="curve" smooth="yes"/>
      <point x="834.607" y="554" type="line" smooth="yes"/>
      <point x="834.607" y="587.453"/>
      <point x="819.412" y="594.6"/>
      <point x="791.002" y="594.6" type="curve" smooth="yes"/>
      <point x="433.026" y="594.6" type="line"/>
      <point x="433.026" y="626" type="line"/>
      <point x="799.002" y="626" type="line" smooth="yes"/>
      <point x="841.311" y="626"/>
      <point x="872" y="609.264"/>
      <point x="872" y="560" type="curve" smooth="yes"/>
      <point x="872" y="50" type="line" smooth="yes"/>
      <point x="872" y="19.6377"/>
      <point x="858.398" y="0"/>
      <point x="825.002" y="0" type="curve" smooth="yes"/>
      <point x="700.816" y="0" type="line" smooth="yes"/>
      <point x="674.816" y="0"/>
      <point x="658.482" y="12.333"/>
      <point x="651.816" y="37" type="curve"/>
      <point x="648.643" y="16.3779"/>
      <point x="628.086" y="0"/>
      <point x="604.816" y="0" type="curve" smooth="yes"/>
      <point x="480.025" y="0" type="line" smooth="yes"/>
      <point x="448.635" y="0"/>
      <point x="433.025" y="15.0176"/>
      <point x="433.025" y="48" type="curve" smooth="yes"/>
      <point x="433.025" y="394" type="line" smooth="yes"/>
      <point x="433.025" y="432.555"/>
      <point x="451.046" y="459"/>
      <point x="492.025" y="459" type="curve" smooth="yes"/>
      <point x="658.211" y="459" type="line"/>
    </contour>
    <contour>
      <point x="617.391" y="659.598" type="line"/>
      <point x="655.394" y="659.598" type="line"/>
      <point x="655.394" y="566" type="line" smooth="yes"/>
      <point x="655.394" y="538.822"/>
      <point x="643.902" y="529"/>
      <point x="624.394" y="529" type="curve" smooth="yes"/>
      <point x="525" y="529" type="line" smooth="yes"/>
      <point x="498.536" y="529"/>
      <point x="485" y="542.896"/>
      <point x="485" y="575" type="curve" smooth="yes"/>
      <point x="485" y="668.207" type="line" smooth="yes"/>
      <point x="485" y="696.944"/>
      <point x="502.249" y="716.207"/>
      <point x="539" y="716.207" type="curve" smooth="yes"/>
      <point x="730.394" y="716.207" type="line" smooth="yes"/>
      <point x="763.839" y="716.207"/>
      <point x="781.394" y="699.386"/>
      <point x="781.394" y="660.207" type="curve" smooth="yes"/>
      <point x="781.394" y="533.603" type="line"/>
      <point x="744.396" y="533.603" type="line"/>
      <point x="744.396" y="655.806" type="line" smooth="yes"/>
      <point x="744.396" y="675.583"/>
      <point x="738.165" y="684.204"/>
      <point x="724.394" y="684.204" type="curve" smooth="yes"/>
      <point x="544" y="684.204" type="line" smooth="yes"/>
      <point x="531.399" y="684.204"/>
      <point x="522.008" y="677.9"/>
      <point x="522.008" y="662.806" type="curve" smooth="yes"/>
      <point x="522.008" y="580.599" type="line" smooth="yes"/>
      <point x="522.008" y="567.926"/>
      <point x="525.253" y="560.391"/>
      <point x="537" y="560.391" type="curve" smooth="yes"/>
      <point x="604.6" y="560.391" type="line" smooth="yes"/>
      <point x="615.864" y="560.391"/>
      <point x="617.391" y="565.724"/>
      <point x="617.391" y="576.391" type="curve" smooth="yes"/>
    </contour>
    <contour>
      <point x="330.994" y="307.809" type="line" smooth="yes"/>
      <point x="330.994" y="326.779"/>
      <point x="321.033" y="332.809"/>
      <point x="305.994" y="332.809" type="curve" smooth="yes"/>
      <point x="163" y="332.81" type="line"/>
      <point x="71.2031" y="256" type="line"/>
      <point x="97.9844" y="256" type="line"/>
      <point x="97.9844" y="228.2" type="line"/>
      <point x="63.915" y="209.638"/>
      <point x="58.9844" y="193.123"/>
      <point x="58.9844" y="146.014" type="curve" smooth="yes"/>
      <point x="58.9844" y="56" type="line" smooth="yes"/>
      <point x="58.9844" y="38.667"/>
      <point x="64.6309" y="32"/>
      <point x="79.3838" y="32" type="curve" smooth="yes"/>
      <point x="133.798" y="32" type="line" smooth="yes"/>
      <point x="173.903" y="32"/>
      <point x="176.197" y="61.5811"/>
      <point x="176.197" y="94" type="curve" smooth="yes"/>
      <point x="176.197" y="188" type="line"/>
      <point x="213.398" y="188.003" type="line"/>
      <point x="213.398" y="94" type="line" smooth="yes"/>
      <point x="213.398" y="61.5684"/>
      <point x="213.902" y="32"/>
      <point x="251.798" y="32" type="curve" smooth="yes"/>
      <point x="305" y="32" type="line" smooth="yes"/>
      <point x="326.589" y="32"/>
      <point x="330.994" y="46.001"/>
      <point x="330.994" y="64" type="curve" smooth="yes"/>
    </contour>
  </outline>
</glyph>
<glyph name="si_JnyAa" format="1">
  <advance width="1006"/>
  <outline>
    <contour>
      <point x="620.023" y="465" type="line"/>
      <point x="487.021" y="465" type="line" smooth="yes"/>
      <point x="458.515" y="465"/>
      <point x="448.503" y="454.047"/>
      <point x="445.021" y="435" type="curve" smooth="yes"/>
      <point x="417.599" y="285" type="line"/>
      <point x="441.606" y="285" type="line" smooth="yes"/>
      <point x="466.273" y="285"/>
      <point x="478.606" y="270.667"/>
      <point x="478.606" y="242" type="curve" smooth="yes"/>
      <point x="478.606" y="60" type="line" smooth="yes"/>
      <point x="478.606" y="12.6074"/>
      <point x="459.206" y="0"/>
      <point x="411.606" y="0" type="curve" smooth="yes"/>
      <point x="228.023" y="0" type="line" smooth="yes"/>
      <point x="191.385" y="0"/>
      <point x="180.023" y="19.0518"/>
      <point x="180.023" y="56" type="curve" smooth="yes"/>
      <point x="180.023" y="413" type="line" smooth="yes"/>
      <point x="180.023" y="475.434"/>
      <point x="228.947" y="497"/>
      <point x="265.614" y="497" type="curve" smooth="yes"/>
      <point x="344.021" y="497" type="line"/>
      <point x="344.021" y="465" type="line"/>
      <point x="269.614" y="465" type="line" smooth="yes"/>
      <point x="233.556" y="465"/>
      <point x="217.027" y="445.488"/>
      <point x="217.027" y="403" type="curve" smooth="yes"/>
      <point x="217.023" y="59.8008" type="line" smooth="yes"/>
      <point x="217.023" y="40.5879"/>
      <point x="220.94" y="32"/>
      <point x="240.023" y="32" type="curve" smooth="yes"/>
      <point x="405.021" y="32" type="line" smooth="yes"/>
      <point x="432.155" y="32"/>
      <point x="441.606" y="37.6572"/>
      <point x="441.606" y="64" type="curve" smooth="yes"/>
      <point x="441.606" y="231.996" type="line" smooth="yes"/>
      <point x="441.606" y="245.996"/>
      <point x="437.167" y="252.996"/>
      <point x="423.021" y="252.996" type="curve" smooth="yes"/>
      <point x="376.606" y="252.996" type="line"/>
      <point x="410.606" y="446" type="line" smooth="yes"/>
      <point x="416.606" y="480"/>
      <point x="440.623" y="497"/>
      <point x="482.606" y="497" type="curve" smooth="yes"/>
      <point x="619.999" y="497" type="line"/>
    </contour>
    <contour>
      <point x="116.602" y="465" type="line" smooth="yes"/>
      <point x="76.8906" y="465"/>
      <point x="59" y="452.74"/>
      <point x="59" y="412" type="curve" smooth="yes"/>
      <point x="59" y="0" type="line"/>
      <point x="22" y="0" type="line"/>
      <point x="22" y="424" type="line" smooth="yes"/>
      <point x="22" y="476.166"/>
      <point x="58.8513" y="497"/>
      <point x="105.4" y="497" type="curve" smooth="yes"/>
      <point x="281.614" y="497" type="line"/>
      <point x="211.614" y="465" type="line"/>
    </contour>
    <component base="si_DAa" xOffset="542"/>
  </outline>
</glyph>
<glyph name="si_JnyI" format="1">
  <advance width="1006"/>
  <outline>
    <contour>
      <point x="570.194" y="511" type="line"/>
      <point x="570.194" y="595.803" type="line" smooth="yes"/>
      <point x="570.194" y="625.797"/>
      <point x="587.11" y="640"/>
      <point x="614.194" y="640" type="curve" smooth="yes"/>
      <point x="913" y="640" type="line" smooth="yes"/>
      <point x="938.333" y="640"/>
      <point x="954" y="628.565"/>
      <point x="954" y="597" type="curve" smooth="yes"/>
      <point x="954" y="511" type="line"/>
      <point x="916.999" y="511" type="line"/>
      <point x="916.999" y="587" type="line" smooth="yes"/>
      <point x="916.999" y="599.878"/>
      <point x="911.834" y="608.006"/>
      <point x="897" y="608.006" type="curve" smooth="yes"/>
      <point x="625.204" y="608.006" type="line" smooth="yes"/>
      <point x="612.09" y="608.006"/>
      <point x="607" y="600"/>
      <point x="607" y="588" type="curve" smooth="yes"/>
      <point x="607" y="511" type="line"/>
    </contour>
    <component base="si_Jnya"/>
  </outline>
</glyph>
<glyph name="si_KSsI" format="1">
  <advance width="918"/>
  <outline>
    <contour>
      <point x="432.198" y="511" type="line"/>
      <point x="432.198" y="595.803" type="line" smooth="yes"/>
      <point x="432.198" y="625.797"/>
      <point x="449.114" y="640"/>
      <point x="476.198" y="640" type="curve" smooth="yes"/>
      <point x="828.603" y="640" type="line" smooth="yes"/>
      <point x="853.936" y="640"/>
      <point x="869.603" y="628.565"/>
      <point x="869.603" y="597" type="curve" smooth="yes"/>
      <point x="869.603" y="511" type="line"/>
      <point x="832.602" y="511" type="line"/>
      <point x="832.602" y="587" type="line" smooth="yes"/>
      <point x="832.602" y="599.878"/>
      <point x="827.437" y="608.006"/>
      <point x="812.603" y="608.006" type="curve" smooth="yes"/>
      <point x="487.208" y="608.006" type="line" smooth="yes"/>
      <point x="474.094" y="608.006"/>
      <point x="469.004" y="600"/>
      <point x="469.004" y="588" type="curve" smooth="yes"/>
      <point x="469.004" y="511" type="line"/>
    </contour>
    <component base="si_KSsa"/>
  </outline>
</glyph>
<glyph name="si_KVa" format="1">
  <advance width="910"/>
  <outline>
    <contour>
      <point x="12" y="252.991" type="line"/>
      <point x="156.992" y="374.211" type="line"/>
      <point x="156.831" y="430" type="line" smooth="yes"/>
      <point x="156.777" y="454.001"/>
      <point x="150.944" y="465"/>
      <point x="128" y="465" type="curve" smooth="yes"/>
      <point x="38" y="465" type="line"/>
      <point x="38" y="497.001" type="line"/>
      <point x="147.195" y="497" type="line" smooth="yes"/>
      <point x="175.434" y="497"/>
      <point x="192.909" y="477.275"/>
      <point x="192.947" y="440.799" type="curve" smooth="yes"/>
      <point x="192.995" y="404.206" type="line"/>
      <point x="274.006" y="472" type="line" smooth="yes"/>
      <point x="297.624" y="491.765"/>
      <point x="320.747" y="497"/>
      <point x="339.209" y="497" type="curve" smooth="yes"/>
      <point x="388.263" y="497" type="line"/>
      <point x="481.598" y="497" type="line"/>
      <point x="481.6" y="465" type="line"/>
      <point x="388.153" y="465" type="line"/>
      <point x="355.815" y="465" type="line" smooth="yes"/>
      <point x="328.595" y="465"/>
      <point x="312.183" y="457.316"/>
      <point x="292.609" y="441" type="curve" smooth="yes"/>
      <point x="201.205" y="364.81" type="line"/>
      <point x="320.994" y="364.809" type="line" smooth="yes"/>
      <point x="346.368" y="364.809"/>
      <point x="367.994" y="350.017"/>
      <point x="367.994" y="315.809" type="curve" smooth="yes"/>
      <point x="367.994" y="52.999" type="line" smooth="yes"/>
      <point x="367.994" y="19.4961"/>
      <point x="344.573" y="-0.000976562"/>
      <point x="316.81" y="-0.000976562" type="curve" smooth="yes"/>
      <point x="230.997" y="0" type="line" smooth="yes"/>
      <point x="212.04" y="0"/>
      <point x="198.664" y="9.66699"/>
      <point x="193.997" y="29.001" type="curve"/>
      <point x="189.33" y="9.66699"/>
      <point x="172.689" y="0"/>
      <point x="154.997" y="0" type="curve" smooth="yes"/>
      <point x="66.9844" y="0" type="line" smooth="yes"/>
      <point x="38.4756" y="0"/>
      <point x="21.9844" y="19.7461"/>
      <point x="21.9844" y="46" type="curve" smooth="yes"/>
      <point x="21.9844" y="156.011" type="line" smooth="yes"/>
      <point x="21.9844" y="198.781"/>
      <point x="29.9258" y="215.78"/>
      <point x="44.7832" y="224.8" type="curve"/>
      <point x="12" y="224.8" type="line"/>
    </contour>
    <contour>
      <point x="861" y="415" type="line"/>
      <point x="861" y="54" type="line" smooth="yes"/>
      <point x="861" y="16.2705"/>
      <point x="846.075" y="0"/>
      <point x="809" y="0" type="curve" smooth="yes"/>
      <point x="473" y="0" type="line" smooth="yes"/>
      <point x="435.928" y="0"/>
      <point x="423" y="16.2754"/>
      <point x="423" y="54" type="curve" smooth="yes"/>
      <point x="423" y="298" type="line" smooth="yes"/>
      <point x="423" y="334.667"/>
      <point x="441.667" y="353"/>
      <point x="479" y="353" type="curve" smooth="yes"/>
      <point x="604.094" y="353" type="line"/>
      <point x="604.094" y="445.002" type="line" smooth="yes"/>
      <point x="604.094" y="462.556"/>
      <point x="589.667" y="465.002"/>
      <point x="579" y="465.002" type="curve" smooth="yes"/>
      <point x="422.999" y="465.002" type="line"/>
      <point x="422.999" y="497.002" type="line"/>
      <point x="590" y="497.002" type="line" smooth="yes"/>
      <point x="625.223" y="497.002"/>
      <point x="640.995" y="481.393"/>
      <point x="640.996" y="445.002" type="curve" smooth="yes"/>
      <point x="641" y="321" type="line"/>
      <point x="488" y="321" type="line" smooth="yes"/>
      <point x="472.167" y="321"/>
      <point x="460" y="314.976"/>
      <point x="460" y="293" type="curve" smooth="yes"/>
      <point x="460" y="58" type="line" smooth="yes"/>
      <point x="460" y="43.334"/>
      <point x="461.958" y="32"/>
      <point x="479" y="32" type="curve" smooth="yes"/>
      <point x="801.8" y="32" type="line" smooth="yes"/>
      <point x="817.448" y="32"/>
      <point x="824" y="40.7402"/>
      <point x="824" y="61" type="curve" smooth="yes"/>
      <point x="824" y="415" type="line"/>
    </contour>
    <contour>
      <point x="330.994" y="307.809" type="line" smooth="yes"/>
      <point x="330.994" y="326.779"/>
      <point x="321.033" y="332.809"/>
      <point x="305.994" y="332.809" type="curve" smooth="yes"/>
      <point x="163" y="332.81" type="line"/>
      <point x="71.2031" y="256" type="line"/>
      <point x="97.9844" y="256" type="line"/>
      <point x="97.9844" y="228.2" type="line"/>
      <point x="63.915" y="209.638"/>
      <point x="58.9844" y="193.123"/>
      <point x="58.9844" y="146.014" type="curve" smooth="yes"/>
      <point x="58.9844" y="56" type="line" smooth="yes"/>
      <point x="58.9844" y="38.667"/>
      <point x="64.6309" y="32"/>
      <point x="79.3838" y="32" type="curve" smooth="yes"/>
      <point x="133.798" y="32" type="line" smooth="yes"/>
      <point x="173.903" y="32"/>
      <point x="176.197" y="61.5811"/>
      <point x="176.197" y="94" type="curve" smooth="yes"/>
      <point x="176.197" y="188" type="line"/>
      <point x="213.398" y="188.003" type="line"/>
      <point x="213.398" y="94" type="line" smooth="yes"/>
      <point x="213.398" y="61.5684"/>
      <point x="213.902" y="32"/>
      <point x="251.798" y="32" type="curve" smooth="yes"/>
      <point x="305" y="32" type="line" smooth="yes"/>
      <point x="326.589" y="32"/>
      <point x="330.994" y="46.001"/>
      <point x="330.994" y="64" type="curve" smooth="yes"/>
    </contour>
    <contour>
      <point x="785" y="625" type="line" smooth="yes"/>
      <point x="836.559" y="625"/>
      <point x="861" y="601.678"/>
      <point x="861" y="548" type="curve" smooth="yes"/>
      <point x="861" y="400" type="line"/>
      <point x="824" y="400" type="line"/>
      <point x="824" y="541" type="line" smooth="yes"/>
      <point x="824" y="579.354"/>
      <point x="814.56" y="593"/>
      <point x="776.598" y="593" type="curve" smooth="yes"/>
      <point x="423" y="593" type="line"/>
      <point x="423" y="625" type="line"/>
    </contour>
  </outline>
</glyph>
<glyph name="si_KhI" format="1">
  <advance width="518"/>
  <outline>
    <contour>
      <point x="460" y="413" type="line"/>
      <point x="460" y="51" type="line" smooth="yes"/>
      <point x="460" y="26.0732"/>
      <point x="448.267" y="0"/>
      <point x="414.005" y="0" type="curve" smooth="yes"/>
      <point x="316.407" y="0" type="line" smooth="yes"/>
      <point x="283.074" y="0"/>
      <point x="244.164" y="46.2275"/>
      <point x="234.806" y="68.001" type="curve"/>
      <point x="208.007" y="-5" type="line"/>
      <point x="169.808" y="-5" type="line"/>
      <point x="250" y="216.598" type="line"/>
      <point x="250.001" y="348.6" type="line" smooth="yes"/>
      <point x="250.001" y="364.891"/>
      <point x="243.14" y="379.802"/>
      <point x="222.998" y="379.802" type="curve" smooth="yes"/>
      <point x="88" y="379.802" type="line" smooth="yes"/>
      <point x="68.1836" y="379.802"/>
      <point x="59" y="366.117"/>
      <point x="59" y="345.001" type="curve" smooth="yes"/>
      <point x="59" y="57" type="line" smooth="yes"/>
      <point x="59" y="39.1271"/>
      <point x="64.625" y="32"/>
      <point x="81.002" y="32" type="curve" smooth="yes"/>
      <point x="133.003" y="32" type="line"/>
      <point x="133" y="0" type="line"/>
      <point x="65" y="0" type="line" smooth="yes"/>
      <point x="38.3047" y="0"/>
      <point x="22" y="16.7642"/>
      <point x="22" y="48" type="curve" smooth="yes"/>
      <point x="22" y="348.001" type="line" smooth="yes"/>
      <point x="22" y="383.967"/>
      <point x="40.6514" y="411.976"/>
      <point x="81" y="411.976" type="curve" smooth="yes"/>
      <point x="231.191" y="411.976" type="line" smooth="yes"/>
      <point x="263.718" y="411.976"/>
      <point x="287.191" y="394.669"/>
      <point x="287.191" y="357.001" type="curve" smooth="yes"/>
      <point x="286.591" y="212" type="line"/>
      <point x="250.403" y="111.801" type="line"/>
      <point x="256.577" y="96.877"/>
      <point x="292.042" y="32"/>
      <point x="333.407" y="32" type="curve" smooth="yes"/>
      <point x="400.004" y="32" type="line" smooth="yes"/>
      <point x="419.401" y="32"/>
      <point x="423.007" y="49.2012"/>
      <point x="423.007" y="63.2012" type="curve" smooth="yes"/>
      <point x="423.007" y="413.001" type="line"/>
    </contour>
    <contour>
      <point x="460" y="400" type="line"/>
      <point x="423" y="400" type="line"/>
      <point x="423" y="476" type="line" smooth="yes"/>
      <point x="423" y="499.381"/>
      <point x="416.127" y="509.5"/>
      <point x="391" y="509.5" type="curve" smooth="yes"/>
      <point x="69" y="509.5" type="line" smooth="yes"/>
      <point x="37.667" y="509.5"/>
      <point x="22" y="525.5"/>
      <point x="22" y="557.5" type="curve" smooth="yes"/>
      <point x="22" y="620" type="line" smooth="yes"/>
      <point x="22" y="653.415"/>
      <point x="36.1038" y="672"/>
      <point x="72" y="672" type="curve" smooth="yes"/>
      <point x="458.5" y="672" type="line"/>
      <point x="458.5" y="640" type="line"/>
      <point x="84" y="640" type="line" smooth="yes"/>
      <point x="63.083" y="640"/>
      <point x="58.875" y="635.558"/>
      <point x="58.875" y="611" type="curve" smooth="yes"/>
      <point x="58.875" y="566" type="line" smooth="yes"/>
      <point x="58.875" y="552.49"/>
      <point x="60.4326" y="541.5"/>
      <point x="83" y="541.5" type="curve" smooth="yes"/>
      <point x="391" y="541.5" type="line" smooth="yes"/>
      <point x="447.814" y="541.5"/>
      <point x="460" y="524.085"/>
      <point x="460" y="466" type="curve" smooth="yes"/>
    </contour>
  </outline>
</glyph>
<glyph name="si_MR.halant" format="1">
  <advance width="518"/>
  <outline>
    <contour>
      <point x="22.1943" y="-21" type="line"/>
      <point x="22.1943" y="-105.803" type="line" smooth="yes"/>
      <point x="22.1943" y="-135.797"/>
      <point x="39.1104" y="-150"/>
      <point x="66.1943" y="-150" type="curve" smooth="yes"/>
      <point x="418.806" y="-150" type="line" smooth="yes"/>
      <point x="444.139" y="-150"/>
      <point x="459.806" y="-138.565"/>
      <point x="459.806" y="-107" type="curve" smooth="yes"/>
      <point x="459.806" y="-21" type="line"/>
      <point x="422.805" y="-21" type="line"/>
      <point x="422.805" y="-97" type="line" smooth="yes"/>
      <point x="422.805" y="-109.878"/>
      <point x="417.64" y="-118.006"/>
      <point x="402.806" y="-118.006" type="curve" smooth="yes"/>
      <point x="77.2041" y="-118.006" type="line" smooth="yes"/>
      <point x="64.0898" y="-118.006"/>
      <point x="59" y="-110"/>
      <point x="59" y="-98" type="curve" smooth="yes"/>
      <point x="59" y="-21" type="line"/>
    </contour>
    <contour>
      <point x="460" y="400" type="line"/>
      <point x="423" y="400" type="line"/>
      <point x="423" y="484" type="line" smooth="yes"/>
      <point x="423" y="513.546"/>
      <point x="406.062" y="518"/>
      <point x="387" y="518" type="curve" smooth="yes"/>
      <point x="14" y="518" type="line"/>
      <point x="14" y="550" type="line"/>
      <point x="82" y="550" type="line"/>
      <point x="52.667" y="557.333"/>
      <point x="50" y="582.667"/>
      <point x="50" y="604" type="curve" smooth="yes"/>
      <point x="50" y="632" type="line" smooth="yes"/>
      <point x="50" y="659.333"/>
      <point x="66.3333" y="673"/>
      <point x="99" y="673" type="curve" smooth="yes"/>
      <point x="458" y="673" type="line"/>
      <point x="458" y="641" type="line"/>
      <point x="102.5" y="641" type="line" smooth="yes"/>
      <point x="87.5312" y="641"/>
      <point x="87" y="633.667"/>
      <point x="87" y="616" type="curve" smooth="yes"/>
      <point x="87" y="573.678"/>
      <point x="97.3973" y="550"/>
      <point x="168" y="550" type="curve" smooth="yes"/>
      <point x="391" y="550" type="line" smooth="yes"/>
      <point x="446.441" y="550"/>
      <point x="460" y="525.687"/>
      <point x="460" y="469" type="curve" smooth="yes"/>
    </contour>
    <contour>
      <point x="460" y="415" type="line"/>
      <point x="460" y="54" type="line" smooth="yes"/>
      <point x="460" y="16.2705"/>
      <point x="447.075" y="0"/>
      <point x="410" y="0" type="curve" smooth="yes"/>
      <point x="72" y="0" type="line" smooth="yes"/>
      <point x="34.0315" y="0"/>
      <point x="22" y="15.7515"/>
      <point x="22" y="54" type="curve" smooth="yes"/>
      <point x="22" y="373" type="line" smooth="yes"/>
      <point x="22" y="404.538"/>
      <point x="42.2795" y="427"/>
      <point x="74" y="427" type="curve" smooth="yes"/>
      <point x="209" y="427" type="line" smooth="yes"/>
      <point x="239.562" y="427"/>
      <point x="259" y="408.584"/>
      <point x="259" y="378" type="curve" smooth="yes"/>
      <point x="259" y="212" type="line" smooth="yes"/>
      <point x="259" y="182.667"/>
      <point x="244.667" y="168"/>
      <point x="216" y="168" type="curve" smooth="yes"/>
      <point x="58.875" y="168" type="line"/>
      <point x="58.875" y="54" type="line" smooth="yes"/>
      <point x="58.875" y="39.3389"/>
      <point x="64.875" y="32"/>
      <point x="76.875" y="32" type="curve" smooth="yes"/>
      <point x="405" y="32" type="line" smooth="yes"/>
      <point x="417" y="32"/>
      <point x="423" y="39.333"/>
      <point x="423" y="54" type="curve" smooth="yes"/>
      <point x="423" y="415" type="line"/>
    </contour>
    <contour>
      <point x="58.875" y="200" type="line"/>
      <point x="203" y="200" type="line" smooth="yes"/>
      <point x="216.797" y="200"/>
      <point x="221" y="206.333"/>
      <point x="221" y="219" type="curve" smooth="yes"/>
      <point x="221" y="374" type="line" smooth="yes"/>
      <point x="221" y="385.792"/>
      <point x="213.7" y="394"/>
      <point x="197" y="394" type="curve" smooth="yes"/>
      <point x="83" y="394" type="line" smooth="yes"/>
      <point x="71" y="394"/>
      <point x="58.875" y="387.598"/>
      <point x="58.875" y="372" type="curve" smooth="yes"/>
    </contour>
  </outline>
</glyph>
<glyph name="si_MatraUu.alt" format="1">
  <advance width="2"/>
  <outline>
    <contour>
      <point x="-193" y="-173" type="line" smooth="yes"/>
      <point x="-215" y="-173"/>
      <point x="-226" y="-163.959"/>
      <point x="-226" y="-146" type="curve" smooth="yes"/>
      <point x="-226" y="-126.594" type="line" smooth="yes"/>
      <point x="-226" y="-118.594"/>
      <point x="-221.425" y="-110.806"/>
      <point x="-211" y="-106.594" type="curve" smooth="yes"/>
      <point x="-113" y="-68" type="line"/>
      <point x="-226" y="-68" type="line"/>
      <point x="-226" y="-38" type="line"/>
      <point x="-155" y="8" type="line"/>
      <point x="-102" y="8" type="line"/>
      <point x="-168" y="-36.2021" type="line"/>
      <point x="-22" y="-36.2021" type="line"/>
      <point x="-22" y="-62" type="line"/>
      <point x="-177" y="-127" type="line" smooth="yes"/>
      <point x="-184.762" y="-130.255"/>
      <point x="-187" y="-132.74"/>
      <point x="-187" y="-136.001" type="curve" smooth="yes"/>
      <point x="-187" y="-139.897"/>
      <point x="-185.196" y="-141"/>
      <point x="-181" y="-141" type="curve" smooth="yes"/>
      <point x="-1" y="-140.795" type="line"/>
      <point x="-1" y="-173" type="line"/>
    </contour>
  </outline>
</glyph>
<glyph name="si_MbI" format="1">
  <advance width="515"/>
  <outline>
    <contour>
      <point x="460.024" y="54" type="line" smooth="yes"/>
      <point x="459.867" y="16"/>
      <point x="448.266" y="0"/>
      <point x="414.799" y="0" type="curve" smooth="yes"/>
      <point x="302" y="0" type="line" smooth="yes"/>
      <point x="275.996" y="0"/>
      <point x="254.966" y="20.8428"/>
      <point x="254.966" y="47" type="curve" smooth="yes"/>
      <point x="254.966" y="97.7979" type="line" smooth="yes"/>
      <point x="254.966" y="127.929"/>
      <point x="286.113" y="142.086"/>
      <point x="292.999" y="146.201" type="curve" smooth="yes"/>
      <point x="298.989" y="149.781"/>
      <point x="319" y="159"/>
      <point x="319.4" y="175.003" type="curve" smooth="yes"/>
      <point x="319.395" y="193" type="line" smooth="yes"/>
      <point x="319.392" y="201.38"/>
      <point x="314.458" y="203.593"/>
      <point x="306" y="203.593" type="curve" smooth="yes"/>
      <point x="241.207" y="203.593" type="line"/>
      <point x="177" y="203.593" type="line" smooth="yes"/>
      <point x="170.041" y="203.593"/>
      <point x="163.163" y="201.38"/>
      <point x="163.16" y="193" type="curve" smooth="yes"/>
      <point x="163.154" y="175.203" type="line" smooth="yes"/>
      <point x="163" y="159"/>
      <point x="183.354" y="148.511"/>
      <point x="189" y="144.604" type="curve" smooth="yes"/>
      <point x="195.597" y="140.039"/>
      <point x="227.848" y="127.526"/>
      <point x="227.848" y="97.7979" type="curve" smooth="yes"/>
      <point x="227.848" y="47" type="line" smooth="yes"/>
      <point x="227.848" y="20.8428"/>
      <point x="206.515" y="0"/>
      <point x="180.814" y="0" type="curve" smooth="yes"/>
      <point x="67.2773" y="0" type="line" smooth="yes"/>
      <point x="33.7461" y="0"/>
      <point x="22.0576" y="16"/>
      <point x="22.0518" y="54" type="curve" smooth="yes"/>
      <point x="22" y="404.391" type="line" smooth="yes"/>
      <point x="22" y="436.592"/>
      <point x="43.1621" y="461.593"/>
      <point x="83" y="461.593" type="curve" smooth="yes"/>
      <point x="217.999" y="461.593" type="line" smooth="yes"/>
      <point x="254.256" y="461.593"/>
      <point x="276.998" y="447.912"/>
      <point x="276.999" y="410.592" type="curve" smooth="yes"/>
      <point x="277" y="343.197" type="line" smooth="yes"/>
      <point x="277" y="304.18"/>
      <point x="262.854" y="285.595"/>
      <point x="224.999" y="285.595" type="curve" smooth="yes"/>
      <point x="46.918" y="285.594" type="line"/>
      <point x="46.917" y="318.394" type="line"/>
      <point x="217.197" y="318" type="line" smooth="yes"/>
      <point x="230.197" y="318"/>
      <point x="239.797" y="325.197"/>
      <point x="239.797" y="346" type="curve" smooth="yes"/>
      <point x="239.793" y="406.595" type="line" smooth="yes"/>
      <point x="239.701" y="422.308"/>
      <point x="229.384" y="429.595"/>
      <point x="211.197" y="429.595" type="curve" smooth="yes"/>
      <point x="87" y="429.595" type="line" smooth="yes"/>
      <point x="65.3779" y="429.595"/>
      <point x="59" y="417.936"/>
      <point x="59" y="403.195" type="curve" smooth="yes"/>
      <point x="59" y="57" type="line" smooth="yes"/>
      <point x="59" y="41.6133"/>
      <point x="64.3438" y="32"/>
      <point x="75.1992" y="32" type="curve" smooth="yes"/>
      <point x="169" y="32" type="line" smooth="yes"/>
      <point x="179.569" y="32"/>
      <point x="190.789" y="34.4688"/>
      <point x="190.797" y="50.2002" type="curve" smooth="yes"/>
      <point x="190.617" y="89" type="line" smooth="yes"/>
      <point x="190.54" y="105.643"/>
      <point x="174.812" y="116.229"/>
      <point x="164" y="123" type="curve" smooth="yes"/>
      <point x="156.141" y="127.923"/>
      <point x="126.146" y="141.854"/>
      <point x="126.146" y="166" type="curve" smooth="yes"/>
      <point x="126.146" y="207" type="line" smooth="yes"/>
      <point x="126.146" y="228.587"/>
      <point x="139.99" y="235.591"/>
      <point x="155.001" y="235.591" type="curve" smooth="yes"/>
      <point x="241.207" y="235.591" type="line"/>
      <point x="326.204" y="235.591" type="line" smooth="yes"/>
      <point x="340.429" y="235.591"/>
      <point x="355.651" y="229.581"/>
      <point x="355.651" y="207" type="curve" smooth="yes"/>
      <point x="355.651" y="166" type="line" smooth="yes"/>
      <point x="355.651" y="139.055"/>
      <point x="322.55" y="127.566"/>
      <point x="315" y="122.999" type="curve" smooth="yes"/>
      <point x="302.094" y="115.191"/>
      <point x="292" y="106"/>
      <point x="291.74" y="90" type="curve" smooth="yes"/>
      <point x="291.741" y="51.2002" type="line" smooth="yes"/>
      <point x="291.741" y="36.2852"/>
      <point x="301.235" y="32"/>
      <point x="312" y="32" type="curve" smooth="yes"/>
      <point x="402.8" y="32" type="line" smooth="yes"/>
      <point x="418.358" y="32"/>
      <point x="423.001" y="44"/>
      <point x="423.001" y="56.7998" type="curve" smooth="yes"/>
      <point x="423.001" y="415" type="line"/>
      <point x="460.067" y="415" type="line"/>
    </contour>
    <contour>
      <point x="460" y="400" type="line"/>
      <point x="423" y="400" type="line"/>
      <point x="423" y="476" type="line" smooth="yes"/>
      <point x="423" y="499.381"/>
      <point x="416.127" y="509.5"/>
      <point x="391" y="509.5" type="curve" smooth="yes"/>
      <point x="69" y="509.5" type="line" smooth="yes"/>
      <point x="37.667" y="509.5"/>
      <point x="22" y="525.5"/>
      <point x="22" y="557.5" type="curve" smooth="yes"/>
      <point x="22" y="620" type="line" smooth="yes"/>
      <point x="22" y="653.415"/>
      <point x="36.1038" y="672"/>
      <point x="72" y="672" type="curve" smooth="yes"/>
      <point x="458.5" y="672" type="line"/>
      <point x="458.5" y="640" type="line"/>
      <point x="84" y="640" type="line" smooth="yes"/>
      <point x="63.083" y="640"/>
      <point x="58.875" y="635.558"/>
      <point x="58.875" y="611" type="curve" smooth="yes"/>
      <point x="58.875" y="566" type="line" smooth="yes"/>
      <point x="58.875" y="552.49"/>
      <point x="60.4326" y="541.5"/>
      <point x="83" y="541.5" type="curve" smooth="yes"/>
      <point x="391" y="541.5" type="line" smooth="yes"/>
      <point x="447.814" y="541.5"/>
      <point x="460" y="524.085"/>
      <point x="460" y="466" type="curve" smooth="yes"/>
    </contour>
  </outline>
</glyph>
